<?xml version="1.0" standalone="no"?>
<!DOCTYPE svg PUBLIC "-//W3C//DTD SVG 20010904//EN"
 "http://www.w3.org/TR/2001/REC-SVG-20010904/DTD/svg10.dtd">
<svg version="1.0" xmlns="http://www.w3.org/2000/svg"
 width="335.000000pt" height="335.000000pt" viewBox="0 0 335.000000 335.000000"
 preserveAspectRatio="xMidYMid meet">

<g transform="translate(0.000000,335.000000) scale(0.100000,-0.100000)"
fill="#000000" stroke="none">
<path d="M1000 3116 c0 -44 0 -44 28 -34 18 7 36 7 55 -1 22 -8 27 -17 27 -44
0 -18 -5 -38 -12 -45 -18 -18 -79 -15 -95 6 -13 16 -14 16 -11 -3 3 -17 12
-21 54 -23 60 -3 78 12 77 64 -1 49 -18 64 -70 64 -40 0 -44 2 -41 23 2 18 11
23 53 28 l50 6 -57 1 -58 2 0 -44z"/>
<path d="M1276 3138 c-20 -28 -21 -126 -2 -150 19 -26 92 -25 106 1 14 28 12
133 -4 154 -20 26 -81 23 -100 -5z m88 -10 c18 -25 21 -100 6 -129 -7 -13 -21
-19 -45 -19 -30 0 -35 4 -45 36 -13 39 -8 97 11 120 17 21 56 17 73 -8z"/>
<path d="M1452 3140 c-15 -24 -16 -124 -2 -151 14 -26 87 -27 106 -1 19 24 18
122 -2 150 -20 30 -84 31 -102 2z m89 -6 c7 -9 13 -40 13 -69 0 -29 -6 -60
-13 -69 -19 -23 -68 -21 -81 3 -16 31 -12 112 7 133 20 22 56 23 74 2z"/>
<path d="M902 2914 l-2 -91 -102 -5 c-107 -5 -164 -23 -215 -71 -25 -23 -63
-114 -63 -152 l0 -25 -142 0 c-79 0 -138 -4 -131 -8 17 -11 17 -863 0 -874 -9
-6 -9 -10 0 -16 9 -6 12 -92 12 -341 0 -183 3 -336 6 -339 3 -3 8 -3 11 0 3 3
5 157 5 342 l0 336 165 0 165 0 -3 -127 -3 -128 -27 -3 -28 -3 0 -214 0 -214
-157 -4 -158 -3 156 -2 157 -2 4 -40 c2 -26 -1 -40 -8 -40 -17 0 -24 -25 -24
-88 0 -79 16 -127 56 -171 l34 -38 0 -167 c0 -104 4 -166 10 -166 6 0 10 60
10 160 0 88 2 160 4 160 2 0 20 -7 39 -15 53 -22 1911 -22 1972 0 22 8 41 15
42 15 1 0 4 -73 6 -163 l3 -162 2 169 c2 167 2 169 28 192 24 23 33 24 167 26
78 1 123 3 100 5 -40 4 -42 5 -33 29 6 15 6 24 0 24 -7 0 -10 350 -10 981 0
651 3 978 10 974 12 -8 13 -3 0 29 -9 24 -7 25 33 29 23 2 -21 4 -99 5 -138 2
-141 2 -165 28 -13 15 -44 36 -69 48 -44 20 -60 21 -522 24 l-478 3 -2 92 c-1
51 -3 75 -5 55 -5 -42 -6 -43 -34 -28 -13 7 -19 7 -19 0 0 -7 -105 -10 -315
-10 -198 0 -315 4 -315 10 0 6 -9 6 -26 0 -14 -6 -27 -10 -29 -10 -2 0 -6 17
-8 38 -2 20 -4 -4 -5 -54z m53 -10 c8 -3 15 -1 15 5 0 16 627 16 632 0 3 -9
10 -9 26 0 21 11 22 10 22 -39 l0 -50 -370 0 -370 0 0 51 c0 41 3 50 15 45 8
-3 22 -9 30 -12z m-55 -150 l0 -45 -78 2 c-43 1 -95 -4 -115 -10 -41 -14 -74
-54 -83 -100 -6 -28 -10 -31 -45 -31 -36 0 -39 2 -39 28 0 39 49 132 82 155
39 29 113 46 201 46 l77 1 0 -46z m750 1 l0 -45 -370 0 -370 0 0 45 0 45 370
0 370 0 0 -45z m1006 18 c22 -12 46 -28 53 -37 11 -13 -9 -15 -171 -18 -101
-2 -187 0 -192 5 -15 11 -94 9 -101 -3 -4 -6 -114 -10 -297 -10 l-290 0 6 23
c3 12 6 32 6 45 l0 23 473 -3 c463 -3 473 -3 513 -25z m98 -106 c9 -24 16 -72
16 -110 l0 -67 -33 0 -33 0 -11 70 c-12 81 -32 116 -76 135 -31 14 -29 14 44
15 l76 0 17 -43z m186 -987 l0 -1030 -90 0 c-50 0 -90 2 -90 4 0 2 7 20 15 39
9 22 15 68 15 117 l0 80 -32 1 c-18 1 -25 3 -15 6 16 4 17 25 17 257 l0 254
-30 6 -30 6 0 130 0 130 43 2 42 1 -42 4 -43 4 0 130 0 129 30 0 31 0 -3 259
c-3 241 -2 260 15 265 14 3 17 16 17 80 0 46 -6 91 -15 113 -8 19 -15 37 -15
39 0 2 40 4 90 4 l89 0 1 -1030z m-2042 1001 c5 -16 -114 -15 -121 2 -3 9 11
12 56 11 35 -1 63 -7 65 -13z m750 0 c3 -8 -102 -11 -367 -11 -327 0 -384 3
-367 21 2 2 168 3 367 2 254 -1 364 -4 367 -12z m889 5 c-5 -15 -877 -21 -877
-6 0 9 152 12 733 16 103 1 147 -2 144 -10z m-1780 -11 c2 -6 -12 -18 -30 -28
-19 -10 -38 -31 -45 -50 -11 -29 -13 -30 -28 -15 -14 14 -14 18 0 47 24 46 92
77 103 46z m1877 -14 c27 -23 39 -61 25 -77 -9 -12 -15 -8 -29 18 -9 18 -31
40 -48 49 -23 12 -28 19 -19 28 13 13 44 5 71 -18z m-1734 -21 c0 -5 -17 -10
-37 -10 -37 0 -73 -23 -73 -47 0 -9 -15 -13 -50 -13 l-50 0 12 26 c7 14 26 32
42 39 36 16 156 20 156 5z m751 -12 l2 -23 4 23 4 22 440 0 c373 0 444 -2 469
-15 38 -20 50 -43 50 -99 l0 -46 -56 0 c-50 0 -55 2 -49 18 18 40 16 68 -5 95
-17 22 -30 27 -64 27 -68 0 -100 -52 -70 -115 18 -38 46 -51 94 -41 l30 6 0
-180 0 -180 -267 2 -268 3 -5 61 c-8 93 -10 94 -166 94 l-134 0 -2 38 -1 37
-4 -37 -4 -38 -134 0 c-158 0 -165 -4 -165 -102 l0 -58 -265 0 -265 0 2 78 c0
42 3 62 5 45 l4 -33 75 0 74 0 0 40 c0 29 -4 40 -15 40 -9 0 -15 9 -15 24 0
13 -9 35 -20 49 -27 33 -26 88 3 148 l22 48 285 3 285 3 -292 3 c-241 2 -293
4 -293 16 0 7 -7 19 -15 26 -8 7 -15 19 -15 26 0 12 62 14 370 14 l370 0 1
-22z m-751 -38 c0 -17 -7 -20 -45 -20 -25 0 -45 4 -45 8 0 18 26 32 57 32 26
0 33 -4 33 -20z m1600 -12 c13 -25 13 -31 0 -55 -17 -31 -70 -44 -95 -23 -22
19 -27 60 -10 87 23 35 83 30 105 -9z m-1980 -53 c0 -22 6 -39 18 -46 16 -10
17 -32 14 -270 l-3 -259 31 0 30 0 0 -130 0 -130 -165 0 -164 0 0 435 0 435
119 0 120 0 0 -35z m100 -1 c0 -35 -1 -35 -37 -32 -35 3 -38 6 -41 36 -3 31
-2 32 37 32 40 0 41 -1 41 -36z m50 -10 c0 -15 -6 -24 -15 -24 -11 0 -15 11
-15 36 0 31 2 35 15 24 8 -7 15 -23 15 -36z m121 11 l16 -35 -58 0 -59 0 0 35
c0 35 1 35 43 35 38 -1 43 -4 58 -35z m109 0 c0 -32 -2 -35 -29 -35 -28 0 -71
38 -71 61 0 5 23 9 50 9 l50 0 0 -35z m30 21 c0 -8 -4 -18 -10 -21 -5 -3 -10
3 -10 14 0 12 5 21 10 21 6 0 10 -6 10 -14z m1740 -21 c0 -24 -5 -35 -15 -35
-18 0 -20 41 -3 58 17 17 18 16 18 -23z m-1770 -96 c0 -25 -5 -39 -12 -39 -7
0 -25 -7 -40 -14 l-28 -15 0 57 0 58 40 -4 c39 -4 40 -5 40 -43z m-212 27
c-16 -12 -18 -36 -18 -245 l0 -231 -27 0 c-16 0 -38 -3 -51 -6 l-22 -6 2 238
3 239 28 3 c15 2 27 8 27 13 0 5 17 9 38 9 33 -1 35 -2 20 -14z m112 -246 l0
-260 -35 0 -35 0 0 260 0 260 35 0 35 0 0 -260z m1790 0 l0 -260 -35 0 -35 0
0 260 0 260 35 0 35 0 0 -260z m78 243 c-10 -2 -26 -2 -35 0 -10 3 -2 5 17 5
19 0 27 -2 18 -5z m-1971 -360 c-1 -65 -3 -12 -3 117 0 129 2 182 3 118 2 -65
2 -171 0 -235z m2043 111 c0 -211 -2 -235 -16 -230 -9 3 -31 6 -50 6 l-34 0 0
224 0 225 23 4 c12 2 34 5 50 6 l27 1 0 -236z m-123 -106 c-1 -62 -3 -12 -3
112 0 124 2 174 3 113 2 -62 2 -164 0 -225z m-1721 257 c4 -8 10 -13 14 -10
11 7 21 -22 14 -40 -4 -10 -20 -15 -50 -15 -40 0 -44 2 -44 24 0 14 10 32 22
40 28 20 37 20 44 1z m64 -105 c0 -18 -7 -20 -55 -20 -30 0 -55 5 -55 10 0 6
12 10 28 10 15 0 34 5 42 10 24 16 40 12 40 -10z m958 -65 c1 -27 4 -60 7 -72
l5 -23 273 -2 272 -3 3 -77 3 -78 59 0 60 0 0 -120 c0 -107 -2 -120 -17 -121
-17 -1 -17 -2 0 -6 15 -4 17 -19 17 -123 l0 -119 -62 -3 -61 -3 2 -77 2 -78
-820 0 -820 0 -3 78 -3 77 -62 3 -63 3 0 114 0 115 64 0 c36 0 68 5 71 10 4 6
-20 10 -64 10 l-71 0 0 120 0 120 65 0 65 0 0 80 0 81 267 -1 c307 -1 293 -6
293 92 l0 58 258 -3 257 -2 3 -50z m-541 -27 c-2 -13 -4 -5 -4 17 -1 22 1 32
4 23 2 -10 2 -28 0 -40z m-689 -205 c-10 -2 -28 -2 -40 0 -13 2 -5 4 17 4 22
1 32 -1 23 -4z m1980 0 c-10 -2 -28 -2 -40 0 -13 2 -5 4 17 4 22 1 32 -1 23
-4z m-1998 -143 c0 -100 -2 -120 -15 -120 -12 0 -15 20 -15 120 0 100 3 120
15 120 13 0 15 -20 15 -120z m2000 -125 c0 -211 -2 -245 -15 -245 -12 0 -15
20 -15 120 0 89 3 120 13 121 10 0 10 2 0 6 -10 3 -13 38 -13 124 0 99 3 119
15 119 13 0 15 -34 15 -245z m-2000 -130 c0 -96 -3 -115 -15 -115 -12 0 -15
19 -15 115 0 96 3 115 15 115 12 0 15 -19 15 -115z m130 -355 l0 -220 -35 0
-35 0 0 220 0 220 35 0 35 0 0 -220z m1785 -45 l0 -260 -32 -3 -33 -3 0 266 0
266 33 -3 32 -3 0 -260z m-1897 248 c-10 -2 -28 -2 -40 0 -13 2 -5 4 17 4 22
1 32 -1 23 -4z m1980 0 c-10 -2 -28 -2 -40 0 -13 2 -5 4 17 4 22 1 32 -1 23
-4z m-1998 -224 l0 -199 -50 0 -50 0 0 198 c0 109 2 201 4 203 3 2 25 3 50 1
l46 -4 0 -199z m2070 -30 c0 -177 -3 -229 -12 -229 -7 0 -30 3 -50 6 l-38 7 0
223 0 223 43 3 c23 2 45 2 50 0 4 -2 7 -106 7 -233z m-2043 -71 c-1 -57 -3
-11 -3 102 0 113 2 159 3 103 2 -57 2 -149 0 -205z m1920 -30 c-1 -62 -3 -12
-3 112 0 124 2 174 3 113 2 -62 2 -164 0 -225z m-1169 205 c-115 -2 -301 -2
-415 0 -115 1 -21 2 207 2 228 0 322 -1 208 -2z m830 0 c-115 -2 -301 -2 -415
0 -115 1 -21 2 207 2 228 0 322 -1 208 -2z m-1028 -148 l0 -125 -215 0 -215 0
0 125 0 125 215 0 215 0 0 -125z m1252 -52 l3 -178 58 0 57 0 0 -51 c0 -43 -4
-54 -31 -80 l-30 -29 -452 0 c-249 -1 -362 0 -252 2 110 2 203 7 207 11 5 5 8
119 8 255 l0 247 215 0 215 0 2 -177z m-851 155 c0 -10 2 -10 6 0 3 9 53 12
199 12 l194 0 0 -120 0 -120 -82 -2 -83 -2 83 -3 82 -4 0 -114 0 -115 -195 0
c-179 0 -195 1 -196 18 -1 16 -2 16 -6 0 -4 -16 -22 -18 -194 -18 l-189 0 0
115 0 115 30 0 c17 0 30 5 30 10 0 6 -13 10 -30 10 l-30 0 0 75 0 75 45 0 45
0 0 40 0 40 145 0 c109 0 145 -3 146 -12z m-311 -23 c0 -22 -4 -25 -35 -25
-31 0 -35 3 -35 25 0 22 4 25 35 25 31 0 35 -3 35 -25z m-670 -234 c0 -14 -10
-20 -37 -25 -58 -9 -63 -8 -63 19 0 23 3 25 50 25 42 0 50 -3 50 -19z m27 -13
c-3 -7 -5 -2 -5 12 0 14 2 19 5 13 2 -7 2 -19 0 -25z m103 -8 c0 -39 -1 -40
-35 -40 -34 0 -35 1 -35 40 0 39 1 40 35 40 34 0 35 -1 35 -40z m450 -85 l0
-125 198 -3 c108 -1 -5 -3 -251 -2 l-449 0 -29 33 c-23 25 -29 42 -29 77 0 29
5 45 13 46 6 1 35 2 62 3 l50 1 3 48 3 47 215 0 214 0 0 -125z m-562 58 c-10
-2 -28 -2 -40 0 -13 2 -5 4 17 4 22 1 32 -1 23 -4z m1980 0 c-10 -2 -28 -2
-40 0 -13 2 -5 4 17 4 22 1 32 -1 23 -4z m-2051 -37 c8 -7 -9 -236 -17 -236
-5 0 -20 23 -34 52 -33 66 -38 184 -8 191 18 4 52 0 59 -7z m53 -15 c0 -16 -7
-34 -15 -41 -13 -11 -15 -7 -15 29 0 30 4 41 15 41 10 0 15 -10 15 -29z m2000
-12 c0 -36 -2 -40 -15 -29 -26 21 -19 59 13 69 1 1 2 -18 2 -40z m91 31 c5 0
9 -32 9 -70 0 -51 -6 -82 -20 -110 -30 -59 -50 -53 -52 18 -4 136 6 179 40
167 8 -3 18 -5 23 -5z m-2072 -115 c11 -20 35 -42 51 -49 27 -11 29 -14 16
-25 -36 -30 -134 61 -104 96 14 17 13 18 37 -22z m1981 19 c0 -3 -7 -20 -15
-40 -19 -46 -79 -74 -104 -50 -14 15 -14 16 4 16 22 0 85 57 85 77 0 7 7 10
15 7 8 -4 15 -8 15 -10z m16 -110 c-3 -9 -21 -14 -48 -14 l-43 0 31 20 c18 12
38 35 45 53 l14 32 3 -39 c2 -21 1 -44 -2 -52z m-1982 1 c34 -14 138 -16 840
-17 1020 -2 1146 -5 1146 -24 0 -8 -19 -24 -42 -34 -41 -18 -70 -20 -515 -20
l-473 0 -2 38 -1 37 -4 -37 -4 -38 -469 0 c-408 0 -475 2 -510 16 l-40 16 0
67 1 66 16 -27 c10 -15 35 -35 57 -43z m1821 15 c4 -7 -292 -10 -870 -10 -578
0 -874 3 -870 10 8 14 1732 14 1740 0z m195 -44 c0 -3 -4 -8 -10 -11 -5 -3
-10 -1 -10 4 0 6 5 11 10 11 6 0 10 -2 10 -4z"/>
<path d="M1707 2609 c-8 -11 -23 -20 -34 -19 -10 1 -37 2 -60 1 -39 -1 -43 -3
-43 -26 0 -22 4 -25 40 -25 l39 0 4 -92 3 -93 2 93 c2 82 4 92 20 92 11 0 27
-9 37 -20 51 -56 135 12 100 81 -13 25 -21 29 -55 29 -28 0 -43 -6 -53 -21z
m93 -20 c9 -16 8 -26 -5 -45 -19 -30 -62 -30 -57 -1 2 10 -4 17 -15 18 -17 1
-17 2 0 6 18 5 24 23 6 23 -5 0 -7 5 -4 10 12 19 64 11 75 -11z m-162 -26
c-10 -2 -26 -2 -35 0 -10 3 -2 5 17 5 19 0 27 -2 18 -5z m49 1 c-3 -3 -12 -4
-19 -1 -8 3 -5 6 6 6 11 1 17 -2 13 -5z"/>
<path d="M332 2402 c-7 -5 -15 -25 -19 -45 -4 -29 -1 -40 20 -61 33 -33 61
-33 94 0 19 19 24 33 21 55 -4 27 -2 30 21 27 23 -3 27 -9 32 -48 7 -44 7 -44
5 10 l-1 55 -42 3 -42 3 9 -29 c11 -41 -8 -76 -43 -80 -16 -2 -35 2 -43 9 -19
16 -18 68 3 91 17 18 8 24 -15 10z"/>
<path d="M312 2209 c2 -6 8 -10 13 -10 5 0 11 4 13 10 2 6 -4 11 -13 11 -9 0
-15 -5 -13 -11z"/>
<path d="M424 2137 c-34 -14 -50 -52 -36 -82 11 -23 9 -25 -11 -25 -13 0 -28
5 -35 12 -16 16 -15 75 1 81 7 4 6 6 -5 6 -25 1 -34 -54 -14 -84 15 -23 23
-25 88 -25 56 0 74 4 84 18 39 51 -15 125 -72 99z m62 -32 c11 -16 11 -25 1
-45 -18 -36 -61 -39 -83 -5 -16 25 -16 27 7 51 27 28 56 28 75 -1z"/>
<path d="M326 1938 c-22 -31 -20 -64 4 -88 16 -16 33 -20 84 -20 56 0 67 3 80
22 9 12 16 32 16 43 0 11 -7 31 -16 43 -13 19 -24 22 -84 22 -60 0 -71 -3 -84
-22z m156 -6 c13 -13 14 -60 0 -74 -15 -15 -93 -21 -124 -9 -23 9 -28 17 -28
46 0 27 5 38 23 45 27 12 114 7 129 -8z"/>
<path d="M1653 2145 c0 -27 2 -38 4 -22 2 15 2 37 0 50 -2 12 -4 0 -4 -28z"/>
<path d="M1653 2015 c0 -27 2 -38 4 -22 2 15 2 37 0 50 -2 12 -4 0 -4 -28z"/>
<path d="M1615 1923 c-59 -14 -90 -28 -121 -56 -72 -63 -99 -161 -70 -260 19
-67 50 -106 114 -143 39 -24 58 -28 117 -28 59 0 78 4 117 27 89 52 132 122
132 217 0 95 -50 177 -134 220 -37 19 -121 32 -155 23z m35 -43 c0 -24 -4 -30
-21 -30 -55 0 -126 -67 -139 -130 -4 -18 -13 -26 -33 -28 -32 -4 -34 6 -12 69
28 80 102 135 198 148 4 1 7 -12 7 -29z m95 8 c60 -22 127 -102 138 -165 6
-31 5 -33 -23 -33 -24 0 -31 5 -36 27 -18 69 -68 120 -129 133 -23 4 -31 12
-33 33 -3 26 -1 27 25 22 15 -4 42 -11 58 -17z m-8 -75 c31 -20 63 -75 68
-115 6 -47 -10 -89 -51 -129 -32 -31 -41 -34 -93 -34 -48 0 -64 5 -94 28 -47
36 -61 62 -61 118 0 50 28 105 66 128 49 30 122 32 165 4z m-253 -149 c3 -9 6
-24 6 -35 0 -31 81 -105 123 -113 33 -6 37 -10 37 -37 0 -29 -1 -30 -32 -24
-48 11 -99 39 -130 72 -24 26 -58 106 -58 138 0 20 46 19 54 -1z m401 -16
c-18 -81 -68 -143 -145 -177 -64 -29 -80 -27 -80 8 0 25 5 30 36 35 51 10 112
69 125 122 10 40 14 44 41 44 28 0 29 -2 23 -32z"/>
<path d="M1651 1748 l-1 -58 -57 -1 c-64 -1 -62 -4 10 -14 l47 -6 1 -47 c1
-26 3 -36 6 -22 10 66 12 69 56 78 l42 10 -42 1 c-46 1 -42 -5 -56 91 -3 14
-5 -1 -6 -32z"/>
<path d="M923 1683 c15 -2 37 -2 50 0 12 2 0 4 -28 4 -27 0 -38 -2 -22 -4z"/>
<path d="M1048 1683 c12 -2 32 -2 45 0 12 2 2 4 -23 4 -25 0 -35 -2 -22 -4z"/>
<path d="M1173 1683 c15 -2 37 -2 50 0 12 2 0 4 -28 4 -27 0 -38 -2 -22 -4z"/>
<path d="M1303 1683 c15 -2 37 -2 50 0 12 2 0 4 -28 4 -27 0 -38 -2 -22 -4z"/>
<path d="M1953 1683 c15 -2 37 -2 50 0 12 2 0 4 -28 4 -27 0 -38 -2 -22 -4z"/>
<path d="M2088 1683 c17 -2 47 -2 65 0 17 2 3 4 -33 4 -36 0 -50 -2 -32 -4z"/>
<path d="M2208 1683 c12 -2 32 -2 45 0 12 2 2 4 -23 4 -25 0 -35 -2 -22 -4z"/>
<path d="M2333 1683 c15 -2 37 -2 50 0 12 2 0 4 -28 4 -27 0 -38 -2 -22 -4z"/>
<path d="M2463 1683 c15 -2 37 -2 50 0 12 2 0 4 -28 4 -27 0 -38 -2 -22 -4z"/>
<path d="M1653 1375 c0 -27 2 -38 4 -22 2 15 2 37 0 50 -2 12 -4 0 -4 -28z"/>
<path d="M2410 1051 c0 -21 6 -30 21 -34 33 -9 49 3 49 34 0 26 -3 29 -35 29
-32 0 -35 -3 -35 -29z m50 -6 c0 -8 -7 -15 -15 -15 -8 0 -15 7 -15 15 0 8 7
15 15 15 8 0 15 -7 15 -15z"/>
<path d="M2391 873 c-71 -59 6 -179 89 -140 53 25 63 110 17 142 -29 20 -80
19 -106 -2z m105 -28 c33 -51 -15 -116 -70 -95 -23 8 -46 44 -46 71 0 20 41
49 70 49 20 0 35 -8 46 -25z"/>
<path d="M1653 1115 c0 -27 2 -38 4 -22 2 15 2 37 0 50 -2 12 -4 0 -4 -28z"/>
<path d="M1651 1008 c0 -16 -7 -28 -13 -28 -9 0 -10 -3 -2 -8 6 -4 14 -14 17
-22 4 -12 6 -12 6 2 1 11 12 18 34 21 l32 4 -32 1 c-26 2 -32 7 -36 30 l-4 27
-2 -27z"/>
<path d="M1393 973 c15 -2 37 -2 50 0 12 2 0 4 -28 4 -27 0 -38 -2 -22 -4z"/>
<path d="M1523 973 c15 -2 37 -2 50 0 12 2 0 4 -28 4 -27 0 -38 -2 -22 -4z"/>
<path d="M1788 973 c17 -2 47 -2 65 0 17 2 3 4 -33 4 -36 0 -50 -2 -32 -4z"/>
<path d="M1653 855 c0 -27 2 -38 4 -22 2 15 2 37 0 50 -2 12 -4 0 -4 -28z"/>
<path d="M809 861 c-35 -35 -36 -59 -8 -95 44 -56 104 -53 134 4 46 89 -55
162 -126 91z m105 -13 c22 -32 20 -55 -9 -83 -31 -32 -40 -31 -76 4 -35 35
-36 53 -7 81 29 27 73 26 92 -2z"/>
<path d="M1180 2980 c0 -5 5 -10 10 -10 6 0 10 5 10 10 0 6 -4 10 -10 10 -5 0
-10 -4 -10 -10z"/>
<path d="M3149 2023 c8 -17 3 -18 -66 -15 -45 2 -80 -1 -86 -7 -8 -8 18 -11
91 -11 56 0 102 3 102 8 0 8 -37 42 -45 42 -3 0 -1 -8 4 -17z"/>
<path d="M3002 1878 c-21 -21 -15 -85 10 -102 34 -24 75 -20 94 9 l16 25 28
-20 c16 -11 31 -20 34 -20 3 0 5 26 4 58 l-1 57 -6 -48 -6 -49 -27 21 c-33 26
-48 27 -48 1 0 -18 -26 -40 -49 -40 -18 0 -51 39 -51 60 0 11 9 29 20 40 13
13 15 20 7 20 -7 0 -18 -5 -25 -12z"/>
<path d="M2995 1699 c-10 -15 3 -25 16 -12 7 7 7 13 1 17 -6 3 -14 1 -17 -5z"/>
<path d="M3006 1614 c-9 -9 -16 -32 -16 -54 0 -65 57 -94 98 -49 17 18 20 18
26 4 4 -11 15 -15 33 -13 57 6 57 110 0 116 -18 2 -29 -2 -33 -13 -6 -14 -9
-14 -26 4 -22 25 -60 27 -82 5z m68 -10 c11 -4 16 -19 16 -44 0 -40 -11 -50
-56 -50 -27 0 -40 33 -30 75 6 25 34 33 70 19z m96 -13 c13 -26 13 -43 -3 -65
-27 -37 -65 11 -47 60 11 29 35 31 50 5z"/>
<path d="M370 1577 c0 -44 -1 -46 -32 -50 l-33 -4 33 -1 c25 -2 32 -6 32 -22
0 -11 5 -20 10 -20 6 0 10 9 10 20 0 16 8 19 62 22 l62 3 -57 43 c-83 62 -87
63 -87 9z m90 -30 l24 -17 -47 0 -47 0 0 37 0 36 23 -20 c12 -11 33 -27 47
-36z"/>
<path d="M3030 1439 c-30 -12 -40 -26 -40 -61 0 -78 177 -89 196 -12 4 15 2
34 -3 43 -23 37 -98 52 -153 30z m89 -5 c18 -4 39 -17 47 -30 22 -32 4 -61
-47 -74 -34 -9 -46 -8 -77 7 -20 10 -39 26 -40 36 -5 23 23 54 52 60 11 2 24
5 27 6 4 0 21 -2 38 -5z"/>
<path d="M312 1419 c2 -6 8 -10 13 -10 5 0 11 4 13 10 2 6 -4 11 -13 11 -9 0
-15 -5 -13 -11z"/>
<path d="M499 1343 c0 -5 0 -29 1 -55 1 -29 -3 -48 -10 -48 -6 0 -42 16 -81
36 -39 19 -75 34 -81 32 -11 -4 153 -88 171 -88 7 0 11 26 11 65 0 36 -2 65
-5 65 -3 0 -5 -3 -6 -7z"/>
<path d="M329 1149 c-16 -16 -20 -28 -15 -52 10 -50 22 -57 97 -57 59 0 70 3
83 22 23 33 20 74 -6 92 -35 25 -133 21 -159 -5z m159 -16 c12 -17 8 -48 -10
-70 -13 -16 -102 -17 -129 -3 -28 16 -26 73 4 88 31 16 119 7 135 -15z"/>
<path d="M1312 460 c-27 -23 -29 -34 -2 -20 19 10 20 8 20 -75 0 -55 4 -84 10
-80 12 7 14 181 2 188 -4 3 -17 -3 -30 -13z"/>
<path d="M1503 473 l47 -4 -25 -34 -26 -33 31 -7 c29 -6 31 -10 28 -43 -2 -27
-10 -40 -30 -51 -25 -14 -29 -14 -59 8 -18 14 -30 18 -27 10 8 -23 52 -43 81
-35 56 14 75 106 26 121 -19 6 -19 7 1 41 l22 34 -59 -2 c-57 -2 -57 -2 -10
-5z"/>
<path d="M1727 474 c-11 -11 -8 -49 5 -62 9 -9 8 -16 -5 -30 -27 -29 -22 -76
8 -90 38 -18 72 -15 95 8 24 24 25 36 5 73 -12 23 -12 32 -2 48 19 31 -2 53
-54 57 -25 2 -48 0 -52 -4z m92 -17 c17 -22 -9 -49 -43 -45 -36 4 -58 34 -36
48 22 14 66 12 79 -3z m-8 -77 c30 -16 26 -67 -7 -82 -21 -10 -31 -9 -52 3
-33 18 -39 44 -16 70 19 21 45 24 75 9z"/>
<path d="M1910 465 c-36 -44 -18 -170 27 -181 76 -20 120 92 67 174 -17 26
-74 31 -94 7z m84 -17 c24 -33 21 -109 -5 -137 -12 -12 -28 -20 -36 -17 -8 3
-18 6 -23 6 -10 0 -30 55 -30 82 0 10 7 34 14 53 18 42 56 48 80 13z"/>
<path d="M1630 295 c0 -8 5 -15 10 -15 6 0 10 7 10 15 0 8 -4 15 -10 15 -5 0
-10 -7 -10 -15z"/>
<path d="M652 259 c-13 -5 -21 -13 -18 -18 8 -12 46 -21 46 -10 0 5 401 9 981
9 714 0 978 -3 973 -11 -4 -8 1 -9 17 -4 38 11 42 21 14 33 -15 7 -25 8 -25 2
0 -13 -1957 -14 -1962 -1 -2 5 -13 5 -26 0z"/>
</g>
</svg>
