<?xml version="1.0" standalone="no"?>
<!DOCTYPE svg PUBLIC "-//W3C//DTD SVG 20010904//EN"
 "http://www.w3.org/TR/2001/REC-SVG-20010904/DTD/svg10.dtd">
<svg version="1.0" xmlns="http://www.w3.org/2000/svg"
 width="330.000000pt" height="330.000000pt" viewBox="0 0 330.000000 330.000000"
 preserveAspectRatio="xMidYMid meet">

<g transform="translate(0.000000,330.000000) scale(0.100000,-0.100000)"
fill="#000000" stroke="none">
<path d="M1143 3251 c-13 -11 -23 -23 -23 -27 0 -4 9 1 20 11 19 17 19 16 23
-76 l3 -94 2 103 c1 56 1 102 0 102 -2 -1 -13 -9 -25 -19z"/>
<path d="M1286 3254 c-3 -9 -6 -28 -6 -44 0 -27 1 -28 29 -17 63 24 113 -59
59 -97 -30 -21 -50 -20 -76 4 -16 15 -22 17 -22 7 0 -20 53 -40 82 -32 38 12
48 26 48 66 0 48 -33 75 -81 65 -29 -5 -31 -4 -25 17 3 12 6 25 6 29 0 4 19 9
43 11 l42 4 -46 1 c-35 2 -48 -2 -53 -14z"/>
<path d="M1552 3250 c-6 -11 -12 -47 -12 -80 0 -47 4 -64 20 -80 27 -27 56
-25 87 6 23 23 25 31 21 84 -2 32 -10 65 -17 74 -20 24 -83 21 -99 -4z m83 -4
c15 -10 19 -27 19 -71 1 -48 -3 -60 -23 -76 -29 -24 -36 -24 -61 1 -14 14 -20
33 -20 68 0 77 38 112 85 78z"/>
<path d="M1729 3243 c-40 -104 8 -202 81 -163 40 21 53 105 25 160 -13 26 -21
30 -56 30 -34 0 -41 -4 -50 -27z m84 2 c37 -36 32 -125 -8 -151 -50 -33 -94
36 -73 114 15 53 50 69 81 37z"/>
<path d="M1457 3094 c-8 -8 1 -24 14 -24 5 0 9 7 9 15 0 15 -12 20 -23 9z"/>
<path d="M351 2683 c0 -215 2 -398 5 -407 4 -10 20 -17 43 -17 30 -2 31 -3 9
-6 l-28 -4 0 -255 0 -254 35 0 35 0 0 -265 c0 -255 -1 -265 -19 -265 -52 0
-51 7 -51 -267 0 -221 -2 -257 -16 -271 -13 -13 -15 -31 -12 -91 5 -84 27
-138 75 -183 55 -52 92 -58 369 -58 l254 0 2 -117 c1 -84 3 -97 5 -46 l4 72
419 0 420 0 2 -72 c2 -57 3 -48 7 43 l6 115 555 5 c305 3 545 6 533 8 -26 2
-27 6 -13 33 7 13 7 19 0 19 -7 0 -10 341 -10 1076 0 712 3 1073 10 1069 7 -4
7 2 0 19 -8 21 -6 25 13 29 12 2 -71 5 -185 6 l-208 1 -1 238 c-1 130 -4 227
-6 215 -4 -20 -7 -21 -26 -12 -16 9 -22 9 -25 0 -5 -15 -2142 -16 -2142 -1 0
6 -10 8 -24 4 -18 -4 -25 -1 -29 13 -3 10 -5 -158 -6 -374z m2249 127 l0 -210
-45 0 -45 0 -1 78 c-1 42 -4 65 -6 50 -4 -24 -7 -26 -29 -18 -15 6 -24 6 -24
0 0 -7 -345 -10 -965 -10 -649 0 -965 3 -965 10 0 6 -11 8 -25 4 -21 -5 -25
-3 -25 15 0 12 -4 21 -10 21 -6 0 -10 -38 -10 -93 0 -88 -2 -95 -26 -118 -15
-13 -35 -37 -45 -54 -19 -30 -19 -27 -19 252 l0 283 1120 0 1120 0 0 -210z
m-100 -165 l0 -45 -992 -3 c-546 -1 -1003 -6 -1015 -11 -22 -8 -23 -6 -23 48
l0 56 1015 0 1015 0 0 -45z m-1030 -75 c0 -26 16 -26 23 1 5 20 8 20 469 17
410 -3 467 -5 501 -20 25 -12 37 -23 37 -37 l0 -21 -984 0 -984 0 -31 -26 -31
-26 0 46 c0 81 16 84 563 85 431 1 437 1 437 -19z m1030 10 c0 -5 -7 -7 -15
-4 -8 4 -15 8 -15 10 0 2 7 4 15 4 8 0 15 -4 15 -10z m100 -30 c0 -25 -5 -40
-12 -40 -16 1 -78 56 -78 70 0 5 20 10 45 10 l45 0 0 -40z m360 21 c-13 -25
-13 -34 0 -26 7 4 10 -355 10 -1069 0 -693 -3 -1076 -10 -1076 -6 0 -6 -9 0
-25 l10 -25 -253 0 c-237 1 -250 2 -222 17 16 9 38 27 48 39 17 22 26 24 125
25 59 1 95 4 80 6 -25 4 -27 7 -17 26 9 16 9 22 0 25 -15 5 -16 1962 -1 1962
6 0 8 10 4 24 -5 20 -1 25 18 29 12 2 -14 5 -59 6 l-83 1 0 40 0 40 180 0
c176 0 180 -1 170 -19z m-2508 -218 l-4 -73 -39 0 -39 0 0 68 c0 69 20 128 56
171 19 22 19 22 24 -36 3 -32 4 -91 2 -130z m2078 172 c10 -12 10 -15 -4 -15
-9 0 -16 7 -16 15 0 8 2 15 4 15 2 0 9 -7 16 -15z m-30 -52 c0 -23 -2 -25 -12
-12 -7 7 -19 20 -27 27 -12 10 -10 12 12 12 23 0 27 -4 27 -27z m74 -12 c11
-22 18 -66 19 -107 l2 -69 -42 -3 -41 -3 -4 73 c-5 121 -1 148 26 148 17 0 28
-10 40 -39z m26 17 c0 -19 -2 -20 -10 -8 -13 19 -13 30 0 30 6 0 10 -10 10
-22z m110 -1008 l0 -1030 -66 0 c-59 0 -65 2 -59 18 38 88 45 192 15 220 -18
17 -20 34 -22 273 l-3 254 -33 3 -32 3 2 262 3 262 33 3 32 3 0 254 0 254 -22
4 c-15 3 -10 5 13 6 47 1 52 18 43 146 l-7 95 51 0 52 0 0 -1030z m-2119 994
c19 -21 21 -28 10 -32 -16 -6 -51 -39 -66 -65 -9 -15 -13 -14 -38 7 -24 19
-27 26 -18 48 12 33 49 68 71 68 9 0 27 -12 41 -26z m880 19 c0 -5 2 -16 4
-25 3 -17 -22 -18 -414 -18 l-418 0 -23 25 -23 25 436 0 c240 0 437 -3 438 -7z
m879 2 c0 -3 -9 -14 -20 -25 -19 -19 -33 -20 -430 -20 l-410 0 0 25 0 25 430
0 c237 0 430 -2 430 -5z m96 -10 c12 -8 27 -28 34 -45 12 -29 11 -33 -15 -61
l-29 -29 -12 30 c-7 17 -29 40 -49 51 l-36 22 22 23 c26 27 55 31 85 9z m-57
-81 c14 -12 -19 -1 -35 12 -18 14 -18 14 6 3 14 -6 27 -13 29 -15z m-56 -3
c57 -22 57 -22 57 -284 0 -230 -1 -240 -17 -217 -23 33 -43 48 -73 56 -35 10
-40 20 -40 97 l0 68 -42 -3 -43 -3 -3 -72 -3 -73 -339 0 c-333 0 -340 0 -340
20 0 11 -5 20 -10 20 -6 0 -10 -8 -8 -17 3 -17 -19 -18 -329 -21 l-333 -2 0
75 0 75 -45 0 -45 0 0 -74 c0 -77 -5 -86 -51 -86 -10 0 -36 -17 -57 -37 l-37
-38 0 236 c0 217 2 239 19 257 10 12 28 23 40 25 44 9 1676 7 1699 -2z m-1803
-178 l0 -103 -30 0 -30 0 0 132 0 132 30 -29 c30 -28 30 -30 30 -132z m1960
22 l0 -125 -25 0 -25 0 0 102 c0 91 2 104 22 125 12 13 23 23 25 23 2 0 3 -56
3 -125z m-73 -77 c-2 -29 -3 -6 -3 52 0 58 1 81 3 53 2 -29 2 -77 0 -105z
m-1967 -158 c0 -207 -2 -240 -15 -240 -13 0 -15 33 -15 233 0 129 3 237 7 240
20 20 23 -14 23 -233z m2094 234 c14 -5 16 -36 16 -240 l0 -234 -25 0 -25 0 0
240 c0 139 4 240 9 240 5 0 16 -3 25 -6z m-2017 -151 l-38 -4 3 -82 3 -82 35
-6 c33 -6 32 -6 -12 -8 l-48 -1 0 95 0 95 48 -2 c44 -1 44 -2 9 -5z m256 0
c-7 -2 -21 -2 -30 0 -10 3 -4 5 12 5 17 0 24 -2 18 -5z m1453 -2 c-3 -5 -15
-7 -26 -4 -28 7 -25 13 6 13 14 0 23 -4 20 -9z m254 -86 l0 -95 -42 1 -43 2
35 6 35 6 3 82 3 82 -38 4 -38 4 43 1 42 2 0 -95z m-1930 0 c0 -63 -1 -65 -25
-65 -24 0 -25 2 -25 65 0 63 1 65 25 65 24 0 25 -2 25 -65z m225 40 c0 -30
-39 -27 -43 3 -3 20 0 23 20 20 15 -2 23 -10 23 -23z m1453 3 c-2 -13 -10 -23
-18 -23 -8 0 -16 10 -18 23 -3 17 2 22 18 22 16 0 21 -5 18 -22z m222 -43 c0
-63 -1 -65 -25 -65 -24 0 -25 2 -25 65 0 63 1 65 25 65 24 0 25 -2 25 -65z
m-1675 -25 l0 -25 339 -3 c308 -2 340 -4 352 -20 13 -16 13 -16 14 1 0 16 24
17 355 17 l355 0 0 23 c0 13 3 26 6 30 12 11 34 -6 34 -27 0 -16 12 -26 52
-41 89 -35 88 -29 88 -453 0 -394 0 -397 -56 -441 -25 -20 -39 -21 -220 -21
l-194 0 0 43 c0 41 2 44 37 55 23 7 42 8 54 2 10 -6 71 -10 137 -10 106 0 121
2 137 20 14 15 16 28 10 57 -8 41 -8 49 1 136 5 52 8 57 30 57 22 0 24 4 24
45 0 33 4 45 15 45 8 0 15 5 15 10 0 6 -7 10 -15 10 -11 0 -15 12 -15 45 0 41
-2 45 -24 45 -22 0 -24 5 -30 63 -9 83 -9 86 -1 133 13 75 26 73 -408 73 -247
1 -383 4 -385 11 -2 5 -8 10 -13 10 -6 0 -7 -4 -4 -10 6 -10 -284 -15 -621
-10 -176 2 -177 2 -173 -87 1 -32 2 -86 1 -120 -2 -60 -3 -63 -27 -63 -23 0
-25 -4 -25 -44 0 -26 -5 -47 -12 -50 -10 -5 -10 -7 0 -12 7 -3 12 -24 12 -50
0 -40 2 -44 25 -44 24 0 25 -3 27 -57 1 -32 1 -88 -1 -125 -2 -58 0 -68 17
-77 25 -14 231 -15 266 -1 17 6 36 6 56 -1 27 -10 30 -15 30 -55 l0 -44 -195
0 -194 0 -34 34 c-19 18 -37 48 -41 66 -10 53 -7 350 4 350 6 0 10 5 10 11 0
5 -4 7 -10 4 -7 -4 -10 55 -10 169 0 212 9 244 74 276 23 11 52 20 64 20 16 0
22 6 22 23 0 28 9 39 30 35 8 -2 15 -14 15 -28z m-255 -290 c0 -193 -1 -200
-20 -200 -11 0 -20 -4 -20 -10 0 -5 9 -10 20 -10 19 0 20 -7 20 -200 l0 -200
-30 0 -30 0 0 410 0 410 30 0 30 0 0 -200z m1887 -107 c-1 -59 -3 -13 -3 102
0 116 2 164 3 108 2 -56 2 -151 0 -210z m73 107 l0 -200 -25 0 -25 0 0 200 0
200 25 0 25 0 0 -200z m-1774 124 c-9 -8 -16 -20 -16 -26 0 -6 -3 -9 -6 -6 -8
9 14 48 27 48 6 0 3 -7 -5 -16z m1551 -20 c1 -18 0 -22 -4 -9 -3 11 -10 26
-17 34 -9 11 -8 13 4 9 8 -2 16 -18 17 -34z m-792 6 c-3 -5 -1 -10 4 -10 6 0
11 5 11 10 0 7 126 9 373 8 l372 -3 3 -157 3 -158 -41 0 c-22 0 -40 -4 -40
-10 0 -5 18 -10 40 -10 l40 0 0 -155 0 -155 -253 0 c-187 0 -258 -3 -270 -12
-12 -10 -17 -32 -19 -88 l-3 -75 -210 0 -210 0 -5 77 c-3 42 -9 80 -13 85 -5
4 -126 10 -270 13 l-262 5 -3 310 c-1 171 0 316 3 323 3 9 89 12 380 12 248 0
374 -3 370 -10z m-775 -220 c0 -89 0 -90 -25 -90 -22 0 -25 4 -25 35 0 28 4
35 20 35 18 0 20 7 20 55 0 30 2 55 5 55 3 0 5 -40 5 -90z m1595 -20 c22 0 25
-5 25 -35 0 -24 -5 -35 -15 -35 -8 0 -15 -4 -15 -10 0 -5 7 -10 15 -10 10 0
15 -11 15 -35 0 -30 -3 -35 -25 -35 -22 0 -24 -4 -27 -57 -2 -32 -4 30 -4 137
0 107 2 169 4 138 3 -54 5 -58 27 -58z m-1597 -172 c-1 -60 -3 -74 -5 -40 -3
44 -7 52 -24 52 -15 0 -19 7 -19 34 0 28 4 35 23 39 12 2 23 5 25 6 1 0 1 -41
0 -91z m1719 -216 c-1 -53 -3 -7 -3 103 0 110 2 154 3 97 2 -57 2 -147 0 -200z
m73 98 l0 -200 -25 0 -25 0 0 200 0 200 25 0 25 0 0 -200z m-2040 -316 c0
-192 -3 -245 -12 -242 -10 4 -14 64 -16 246 -2 211 0 242 13 242 13 0 15 -33
15 -246z m2110 7 c0 -248 0 -251 -41 -251 -5 0 -9 103 -9 245 l0 245 25 0 25
0 0 -239z m-300 184 c-10 -12 -37 -15 -129 -13 l-116 2 120 6 c118 5 120 5
124 30 3 19 5 21 9 7 2 -10 -2 -24 -8 -32z m-1424 -8 l109 -3 -119 0 c-97 1
-120 4 -124 16 -4 12 -2 13 9 3 9 -7 58 -14 125 -16z m398 -3 c13 -5 16 -22
16 -78 0 -43 5 -77 12 -84 9 -9 9 -12 0 -12 -15 0 -21 28 -24 105 l-3 60 -85
6 -85 5 77 2 c42 1 83 -1 92 -4z m591 -1 c-43 -2 -85 -9 -92 -15 -13 -11 -19
3 -6 15 3 4 45 6 92 5 l86 -2 -80 -3z m-725 -45 c0 -39 -12 -68 -26 -68 -10 0
-14 13 -14 45 0 38 3 45 20 45 14 0 20 -7 20 -22z m120 -47 c0 -98 4 -101 145
-101 l113 0 -3 -25 c-1 -14 2 -25 6 -25 5 0 9 11 9 25 l0 25 109 0 c136 0 141
4 141 101 l0 69 54 0 55 0 3 -52 c3 -46 6 -53 26 -56 l22 -3 0 -220 0 -219
-205 0 c-176 0 -205 2 -205 15 0 8 -5 15 -10 15 -6 0 -9 -6 -8 -12 2 -10 -45
-14 -204 -16 l-208 -2 0 220 0 220 25 0 c24 0 25 3 25 55 l0 55 55 0 55 0 0
-69z m680 24 c0 -33 -4 -45 -15 -45 -11 0 -15 12 -15 45 0 33 4 45 15 45 11 0
15 -12 15 -45z m-1268 -44 c24 -20 39 -21 222 -21 l196 0 0 -220 0 -220 -215
0 c-287 0 -267 -23 -263 316 3 193 4 209 18 188 9 -12 27 -32 42 -43z m1758
-176 l0 -236 -25 -24 c-24 -25 -24 -25 -240 -25 l-215 0 2 218 3 217 198 3
197 2 38 39 c20 22 38 40 40 40 1 1 2 -105 2 -234z m-1830 206 c0 -6 -15 -11
-32 -13 l-33 -3 0 -80 0 -80 35 -6 35 -6 -32 -2 c-60 -2 -63 3 -63 99 l0 89
33 4 c17 2 38 5 45 5 6 1 12 -2 12 -7z m1913 -1 c15 0 17 -11 17 -89 0 -96 -4
-102 -58 -100 -23 1 -21 3 8 8 l35 6 0 80 0 80 -32 3 c-18 2 -33 8 -33 14 0 6
10 8 23 4 12 -3 30 -6 40 -6z m-1913 -96 c0 -62 -1 -65 -22 -62 -21 3 -23 9
-26 66 -3 61 -2 62 23 62 24 0 25 -2 25 -66z m1900 1 c0 -63 -1 -65 -25 -65
-24 0 -25 2 -25 65 0 63 1 65 25 65 24 0 25 -2 25 -65z m-745 16 c-3 -6 -11
-11 -16 -11 -5 0 -4 6 3 14 14 16 24 13 13 -3z m-1207 -127 c21 -6 22 -11 21
-108 0 -100 -1 -101 -30 -124 l-29 -24 0 131 c0 72 3 131 8 131 4 0 17 -3 30
-6z m1982 -124 l0 -130 -25 22 c-24 20 -25 27 -25 124 0 106 0 106 43 113 4 0
7 -57 7 -129z m-73 -22 c-2 -29 -3 -8 -3 47 0 55 1 79 3 53 2 -26 2 -71 0
-100z m-1965 -96 c5 -88 22 -122 73 -146 27 -13 75 -16 280 -16 l246 0 -3 -37
-3 -38 -245 0 c-212 0 -251 2 -292 18 -56 22 -113 81 -127 134 -12 42 -15 146
-4 156 3 4 21 7 38 7 l32 0 5 -78z m2137 69 c20 -13 8 -128 -19 -181 -20 -39
-22 -40 -73 -42 l-52 -1 49 -6 c47 -6 48 -7 29 -23 -51 -46 -87 -52 -331 -56
-128 -2 -244 -1 -258 2 -20 5 -24 13 -24 41 l0 35 253 0 c235 0 254 1 285 20
43 26 62 74 62 155 l0 65 33 0 c17 0 38 -4 46 -9z m-2012 -93 c7 -16 11 -28 9
-28 -8 0 -36 58 -35 72 0 9 2 8 6 -2 3 -8 12 -27 20 -42z m-32 2 c9 -17 29
-39 45 -49 l30 -18 -29 -27 c-28 -27 -29 -27 -61 -11 -17 9 -38 31 -45 48 -13
30 -12 34 13 60 14 15 27 27 29 27 1 0 10 -14 18 -30z m1922 8 c13 -12 23 -30
23 -41 0 -25 -62 -87 -87 -87 -22 0 -74 51 -58 57 40 15 62 33 74 61 8 17 17
32 20 32 2 0 15 -10 28 -22z m-67 -12 c0 -2 -8 -10 -17 -17 -16 -13 -17 -12
-4 4 13 16 21 21 21 13z m-1447 -43 c-57 -2 -149 -2 -205 0 -57 1 -11 3 102 3
113 0 159 -2 103 -3z m420 0 c-56 -2 -151 -2 -210 0 -59 1 -13 3 102 3 116 0
164 -2 108 -3z m430 0 c-56 -2 -151 -2 -210 0 -59 1 -13 3 102 3 116 0 164 -2
108 -3z m420 0 c-56 -2 -151 -2 -210 0 -59 1 -13 3 102 3 116 0 164 -2 108 -3z
m-1173 -48 l0 -25 -227 0 -226 0 23 25 23 25 204 0 203 0 0 -25z m850 0 l0
-25 -420 0 -420 0 0 25 0 25 420 0 420 0 0 -25z m430 8 c11 -10 20 -21 20 -25
0 -5 -99 -8 -220 -8 l-220 0 0 25 0 25 200 0 c175 0 202 -2 220 -17z m-858
-80 c-2 -12 2 -24 8 -28 6 -4 10 6 10 24 l0 31 205 0 205 0 0 -40 0 -40 -417
3 -418 2 -3 38 -3 37 208 -2 c207 -3 208 -3 205 -25z m428 -103 c0 -39 -1 -40
-22 -29 -16 9 -23 9 -26 0 -5 -16 -732 -16 -732 0 0 7 -7 8 -17 4 -10 -4 -24
-9 -30 -12 -9 -4 -13 7 -13 36 l0 41 420 0 420 0 0 -40z"/>
<path d="M1565 2930 c-35 -6 -46 -41 -21 -69 14 -15 13 -18 -4 -29 -23 -14
-27 -64 -7 -80 64 -51 165 14 109 70 -19 19 -19 23 -5 44 30 46 -4 77 -72 64z
m63 -37 c-2 -23 -9 -29 -34 -31 -34 -3 -60 18 -50 43 3 10 19 15 46 15 39 0
41 -1 38 -27z m-1 -75 c13 -12 23 -25 23 -29 0 -18 -34 -39 -64 -39 -56 0 -76
45 -34 74 30 21 47 20 75 -6z"/>
<path d="M1135 2910 c-10 -11 -13 -20 -7 -20 6 0 14 6 19 13 5 7 10 -27 14
-78 l5 -90 2 98 c1 53 -2 97 -6 97 -5 0 -17 -9 -27 -20z"/>
<path d="M1328 2923 c23 -2 42 -7 42 -9 0 -3 -9 -18 -21 -32 -20 -26 -20 -27
-2 -31 28 -5 43 -21 43 -47 0 -49 -63 -72 -102 -37 -10 9 -18 11 -18 5 0 -20
48 -45 74 -38 40 10 57 34 54 75 -2 25 -10 39 -25 46 -21 11 -21 11 -2 35 10
14 19 28 19 33 0 4 -24 6 -52 5 -51 -1 -51 -2 -10 -5z"/>
<path d="M1737 2923 c-51 -90 -9 -211 64 -188 44 14 63 109 34 165 -13 26 -21
30 -55 30 -21 0 -41 -3 -43 -7z m88 -33 c8 -16 15 -41 15 -55 0 -14 -7 -39
-15 -55 -12 -23 -22 -30 -46 -30 -33 0 -51 30 -51 85 0 55 18 85 51 85 24 0
34 -7 46 -30z"/>
<path d="M1455 2750 c3 -5 10 -10 16 -10 5 0 9 5 9 10 0 6 -7 10 -16 10 -8 0
-12 -4 -9 -10z"/>
<path d="M1470 2530 c0 -5 5 -10 10 -10 6 0 10 5 10 10 0 6 -4 10 -10 10 -5 0
-10 -4 -10 -10z"/>
<path d="M2910 1835 c0 -5 5 -17 10 -25 8 -13 -4 -16 -83 -21 l-92 -5 103 -2
c56 -1 102 1 102 6 -1 11 -40 58 -40 47z"/>
<path d="M2777 1675 c-9 -8 -18 -24 -22 -35 -9 -28 21 -79 51 -86 35 -9 74 11
74 36 0 20 2 20 35 -6 19 -14 35 -25 36 -23 5 19 3 92 -3 102 -4 7 -8 -6 -8
-30 0 -24 -3 -43 -6 -43 -3 0 -18 9 -32 21 l-27 21 -3 -24 c-4 -24 -27 -48
-49 -48 -21 0 -53 38 -53 64 0 14 7 32 16 41 9 9 14 18 11 21 -2 3 -12 -2 -20
-11z"/>
<path d="M2760 1485 c0 -8 5 -15 10 -15 6 0 10 7 10 15 0 8 -4 15 -10 15 -5 0
-10 -7 -10 -15z"/>
<path d="M2771 1407 c-23 -28 -23 -71 -1 -100 25 -32 50 -34 75 -7 16 17 19
18 41 4 46 -31 82 10 65 75 -9 31 -44 40 -70 17 -15 -14 -18 -13 -29 4 -14 23
-64 27 -81 7z m71 -14 c10 -9 18 -25 18 -36 0 -20 -36 -67 -51 -67 -18 0 -39
34 -39 64 0 53 35 72 72 39z m96 -41 c3 -42 2 -43 -25 -40 -22 2 -29 9 -31 31
-4 33 14 59 37 55 11 -2 17 -16 19 -46z"/>
<path d="M2793 1230 c-46 -19 -52 -69 -12 -106 23 -20 112 -24 146 -5 41 22
33 94 -12 111 -32 12 -92 12 -122 0z m134 -22 c20 -16 16 -66 -6 -78 -31 -16
-117 -12 -135 6 -19 19 -21 58 -3 72 28 23 116 23 144 0z"/>
<path d="M2540 1470 c0 -5 11 -10 25 -10 14 0 25 5 25 10 0 6 -11 10 -25 10
-14 0 -25 -4 -25 -10z"/>
<path d="M1473 2340 c1 -22 5 -40 9 -40 4 0 8 18 8 40 0 22 -4 40 -9 40 -5 0
-8 -18 -8 -40z"/>
<path d="M1475 2280 c-3 -5 -1 -10 4 -10 6 0 11 5 11 10 0 6 -2 10 -4 10 -3 0
-8 -4 -11 -10z"/>
<path d="M1472 2210 c0 -22 4 -40 9 -40 5 0 9 18 9 40 0 22 -4 40 -9 40 -6 0
-9 -18 -9 -40z"/>
<path d="M1477 2123 c-11 -10 -8 -71 3 -78 6 -4 10 12 10 39 0 47 -2 51 -13
39z"/>
<path d="M929 1730 c0 -3 0 -52 1 -110 1 -122 -3 -140 -36 -140 -13 0 -24 -4
-24 -10 0 -5 14 -10 31 -10 l30 0 -2 -127 -1 -127 55 3 c43 2 57 -1 65 -14 8
-15 10 -15 15 -2 5 12 20 15 64 14 l58 -2 3 125 c2 84 7 127 15 132 9 6 9 10
0 16 -8 5 -13 48 -15 131 l-3 123 -128 2 c-70 0 -127 -1 -128 -4z m98 -22
c-20 -7 -35 -7 -50 0 -18 9 -14 11 28 11 46 -1 48 -1 22 -11z m118 2 c-8 -13
-45 -13 -65 0 -11 7 -3 10 28 10 26 0 41 -4 37 -10z m-185 -132 c0 -59 -4 -98
-10 -98 -6 0 -10 44 -10 113 0 76 3 107 10 97 5 -8 10 -59 10 -112z m207 -45
c-2 -32 -3 -6 -3 57 0 63 1 89 3 58 2 -32 2 -84 0 -115z m-129 148 c6 -1 13
-9 13 -18 1 -16 2 -16 6 -1 4 18 55 34 73 23 6 -4 9 -83 7 -218 l-2 -212 -35
2 c-19 1 -36 6 -38 12 -2 7 -10 5 -19 -5 -9 -8 -27 -14 -42 -12 l-26 3 -2 195
c-3 227 -2 241 30 236 12 -3 28 -5 35 -5z m-78 -318 c0 -54 -5 -105 -10 -113
-7 -10 -10 21 -10 98 0 68 4 112 10 112 6 0 10 -39 10 -97z m207 -70 c-2 -32
-3 -6 -3 57 0 63 1 89 3 58 2 -32 2 -84 0 -115z m-132 -63 c15 -6 7 -9 -30 -9
-36 -1 -46 2 -35 9 18 12 38 12 65 0z m105 0 c11 -7 1 -10 -35 -9 -37 0 -45 3
-30 9 27 12 47 12 65 0z"/>
<path d="M1053 1595 c0 -27 2 -38 4 -22 2 15 2 37 0 50 -2 12 -4 0 -4 -28z"/>
<path d="M1051 1498 c-1 -12 -9 -18 -26 -18 -14 0 -25 -4 -25 -10 0 -5 11 -10
25 -10 19 0 25 -5 26 -22 1 -21 2 -21 6 -3 3 11 10 23 17 28 8 5 8 9 0 15 -6
4 -14 14 -17 22 -4 12 -6 11 -6 -2z"/>
<path d="M1053 1335 c0 -27 2 -38 4 -22 2 15 2 37 0 50 -2 12 -4 0 -4 -28z"/>
<path d="M1478 1728 c-4 -10 -5 -25 -1 -33 3 -10 1 -15 -8 -13 -9 2 -18 -27
-32 -99 -12 -67 -23 -103 -32 -103 -20 0 -95 -78 -111 -115 -44 -106 19 -235
129 -267 52 -15 47 -10 52 -48 6 -48 15 -50 15 -4 0 40 1 40 49 53 106 27 177
159 137 254 -21 52 -87 126 -111 127 -18 0 -23 12 -37 97 -10 53 -21 99 -27
102 -5 3 -11 20 -13 36 -2 23 -5 26 -10 13z m7 -108 c3 -5 1 -10 -4 -10 -6 0
-11 5 -11 10 0 6 2 10 4 10 3 0 8 -4 11 -10z m32 -127 c-3 -10 -5 -2 -5 17 0
19 2 27 5 18 2 -10 2 -26 0 -35z m-32 27 c3 -5 1 -10 -4 -10 -6 0 -11 5 -11
10 0 6 2 10 4 10 3 0 8 -4 11 -10z m-38 -32 c-3 -7 -5 -2 -5 12 0 14 2 19 5
13 2 -7 2 -19 0 -25z m43 2 c0 -5 -4 -10 -10 -10 -5 0 -10 5 -10 10 0 6 5 10
10 10 6 0 10 -4 10 -10z m-38 -117 c3 -84 2 -89 -22 -110 -14 -13 -28 -23 -31
-23 -3 0 4 50 15 110 10 61 23 110 27 110 4 0 9 -39 11 -87z m78 84 c0 -1 9
-49 20 -106 11 -58 18 -106 16 -109 -3 -2 -17 6 -33 17 -28 21 -28 22 -25 111
2 49 8 90 13 90 5 0 9 -1 9 -3z m-140 -35 c0 -11 -9 -27 -20 -37 -75 -68 -27
-209 82 -237 42 -11 50 -10 95 13 57 30 78 65 78 134 0 36 -6 59 -22 82 -13
17 -23 39 -23 49 0 26 57 -31 77 -76 31 -73 -14 -182 -90 -219 -52 -25 -141
-24 -180 2 -95 62 -114 199 -39 280 30 32 42 34 42 9z m100 -32 c0 -5 -4 -10
-10 -10 -5 0 -10 5 -10 10 0 6 5 10 10 10 6 0 10 -4 10 -10z m116 -66 c6 -24
-4 -100 -12 -92 -2 3 -9 31 -15 64 -5 32 -12 68 -15 79 -5 18 -3 17 16 -4 11
-13 23 -34 26 -47z m-221 -19 c-11 -67 -12 -69 -23 -42 -14 32 -7 74 16 100 8
9 16 16 17 15 2 -2 -3 -34 -10 -73z m105 55 c0 -5 -4 -10 -10 -10 -5 0 -10 5
-10 10 0 6 5 10 10 10 6 0 10 -4 10 -10z m38 -121 c23 -17 42 -34 42 -38 0 -6
-63 -41 -75 -41 -3 0 -5 16 -5 36 0 19 -4 33 -9 30 -5 -3 -7 -14 -5 -24 2 -9
0 -23 -5 -30 -7 -12 -14 -11 -39 2 -17 9 -33 20 -36 24 -5 8 70 72 84 72 3 0
25 -14 48 -31z"/>
<path d="M1784 1728 c-7 -10 -6 -510 1 -516 3 -3 30 -4 60 -3 47 2 55 0 55
-16 1 -17 1 -17 11 0 9 15 21 18 67 16 l57 -3 3 127 3 127 34 0 c19 0 35 5 35
10 0 6 -16 10 -35 10 l-34 0 -3 126 -3 126 -123 2 c-68 0 -126 -2 -128 -6z
m99 -20 c-17 -8 -29 -8 -45 0 -20 9 -18 11 22 11 40 0 42 -2 23 -11z m112 2
c-8 -13 -45 -13 -65 0 -11 7 -3 10 28 10 26 0 41 -4 37 -10z m-188 -177 c-2
-32 -3 -6 -3 57 0 63 1 89 3 58 2 -32 2 -84 0 -115z m210 -180 c-1 -65 -3 -12
-3 117 0 129 2 182 3 118 2 -65 2 -171 0 -235z m-29 113 l2 -219 -37 6 c-21 4
-39 11 -41 17 -2 5 -10 3 -19 -6 -9 -8 -25 -14 -37 -12 -20 3 -21 10 -24 102
-2 72 1 102 10 108 10 8 10 11 1 15 -9 3 -13 34 -13 102 0 54 2 100 4 102 2 2
37 4 78 4 l73 0 3 -219z m-181 -173 c-2 -32 -3 -6 -3 57 0 63 1 89 3 58 2 -32
2 -84 0 -115z m83 -63 c11 -7 3 -10 -30 -9 -34 0 -40 2 -25 9 27 12 37 12 55
0z m105 0 c4 -6 -11 -10 -37 -9 -33 0 -38 2 -23 9 28 12 53 12 60 0z"/>
<path d="M1903 1590 c0 -25 2 -35 4 -22 2 12 2 32 0 45 -2 12 -4 2 -4 -23z"/>
<path d="M1903 1465 c0 -27 2 -40 4 -27 4 18 11 22 39 22 19 0 34 5 34 10 0 6
-15 10 -34 10 -24 0 -36 5 -39 18 -3 9 -5 -5 -4 -33z"/>
<path d="M1903 1335 c0 -27 2 -38 4 -22 2 15 2 37 0 50 -2 12 -4 0 -4 -28z"/>
<path d="M740 1470 c0 -5 18 -10 40 -10 22 0 40 5 40 10 0 6 -18 10 -40 10
-22 0 -40 -4 -40 -10z"/>
<path d="M1260 1470 c0 -5 18 -10 40 -10 22 0 40 5 40 10 0 6 -18 10 -40 10
-22 0 -40 -4 -40 -10z"/>
<path d="M1640 1470 c0 -5 18 -10 40 -10 22 0 40 5 40 10 0 6 -18 10 -40 10
-22 0 -40 -4 -40 -10z"/>
<path d="M1090 734 l0 -145 33 3 c32 3 32 3 35 63 l3 60 32 -60 c28 -52 36
-60 65 -63 17 -2 32 0 32 5 0 4 -20 44 -44 87 l-44 80 39 51 c21 29 39 55 39
58 0 4 -15 7 -34 7 -29 0 -38 -6 -58 -37 l-23 -38 -3 38 c-3 35 -5 37 -38 37
l-34 0 0 -146z m50 71 c0 -30 3 -55 8 -55 4 0 22 25 40 55 18 30 40 55 48 55
12 0 8 -10 -13 -37 -17 -21 -33 -43 -36 -50 -4 -6 11 -43 33 -82 43 -76 45
-81 30 -81 -6 0 -25 29 -42 65 -45 91 -68 85 -68 -16 0 -37 -4 -49 -15 -49
-13 0 -15 21 -15 125 0 104 2 125 15 125 12 0 15 -13 15 -55z"/>
<path d="M1500 850 c0 -27 3 -30 30 -30 27 0 30 3 30 30 0 27 -3 30 -30 30
-27 0 -30 -3 -30 -30z m50 0 c0 -5 -7 -10 -15 -10 -8 0 -15 5 -15 10 0 6 7 10
15 10 8 0 15 -4 15 -10z"/>
<path d="M1610 734 l0 -145 28 3 27 3 3 143 3 142 -31 0 -30 0 0 -146z m40 0
c0 -96 -3 -125 -12 -122 -9 3 -14 40 -16 126 -2 104 0 122 13 122 13 0 15 -20
15 -126z"/>
<path d="M1702 738 l3 -143 28 -3 c26 -3 27 -2 27 50 0 56 20 98 45 98 11 0
15 -18 17 -72 l3 -73 30 0 30 0 0 83 c0 98 -11 112 -83 112 -35 0 -43 3 -41
18 5 58 0 72 -31 72 l-31 0 3 -142z m50 60 c6 -112 -1 -188 -17 -188 -12 0
-15 22 -15 125 0 101 3 125 14 125 10 0 15 -17 18 -62z m106 -53 c18 -39 16
-135 -3 -135 -11 0 -15 17 -17 73 l-3 72 -32 0 c-17 0 -29 3 -26 7 2 5 19 8
37 8 25 0 35 -6 44 -25z"/>
<path d="M1479 833 c-6 -56 -6 -74 2 -78 5 -4 9 14 9 39 0 25 -2 46 -5 46 -3
0 -5 -3 -6 -7z"/>
<path d="M1340 789 c-13 -5 -28 -15 -32 -22 -13 -20 -9 -47 7 -47 12 0 11 -4
-5 -20 -23 -23 -26 -58 -6 -85 12 -16 27 -19 100 -20 73 0 85 2 80 15 -3 8 -8
22 -11 30 -4 13 -4 13 6 0 8 -12 11 -5 11 28 0 26 -4 41 -10 37 -5 -3 -10 1
-10 10 0 9 5 13 10 10 18 -11 10 3 -18 35 -32 34 -81 46 -122 29z m88 -25 c19
-13 22 -24 22 -81 0 -53 -3 -64 -14 -60 -8 3 -29 2 -46 -3 -40 -12 -80 3 -80
29 0 29 26 50 71 57 45 8 56 19 39 39 -14 17 -70 20 -70 5 0 -5 -8 -10 -17
-10 -15 1 -14 4 6 20 28 24 59 25 89 4z m-28 -28 c0 -2 -9 -6 -20 -9 -11 -3
-20 -1 -20 4 0 5 9 9 20 9 11 0 20 -2 20 -4z"/>
<path d="M1372 689 c-26 -8 -33 -14 -30 -32 6 -45 88 -28 88 18 0 27 -7 28
-58 14z m31 -30 c-6 -6 -19 -9 -29 -6 -17 3 -16 5 6 14 28 12 39 8 23 -8z"/>
<path d="M1502 693 l3 -98 28 -3 27 -3 0 100 0 101 -30 0 -31 0 3 -97z m46 0
c-2 -50 -7 -78 -15 -81 -10 -3 -13 17 -13 77 0 66 3 81 15 81 13 0 15 -13 13
-77z"/>
<path d="M1476 313 c-4 -9 -2 -21 4 -27 7 -7 10 -2 10 17 0 31 -5 34 -14 10z"/>
<path d="M3174 1815 l16 -24 -93 -4 -92 -3 103 -2 c56 -1 102 1 102 6 -1 10
-37 52 -45 52 -4 0 0 -11 9 -25z"/>
<path d="M3026 1668 c-23 -32 -20 -65 9 -93 28 -28 66 -32 89 -9 19 19 30 58
22 79 -4 11 2 15 24 15 27 0 29 -3 33 -47 l3 -48 2 51 2 51 -41 7 c-49 8 -54
5 -39 -24 9 -17 9 -29 0 -51 -15 -36 -44 -45 -75 -25 -35 23 -41 53 -16 87 12
16 17 29 12 29 -5 0 -17 -10 -25 -22z"/>
<path d="M3017 1494 c-8 -8 1 -24 14 -24 5 0 9 7 9 15 0 15 -12 20 -23 9z"/>
<path d="M385 1470 c3 -5 17 -10 31 -10 13 0 24 5 24 10 0 6 -14 10 -31 10
-17 0 -28 -4 -24 -10z"/>
<path d="M3053 1410 c-12 -5 -27 -19 -33 -30 -40 -75 82 -130 166 -75 18 11
24 25 24 51 0 31 -4 37 -35 50 -38 16 -88 17 -122 4z m106 -11 c32 -11 50 -46
36 -69 -16 -26 -74 -41 -115 -30 -50 14 -68 42 -46 75 21 33 72 42 125 24z"/>
<path d="M3060 1233 c-49 -18 -64 -64 -32 -102 14 -18 28 -22 78 -23 82 -1
104 12 104 62 0 34 -4 42 -30 55 -28 15 -90 19 -120 8z m128 -30 c33 -45 -1
-83 -75 -83 -54 0 -93 22 -93 53 0 17 29 43 55 50 34 9 99 -3 113 -20z"/>
<path d="M1236 199 c-10 -50 -8 -65 6 -51 16 16 70 16 86 0 20 -20 15 -76 -7
-88 -28 -15 -57 -12 -76 6 -9 9 -18 14 -21 11 -13 -12 31 -37 65 -37 46 0 65
19 65 65 0 46 -19 65 -65 65 -35 0 -39 3 -39 24 0 22 5 25 48 29 l47 3 -51 2
c-50 2 -52 1 -58 -29z"/>
<path d="M1543 223 c31 -2 57 -8 57 -14 0 -5 -13 -35 -29 -67 -15 -31 -31 -68
-35 -82 -7 -28 68 113 78 148 7 21 6 22 -61 20 l-68 -2 58 -3z"/>
<path d="M1689 214 c-18 -22 -23 -114 -7 -144 10 -18 23 -26 49 -28 48 -4 70
22 72 85 3 66 -22 103 -67 103 -18 0 -39 -7 -47 -16z m85 -16 c22 -31 20 -100
-2 -128 -25 -30 -68 -21 -83 18 -12 32 -6 96 11 117 18 22 57 18 74 -7z"/>
<path d="M1416 63 c-11 -11 -6 -23 9 -23 8 0 15 4 15 9 0 13 -16 22 -24 14z"/>
</g>
</svg>
