<?xml version="1.0" standalone="no"?>
<!DOCTYPE svg PUBLIC "-//W3C//DTD SVG 20010904//EN"
 "http://www.w3.org/TR/2001/REC-SVG-20010904/DTD/svg10.dtd">
<svg version="1.0" xmlns="http://www.w3.org/2000/svg"
 width="440.000000pt" height="370.000000pt" viewBox="0 0 440.000000 370.000000"
 preserveAspectRatio="xMidYMid meet">

<g transform="translate(0.000000,370.000000) scale(0.100000,-0.100000)"
fill="#000000" stroke="none">
<path d="M3480 3155 l0 -405 -229 0 c-143 0 -232 -4 -236 -10 -4 -7 157 -10
475 -10 316 0 479 3 475 10 -3 5 -1 18 4 27 9 15 10 16 11 2 1 -42 79 -68 148
-49 45 12 60 38 48 84 -13 53 -146 60 -185 10 -10 -13 -22 -24 -25 -24 -3 0
-7 134 -9 298 l-2 297 -3 -297 c-1 -186 -6 -298 -12 -298 -6 0 -6 -9 0 -25
l10 -25 -225 0 -225 0 0 410 c0 267 -3 410 -10 410 -7 0 -10 -142 -10 -405z
m669 -334 c8 -5 14 -24 14 -41 0 -41 -15 -50 -85 -50 -48 0 -59 4 -72 22 -20
28 -20 43 0 62 17 18 119 22 143 7z"/>
<path d="M3540 3491 c-17 -33 -11 -71 15 -96 31 -32 59 -32 92 1 21 21 24 32
20 60 -5 27 -3 34 11 34 30 0 41 -14 45 -60 3 -42 4 -41 5 13 2 57 2 57 -27
57 -16 0 -36 3 -44 6 -12 4 -14 -3 -10 -40 4 -29 1 -51 -7 -61 -15 -18 -61
-20 -78 -3 -19 19 -15 85 6 97 16 10 16 10 0 11 -10 0 -22 -9 -28 -19z"/>
<path d="M3532 3309 c2 -6 8 -10 13 -10 5 0 11 4 13 10 2 6 -4 11 -13 11 -9 0
-15 -5 -13 -11z"/>
<path d="M3982 3229 c2 -71 2 -72 5 -16 l4 58 55 -50 c59 -54 91 -63 119 -35
22 23 16 73 -12 92 -15 9 -23 10 -23 3 0 -6 6 -11 14 -11 27 0 34 -50 10 -74
-25 -26 -40 -19 -109 45 l-65 61 2 -73z"/>
<path d="M3546 3224 c-23 -22 -20 -80 4 -104 25 -25 41 -25 72 0 17 13 28 16
35 9 6 -6 23 -9 39 -7 23 2 30 9 35 34 9 46 -5 74 -39 74 -15 0 -33 -5 -38
-10 -8 -8 -15 -6 -24 5 -16 20 -64 19 -84 -1z m78 -16 c21 -29 20 -41 -2 -68
-14 -18 -25 -22 -45 -16 -24 6 -27 11 -27 50 0 26 5 46 13 49 26 11 47 6 61
-15z m92 -12 c9 -38 -4 -68 -28 -64 -25 4 -38 35 -27 66 11 30 47 29 55 -2z"/>
<path d="M422 2778 l-2 -408 -25 0 c-14 0 -25 -4 -25 -10 0 -5 11 -10 24 -10
l23 0 2 -215 c2 -150 -1 -215 -9 -215 -7 0 -8 -6 0 -19 14 -28 13 -29 -17 -34
-25 -4 734 -12 764 -8 19 2 21 -10 24 -99 l2 -85 -31 -9 c-26 -7 -32 -14 -32
-36 0 -23 9 -33 45 -54 25 -15 45 -29 45 -31 0 -3 -16 -5 -35 -5 -27 0 -35 4
-35 18 -1 16 -1 16 -14 0 -12 -17 -43 -18 -385 -18 -241 0 -371 -4 -371 -10 0
-5 11 -10 25 -10 28 0 29 -3 15 -31 -7 -13 -7 -19 0 -19 6 0 11 -153 13 -457
l2 -458 3 458 c1 302 5 457 12 457 6 0 8 11 4 25 l-6 25 191 0 c105 0 191 -3
191 -6 0 -3 -5 -14 -10 -25 -7 -12 -7 -19 -1 -19 7 0 10 -236 11 -667 0 -366
2 -669 5 -671 3 -3 5 207 5 466 0 465 0 472 20 472 18 0 20 -7 22 -72 2 -72 2
-72 5 -15 l4 59 49 -46 c79 -74 134 -70 134 10 0 35 -15 54 -44 53 -10 0 -8
-5 8 -16 25 -18 30 -64 8 -82 -20 -17 -59 5 -116 63 l-44 46 122 0 122 0 0
-94 c0 -53 4 -98 10 -101 6 -4 10 30 10 94 l0 101 147 0 c80 0 144 3 141 6 -3
3 -69 5 -147 5 l-141 0 0 219 0 219 58 3 c31 2 92 2 135 0 l77 -4 0 -178 c0
-189 9 -238 49 -260 61 -32 81 33 81 260 l0 180 218 -2 217 -3 1 -131 c1 -118
3 -135 23 -168 22 -35 24 -36 87 -36 l64 0 15 -37 c9 -21 24 -47 35 -58 10
-11 20 -36 23 -55 l4 -35 1 36 c1 20 9 43 18 50 9 8 25 33 35 56 l18 43 65 0
65 0 26 43 c23 41 25 53 25 170 l0 127 415 0 415 0 -2 -162 -3 -163 -420 -5
-420 -5 423 -3 422 -2 0 -110 0 -110 -1077 0 c-592 0 -1078 -2 -1081 -5 -3 -3
-3 -7 0 -10 3 -3 489 -5 1081 -5 l1076 0 4 -38 c2 -20 4 34 5 121 l2 157 315
0 316 0 -12 -21 c-8 -16 -8 -23 0 -28 7 -5 12 -104 14 -306 l2 -300 3 303 c1
188 6 302 12 302 6 0 6 10 -1 27 -6 16 -10 29 -10 31 1 2 -143 3 -319 2 l-320
-1 0 166 0 165 326 0 c256 0 325 3 321 13 -2 6 0 22 4 35 6 15 5 21 -1 17 -7
-4 -10 117 -10 354 0 228 4 361 10 361 6 0 6 9 1 23 -4 12 -6 28 -4 35 4 9
-47 12 -232 12 l-236 0 2 170 c1 94 -1 173 -4 177 -17 16 -20 -18 -18 -177 l2
-170 -170 0 c-107 0 -171 -4 -171 -10 0 -6 63 -10 170 -10 l171 0 -2 -240 -1
-239 -56 -4 -57 -3 68 -2 c63 -2 67 -1 68 21 0 12 0 122 -1 245 l-1 222 226 0
c220 0 225 0 215 -19 -13 -25 -13 -34 0 -26 7 4 10 -118 10 -360 0 -251 -3
-364 -10 -360 -7 4 -9 -2 -4 -19 l6 -26 -310 0 c-287 0 -311 1 -315 18 -4 16
-5 16 -6 0 -1 -14 -10 -18 -36 -18 -19 0 -35 2 -35 4 0 2 18 15 40 30 32 21
40 32 40 56 0 25 -5 31 -28 36 l-28 6 4 86 c2 48 6 89 8 91 2 2 17 5 34 7 46
5 50 10 50 63 0 57 -12 71 -62 71 -36 0 -38 2 -38 31 0 46 -79 258 -101 269
-9 6 -27 26 -39 45 -19 31 -26 35 -66 35 l-44 0 0 174 c0 145 -3 177 -16 190
-13 14 -63 16 -389 16 l-374 0 -4 23 -4 22 -2 -22 -1 -23 -378 0 c-281 0 -381
-3 -390 -12 -8 -8 -12 -65 -12 -190 l0 -178 -49 0 c-41 0 -51 -4 -56 -20 -3
-11 -19 -32 -34 -47 -35 -35 -111 -224 -111 -275 0 -38 0 -38 -40 -38 -48 0
-70 -27 -65 -82 l3 -38 -189 0 c-132 0 -188 3 -184 11 4 5 6 113 6 240 l-2
229 291 0 c187 0 290 4 290 10 0 6 -103 10 -290 10 l-290 0 0 98 c-1 53 -1
197 -1 320 0 133 -4 222 -9 222 -6 0 -10 -124 -10 -320 l0 -320 -135 0 -135 0
-3 408 -2 407 -3 -407z m1568 -263 l0 -215 -73 0 -73 0 -17 35 -17 35 -175 0
-175 0 0 173 c0 96 3 177 7 180 3 4 123 7 265 7 l258 0 0 -215z m231 193 l2
-23 4 23 c4 22 7 23 106 20 l102 -3 3 -212 2 -213 -31 0 -31 0 5 156 c3 125 1
158 -10 170 -14 14 -66 17 -208 14 -102 -2 -95 11 -95 -176 l0 -164 -30 0 -30
0 0 208 c0 115 3 212 7 215 3 4 51 7 105 7 95 0 98 -1 99 -22z m767 -160 l2
-178 -175 0 -175 0 -22 -35 c-23 -34 -24 -35 -90 -35 l-68 0 0 215 0 215 263
-2 262 -3 3 -177z m-767 45 l2 -28 4 28 c4 26 6 27 69 27 35 0 65 -3 65 -7 2
-12 2 -46 1 -65 -2 -15 -12 -18 -67 -18 -45 0 -65 4 -66 13 0 10 -2 10 -6 0
-3 -9 -27 -13 -69 -13 l-64 0 0 45 0 45 65 0 c64 0 65 0 66 -27z m1 -125 l1
-43 4 43 4 42 63 0 c75 0 76 0 76 -127 l0 -83 -70 0 -70 0 -2 48 -2 47 -3 -47
-4 -48 -65 0 -64 0 0 105 0 105 65 0 65 0 2 -42z m-1523 -358 l-1 -240 -135 0
-134 0 12 22 c9 16 9 23 0 26 -15 5 -16 392 0 392 6 0 8 9 4 20 -6 19 -2 20
125 20 l131 0 -2 -240z m1107 223 c7 -10 14 -21 14 -25 0 -5 -110 -8 -245 -8
l-245 0 12 25 11 25 220 0 c198 0 221 -2 233 -17z m1294 -4 c7 -11 10 -23 7
-25 -2 -2 -113 -3 -246 -2 l-241 3 15 23 c16 22 19 22 235 22 212 0 220 -1
230 -21z m53 -63 c19 -20 87 -211 87 -247 l0 -29 -505 0 c-397 0 -505 3 -506
13 0 10 -2 10 -6 0 -4 -10 -115 -13 -509 -13 l-504 0 0 36 c0 41 75 240 93
248 7 2 422 5 924 5 777 1 914 -1 926 -13z m-932 -323 l2 -28 4 28 4 27 555 0
554 0 0 -45 c0 -36 -3 -45 -17 -45 -10 -1 -510 -1 -1112 -1 -1165 -1 -1116 -3
-1106 46 2 11 4 26 4 33 1 9 119 12 556 12 l555 0 1 -27z m-699 -89 c16 -5 18
-17 18 -95 l0 -89 50 0 49 0 3 93 3 92 285 0 285 0 6 -35 6 -35 4 35 4 35 270
3 c149 1 280 0 293 -3 21 -5 22 -10 22 -95 l0 -90 45 0 45 0 0 89 c0 70 3 90
15 95 8 3 81 4 162 3 l148 -2 3 -81 c2 -66 -2 -93 -21 -145 l-24 -64 -482 -3
-481 -2 -1 32 -1 33 -7 -30 -6 -30 -478 -3 -478 -2 -25 55 c-19 45 -24 72 -24
144 0 48 2 90 5 92 7 7 286 10 307 3z m89 -4 c5 0 9 -27 9 -60 l0 -60 -30 0
c-30 0 -30 0 -30 58 0 62 6 76 28 67 7 -3 18 -5 23 -5z m1263 4 c12 -5 16 -21
16 -65 0 -56 -1 -59 -25 -59 -24 0 -25 3 -25 58 0 69 4 77 34 66z m-1254 -154
c0 -5 -13 -10 -30 -10 -16 0 -30 5 -30 10 0 6 14 10 30 10 17 0 30 -4 30 -10z
m1270 0 c0 -5 -11 -10 -25 -10 -14 0 -25 5 -25 10 0 6 11 10 25 10 14 0 25 -4
25 -10z m-1662 -136 c-2 -1 -23 9 -46 24 -49 31 -55 59 -14 64 24 3 29 -2 45
-41 10 -24 16 -45 15 -47z m2072 65 c0 -17 -69 -74 -78 -64 -3 3 3 24 12 48
14 38 20 44 41 39 16 -3 25 -11 25 -23z m-1791 -491 c-16 -50 -35 -55 -59 -15
-18 29 -20 51 -20 215 l0 182 40 0 c24 0 41 5 42 13 2 6 4 -71 6 -173 2 -124
-1 -197 -9 -222z m779 234 l-3 -167 -27 -3 c-21 -3 -28 1 -29 15 -1 17 -2 17
-6 1 -3 -12 -14 -18 -34 -18 l-29 0 0 169 0 170 65 0 65 0 -2 -167z m-1168
-72 l0 -220 -141 0 -141 0 4 25 c3 14 1 28 -3 31 -13 8 -11 334 1 334 6 0 8
11 4 25 l-6 25 141 0 141 0 0 -220z m1020 95 l0 -126 -72 3 -73 3 -3 108 c-2
60 -1 115 2 123 4 10 24 14 76 14 l70 0 0 -125z m320 0 l0 -125 -75 0 -75 0 0
125 0 125 75 0 75 0 0 -125z m-320 -170 c0 -24 -3 -25 -55 -25 -43 0 -56 4
-65 19 -5 11 -10 22 -10 25 0 3 29 6 65 6 63 0 65 -1 65 -25z m300 18 c-1 -27
-30 -43 -79 -43 -48 0 -51 2 -51 25 0 24 2 25 65 25 36 0 65 -3 65 -7z m-219
-85 l2 -23 4 23 c3 14 12 22 24 22 22 0 23 -3 7 -47 -17 -46 -43 -43 -68 7
l-20 40 25 0 c19 0 25 -5 26 -22z"/>
<path d="M2223 2220 c0 -25 2 -35 4 -22 2 12 2 32 0 45 -2 12 -4 2 -4 -23z"/>
<path d="M2223 2110 c0 -36 2 -50 4 -32 2 17 2 47 0 65 -2 17 -4 3 -4 -33z"/>
<path d="M2223 1705 c0 -27 2 -38 4 -22 2 15 2 37 0 50 -2 12 -4 0 -4 -28z"/>
<path d="M2223 1445 c0 -27 2 -38 4 -22 2 15 2 37 0 50 -2 12 -4 0 -4 -28z"/>
<path d="M2223 1315 c0 -27 2 -38 4 -22 2 15 2 37 0 50 -2 12 -4 0 -4 -28z"/>
<path d="M478 3105 c-16 -36 1 -87 33 -99 35 -12 76 0 84 24 l6 20 29 -20 c15
-11 31 -20 34 -20 3 0 5 26 4 58 -2 56 -2 56 -5 10 -4 -53 -11 -58 -38 -28
-24 26 -40 25 -42 -2 -1 -11 -8 -25 -15 -29 -54 -34 -114 45 -69 90 16 16 18
21 6 21 -9 0 -21 -11 -27 -25z"/>
<path d="M3985 3099 c-10 -15 3 -25 16 -12 7 7 7 13 1 17 -6 3 -14 1 -17 -5z"/>
<path d="M3585 3060 c-55 -17 -73 -72 -35 -110 28 -28 139 -29 163 -2 25 27
22 78 -5 96 -31 20 -87 27 -123 16z m113 -26 c12 -8 22 -26 22 -39 0 -33 -36
-55 -88 -55 -61 0 -82 14 -82 54 0 24 6 36 23 44 33 16 99 14 125 -4z"/>
<path d="M3997 3012 c-21 -23 -22 -76 -1 -96 25 -25 61 -30 89 -12 26 17 41
56 31 81 -4 11 2 15 24 15 27 0 29 -3 33 -47 l3 -48 2 51 c2 55 -7 64 -66 64
-20 0 -22 -4 -17 -22 4 -13 7 -25 7 -28 1 -29 -6 -42 -26 -55 -19 -13 -28 -13
-50 -4 -42 19 -46 77 -7 106 9 7 11 13 5 13 -6 0 -18 -8 -27 -18z"/>
<path d="M475 2930 c3 -5 10 -10 16 -10 5 0 9 5 9 10 0 6 -7 10 -16 10 -8 0
-12 -4 -9 -10z"/>
<path d="M920 2927 c0 -10 6 -18 13 -19 6 -1 -31 -5 -83 -8 l-95 -6 103 -2
c56 -1 102 2 102 6 0 5 -9 17 -20 27 -18 16 -20 16 -20 2z"/>
<path d="M480 2841 c-13 -25 -13 -44 1 -75 20 -43 97 -47 115 -5 l9 20 27 -20
c14 -12 29 -21 32 -21 3 0 5 26 4 58 l-1 57 -6 -48 -6 -49 -29 23 c-22 17 -31
20 -34 10 -6 -18 -40 -51 -52 -51 -17 0 -60 47 -60 65 0 8 9 24 20 35 15 15
16 20 5 20 -8 0 -19 -9 -25 -19z"/>
<path d="M765 2771 c-6 -11 9 -23 19 -14 9 9 7 23 -3 23 -6 0 -12 -4 -16 -9z"/>
<path d="M783 2693 c-7 -2 -15 -20 -19 -39 -8 -42 14 -79 51 -88 31 -8 75 16
75 40 0 13 5 12 29 -5 16 -12 32 -21 35 -21 3 0 5 24 4 53 -1 50 -2 50 -5 9
l-4 -43 -29 21 c-35 25 -40 25 -40 2 0 -25 -20 -42 -50 -42 -14 0 -31 5 -38
12 -18 18 -15 79 6 94 17 13 9 17 -15 7z"/>
<path d="M513 2675 c-64 -27 -49 -107 22 -121 73 -13 135 16 135 65 0 35 -9
46 -49 59 -44 15 -68 15 -108 -3z m124 -20 c60 -39 -9 -106 -93 -90 -20 3 -41
16 -49 29 -42 63 67 110 142 61z"/>
<path d="M781 2499 c-18 -17 -22 -28 -17 -53 9 -44 31 -56 101 -56 71 0 95 17
95 68 0 43 -31 62 -100 62 -44 0 -61 -5 -79 -21z m155 -10 c21 -17 17 -56 -8
-73 -25 -18 -100 -21 -129 -6 -13 7 -19 21 -19 45 0 27 5 35 28 44 31 12 109
6 128 -10z"/>
<path d="M4006 2218 c-24 -34 -20 -73 10 -97 34 -27 54 -26 89 1 23 18 26 27
22 58 -4 35 -4 36 24 32 25 -4 28 -8 32 -51 l3 -46 2 52 2 51 -41 7 c-49 8
-53 5 -38 -28 30 -65 -65 -108 -100 -45 -14 25 -14 29 7 57 12 17 18 31 13 31
-5 0 -17 -10 -25 -22z"/>
<path d="M3997 2044 c-8 -8 1 -24 14 -24 5 0 9 7 9 15 0 15 -12 20 -23 9z"/>
<path d="M4006 1948 c-50 -71 41 -150 105 -92 17 15 20 27 16 57 -4 31 -3 37
10 33 8 -3 21 -6 28 -6 9 0 15 -16 18 -47 l3 -48 2 51 c2 55 -7 64 -65 64 -27
0 -27 -1 -12 -34 30 -65 -66 -106 -100 -44 -14 25 -14 29 7 57 12 17 18 31 13
31 -5 0 -17 -10 -25 -22z"/>
<path d="M4033 1780 c-12 -5 -27 -19 -33 -30 -40 -75 82 -130 166 -75 18 11
24 25 24 51 0 31 -4 37 -35 50 -38 16 -88 17 -122 4z m106 -11 c32 -11 50 -46
36 -69 -16 -26 -74 -41 -115 -30 -50 14 -68 42 -46 75 21 33 72 42 125 24z"/>
<path d="M692 1485 c-7 -15 -8 -25 -2 -25 6 0 10 -16 10 -35 0 -49 17 -44 22
8 7 73 -8 100 -30 52z"/>
<path d="M472 1118 c2 -69 2 -70 5 -15 2 31 7 57 10 57 3 0 30 -22 59 -50 57
-54 81 -61 107 -32 30 33 13 102 -26 102 -6 0 -1 -9 11 -20 27 -26 28 -51 2
-75 -23 -21 -18 -24 -119 63 l-51 44 2 -74z"/>
<path d="M3992 1073 c2 -63 2 -64 5 -15 2 28 7 52 10 52 3 0 30 -22 60 -50 30
-27 62 -50 71 -50 31 1 52 26 52 62 0 36 -15 58 -39 58 -11 0 -9 -5 7 -16 27
-19 28 -55 3 -79 -19 -16 -21 -16 -48 3 -15 11 -37 30 -48 42 -11 12 -32 31
-47 42 l-28 19 2 -68z"/>
<path d="M475 990 c-3 -5 1 -10 9 -10 9 0 16 5 16 10 0 6 -4 10 -9 10 -6 0
-13 -4 -16 -10z"/>
<path d="M3990 940 c0 -5 7 -10 15 -10 8 0 15 5 15 10 0 6 -7 10 -15 10 -8 0
-15 -4 -15 -10z"/>
<path d="M472 853 c2 -63 2 -64 5 -15 2 28 7 52 10 52 3 0 30 -22 60 -50 59
-54 81 -60 106 -32 29 32 13 102 -24 102 -5 0 0 -9 11 -20 25 -25 25 -52 1
-75 -19 -16 -21 -16 -48 3 -15 11 -41 34 -58 52 -16 17 -38 36 -47 41 -16 9
-18 4 -16 -58z"/>
<path d="M954 795 c0 -49 1 -71 3 -48 2 23 2 64 0 90 -2 26 -3 8 -3 -42z"/>
<path d="M1880 845 c-13 -14 -18 -25 -12 -25 6 0 14 6 19 13 5 7 10 -27 14
-78 l5 -90 2 103 c1 56 1 102 -1 102 -2 0 -14 -11 -27 -25z"/>
<path d="M2052 802 l-43 -67 40 -3 c38 -3 41 -5 41 -33 0 -16 5 -29 10 -29 6
0 10 13 10 29 0 25 5 30 28 34 l27 4 -27 2 c-28 1 -28 2 -28 66 0 36 -3 65 -7
65 -5 0 -27 -31 -51 -68z m38 -22 c0 -38 -2 -40 -30 -40 l-30 0 26 40 c15 22
28 40 30 40 2 0 4 -18 4 -40z"/>
<path d="M2295 858 c-2 -7 -5 -28 -8 -46 -4 -33 -3 -34 26 -28 66 13 104 -24
78 -80 -13 -29 -64 -33 -93 -7 -19 17 -24 8 -9 -15 10 -17 86 -18 106 -2 21
18 19 83 -3 103 -10 10 -35 17 -56 17 -33 0 -37 3 -34 23 2 18 10 23 46 25 23
2 42 7 42 13 0 14 -90 11 -95 -3z"/>
<path d="M2498 863 c-9 -2 -24 -24 -33 -47 -15 -38 -15 -50 -3 -92 10 -38 19
-49 40 -55 40 -11 70 10 84 58 15 52 3 106 -29 128 -22 15 -29 16 -59 8z m68
-38 c12 -18 15 -39 12 -70 -7 -55 -22 -75 -58 -75 -31 0 -50 32 -50 85 0 19 5
46 12 60 16 34 61 35 84 0z"/>
<path d="M4000 851 c-14 -28 -12 -63 6 -89 21 -31 86 -31 106 0 l15 22 31 -23
32 -22 -2 58 -2 58 -3 -49 -4 -48 -22 20 c-27 25 -41 30 -45 17 -13 -37 -25
-46 -55 -43 -22 2 -36 11 -46 30 -14 25 -14 29 7 57 18 24 19 31 8 31 -9 0
-20 -9 -26 -19z"/>
<path d="M511 728 c-86 -46 -20 -143 84 -124 68 13 97 73 55 111 -25 23 -107
30 -139 13z m130 -24 c24 -22 24 -39 -1 -64 -28 -28 -108 -28 -138 0 -12 12
-22 23 -22 26 0 16 24 46 43 54 31 14 95 5 118 -16z"/>
<path d="M2195 680 c-3 -5 1 -10 9 -10 9 0 16 5 16 10 0 6 -4 10 -9 10 -6 0
-13 -4 -16 -10z"/>
<path d="M4010 670 c-60 -60 24 -138 119 -110 48 13 61 28 61 68 0 48 -22 61
-97 62 -50 0 -67 -4 -83 -20z m148 -6 c12 -8 22 -26 22 -39 0 -33 -36 -55 -90
-55 -33 0 -53 6 -68 20 -27 26 -28 44 -2 70 25 25 105 27 138 4z"/>
<path d="M876 634 c-12 -31 -6 -81 12 -97 28 -25 77 -22 99 7 19 23 19 23 42
5 35 -28 41 -24 41 31 0 28 -4 50 -10 50 -5 0 -10 -19 -10 -42 l0 -41 -23 21
c-23 22 -54 31 -42 12 7 -12 -30 -50 -50 -50 -23 0 -55 37 -55 64 0 14 7 32
16 40 13 14 13 16 1 16 -8 0 -18 -7 -21 -16z"/>
<path d="M876 461 c-4 -7 -5 -15 -2 -18 9 -9 19 4 14 18 -4 11 -6 11 -12 0z"/>
<path d="M916 380 c-16 -5 -33 -15 -37 -22 -13 -20 -10 -74 5 -87 21 -18 100
-24 140 -11 29 9 36 17 37 38 2 40 -1 56 -15 69 -16 17 -94 25 -130 13z m122
-22 c17 -17 15 -63 -3 -78 -9 -7 -41 -13 -72 -13 -43 0 -59 4 -70 18 -17 25
-17 50 3 69 19 19 124 22 142 4z"/>
<path d="M892 194 c-26 -18 -30 -74 -7 -98 39 -39 151 -30 172 14 16 35 6 76
-23 89 -36 16 -116 14 -142 -5z m146 -17 c7 -5 12 -24 10 -41 -2 -25 -10 -33
-41 -45 -76 -28 -149 19 -118 77 17 32 115 37 149 9z"/>
</g>
</svg>
