<?xml version="1.0" standalone="no"?>
<!DOCTYPE svg PUBLIC "-//W3C//DTD SVG 20010904//EN"
 "http://www.w3.org/TR/2001/REC-SVG-20010904/DTD/svg10.dtd">
<svg version="1.0" xmlns="http://www.w3.org/2000/svg"
 width="1062.000000pt" height="894.000000pt" viewBox="0 0 1062.000000 894.000000"
 preserveAspectRatio="xMidYMid meet">

<g transform="translate(0.000000,894.000000) scale(0.100000,-0.100000)"
fill="#000000" stroke="none">
<path d="M5209 8913 c9 -32 38 -43 48 -17 4 11 -1 22 -12 30 -31 23 -44 18
-36 -13z"/>
<path d="M7427 8926 c-4 -9 -2 -18 3 -21 13 -8 50 -93 50 -114 0 -16 -31 -35
-81 -51 -28 -8 -312 40 -350 61 -21 11 -26 9 -44 -16 -11 -15 -83 -81 -160
-147 -77 -67 -147 -129 -157 -139 -9 -11 -22 -19 -30 -19 -20 0 -37 -20 -31
-36 3 -8 14 -14 24 -14 10 0 18 -6 16 -12 -1 -7 4 -12 11 -10 8 1 12 -3 9 -10
-2 -7 8 -29 23 -48 15 -19 37 -54 50 -77 13 -24 27 -43 31 -43 5 0 16 -16 25
-35 9 -19 20 -35 25 -35 5 0 8 -3 7 -7 -2 -8 83 -142 105 -165 7 -7 18 -26 25
-41 6 -15 17 -25 22 -22 6 4 2 17 -9 33 -37 53 -156 234 -187 282 -17 28 -34
47 -37 43 -4 -3 -7 -1 -7 5 0 7 0 14 0 17 0 3 -20 35 -45 71 -25 36 -43 69
-40 74 2 4 15 10 27 13 13 3 115 37 228 77 390 136 434 150 448 145 8 -3 20
-1 26 4 10 7 314 -34 325 -45 6 -6 -30 -166 -41 -184 -8 -12 -2 -27 19 -60 17
-25 39 -61 49 -80 10 -19 22 -37 25 -40 17 -13 262 -447 271 -478 10 -36 5
-174 -8 -219 -5 -19 -2 -23 17 -23 l24 0 -3 110 c-3 81 -1 114 9 126 11 13 10
18 -8 32 -17 15 -103 153 -183 297 -12 22 -56 98 -98 169 -42 71 -77 139 -78
150 -2 12 4 60 13 109 17 93 27 103 73 75 17 -11 22 -10 30 2 5 8 7 17 4 21
-2 4 18 68 46 143 27 75 50 138 50 141 0 3 -6 5 -14 5 -8 0 -32 -53 -62 -137
-48 -134 -61 -154 -91 -135 -9 6 -6 39 13 136 23 114 25 151 9 134 -3 -3 -17
-63 -31 -134 -14 -70 -26 -129 -27 -130 -1 -1 -44 5 -94 14 -76 12 -93 18 -93
32 0 35 85 134 150 175 43 27 58 41 46 43 -9 2 -24 -2 -32 -9 -9 -7 -23 -14
-33 -15 -13 -2 -12 0 3 12 19 13 19 14 -5 14 -18 0 -35 -14 -62 -50 -21 -28
-49 -56 -63 -62 -13 -6 -24 -15 -24 -20 0 -4 -6 -8 -14 -8 -14 0 -28 27 -51
99 -13 38 -29 50 -38 27z m117 -145 c-10 -17 -21 -28 -26 -25 -4 3 -13 -6 -19
-19 -8 -19 -16 -23 -36 -19 l-26 5 24 18 c13 10 29 19 35 19 6 0 21 11 34 25
31 33 35 32 14 -4z m-340 -46 c71 -14 130 -26 132 -28 2 -1 -65 -26 -149 -55
-84 -28 -188 -65 -232 -81 -158 -56 -237 -82 -241 -79 -2 2 20 23 49 45 29 23
97 82 152 131 76 68 107 89 130 90 17 1 88 -10 159 -23z"/>
<path d="M10451 8899 c-18 -21 -40 -39 -48 -39 -11 0 -14 -7 -11 -25 3 -13 2
-26 -1 -27 -4 -2 -42 -49 -84 -105 -43 -55 -84 -104 -92 -107 -8 -3 -15 -12
-15 -21 0 -20 -95 -172 -132 -211 -16 -18 -43 -34 -59 -38 -21 -4 -29 -11 -29
-26 0 -11 7 -23 15 -26 23 -9 18 -24 -7 -20 -16 2 -23 10 -23 27 0 15 -5 23
-13 21 -8 -1 -12 3 -10 10 3 7 -6 28 -19 47 -13 19 -26 46 -29 60 -10 47 -13
51 -34 51 -34 0 -37 -30 -6 -53 l27 -20 -23 -11 c-15 -7 -23 -20 -23 -36 0
-31 29 -38 56 -14 16 15 19 15 19 2 0 -9 7 -21 15 -28 9 -7 14 -19 11 -27 -4
-9 -1 -11 6 -7 8 5 9 2 5 -10 -4 -10 -3 -15 3 -11 6 3 10 1 10 -5 0 -7 7 -10
15 -6 8 3 15 2 15 -1 0 -17 -66 -113 -77 -113 -8 0 -13 -12 -13 -30 0 -26 2
-28 23 -21 12 4 23 17 25 27 2 10 11 30 21 43 l18 23 13 -31 c7 -17 16 -31 21
-31 5 0 9 -8 9 -17 0 -19 49 -105 50 -88 0 6 -9 25 -20 43 -11 18 -20 39 -20
47 0 7 -6 20 -13 27 -36 35 -38 54 -11 102 14 25 30 46 34 46 5 0 98 -31 207
-70 l198 -70 52 -57 c29 -32 51 -63 48 -70 -5 -14 19 -36 29 -26 3 4 13 -2 21
-13 11 -14 14 -15 14 -4 0 19 -33 60 -49 60 -6 0 -9 4 -6 8 5 9 -35 53 -68 76
-15 10 -16 15 -6 21 8 5 11 4 7 -2 -4 -6 13 -17 41 -26 27 -9 56 -19 65 -23
12 -4 17 -1 17 10 0 18 -24 33 -65 40 -15 3 -35 12 -45 21 -9 8 -21 15 -26 15
-5 0 -2 -5 6 -10 8 -5 11 -10 5 -10 -5 0 -26 16 -46 35 -20 19 -40 31 -43 27
-4 -3 -4 0 -1 9 4 10 -20 42 -68 91 -40 42 -66 73 -57 68 8 -5 87 -60 175
-123 110 -79 161 -110 163 -100 2 8 2 16 0 17 -140 94 -361 257 -385 284 -27
31 -34 34 -47 23 -9 -8 -16 -19 -16 -26 0 -7 -7 -16 -16 -19 -17 -7 -17 -5 38
77 21 31 43 57 48 57 6 0 10 6 10 14 0 8 29 51 65 95 36 45 77 99 91 121 14
21 37 46 50 55 14 9 22 20 19 24 -5 9 23 37 30 29 12 -12 42 -314 33 -332 -13
-25 15 -57 34 -38 7 7 20 12 30 12 10 0 18 7 18 15 0 8 -7 15 -16 15 -14 0
-14 2 0 22 18 25 20 38 8 38 -5 0 -14 -11 -20 -25 -16 -36 -28 -31 -30 13 -1
20 -9 95 -18 165 -9 70 -13 135 -10 143 4 10 -2 14 -22 13 -18 0 -38 -13 -61
-40z m-260 -547 c1 -34 0 -64 -3 -67 -6 -7 -118 16 -118 24 1 16 108 116 117
108 1 -1 3 -30 4 -65z m51 34 c14 -25 102 -129 131 -155 9 -9 17 -20 17 -25 0
-5 8 -15 18 -22 13 -10 8 -10 -23 1 -22 8 -39 19 -37 26 2 9 0 10 -11 1 -9 -8
-23 -9 -43 -3 -55 17 -62 22 -57 42 3 10 1 25 -4 32 -6 6 -13 38 -17 70 -7 61
4 74 26 33z"/>
<path d="M10250 8248 c11 -12 80 -37 80 -29 0 5 -11 12 -24 15 -13 3 -32 9
-43 13 -10 3 -16 4 -13 1z"/>
<path d="M3141 8872 c-11 -21 2 -42 26 -42 7 0 49 -20 94 -45 45 -25 83 -45
85 -45 15 0 352 -196 373 -217 16 -15 43 -55 61 -88 17 -33 35 -64 40 -70 29
-37 269 -458 272 -477 2 -18 9 -23 33 -24 17 0 120 -22 230 -48 110 -27 253
-61 318 -77 65 -15 124 -32 130 -37 7 -5 28 -9 47 -9 19 -1 145 -26 280 -57
135 -31 286 -66 335 -77 50 -12 95 -22 101 -24 19 -6 119 -179 116 -201 -2
-11 4 -26 12 -34 13 -10 20 -9 41 4 21 14 65 16 328 16 204 0 307 -4 314 -11
18 -18 58 -7 61 17 4 31 -24 51 -49 36 -11 -7 -25 -9 -32 -5 -7 4 -14 8 -17 8
-3 1 -21 8 -40 16 -19 9 -57 24 -85 34 -27 10 -54 22 -60 26 -5 4 -57 26 -115
49 -58 23 -127 52 -155 65 -27 12 -66 28 -85 35 -19 7 -53 21 -74 31 -22 10
-43 16 -48 13 -4 -3 -8 -1 -8 4 0 6 -30 20 -66 33 -44 16 -72 33 -86 51 -22
31 -40 35 -58 13 -14 -17 -4 -55 15 -55 11 0 88 -110 81 -117 -5 -5 -674 150
-700 163 -16 8 -38 14 -48 14 -10 0 -28 9 -40 20 -12 11 -28 20 -35 20 -7 0
-13 4 -13 10 0 5 -8 7 -17 3 -10 -3 -15 -2 -10 2 7 9 -70 65 -89 65 -7 0 -15
7 -18 16 -3 8 -10 12 -16 9 -5 -3 -10 -3 -10 2 0 4 -37 31 -82 58 -44 28 -95
62 -113 77 -18 15 -35 24 -39 20 -4 -4 -13 0 -19 9 -7 9 -28 24 -47 34 -19 10
-37 21 -40 24 -12 16 -66 45 -78 43 -7 -2 -11 2 -10 8 2 7 -16 21 -39 33 -23
12 -43 24 -43 27 0 3 -63 70 -141 150 -77 80 -145 157 -151 173 -6 17 -17 27
-30 27 -11 0 -70 27 -131 61 -62 34 -141 77 -177 96 -148 81 -225 126 -228
135 -2 4 -12 13 -22 18 -15 8 -21 6 -29 -8z m779 -555 c0 -4 -4 -5 -10 -2 -16
10 -11 -1 7 -16 11 -10 14 -10 9 -1 -14 23 4 12 34 -20 17 -18 39 -51 49 -73
19 -38 72 -217 67 -223 -6 -5 -191 324 -191 340 0 9 -5 21 -9 25 -5 5 -6 2 -1
-7 15 -28 -3 -5 -40 50 l-37 55 61 -60 c33 -33 61 -63 61 -68z m199 -149 c8 2
11 0 7 -6 -3 -5 5 -17 19 -26 14 -9 25 -13 25 -9 0 5 4 3 8 -3 4 -5 42 -32 85
-59 42 -27 77 -52 77 -57 0 -4 9 -8 19 -8 11 0 21 -3 23 -8 5 -11 171 -115
185 -115 7 0 11 -4 10 -9 -1 -5 21 -21 48 -36 28 -15 55 -32 60 -38 6 -7 24
-19 40 -28 17 -8 25 -15 18 -16 -10 0 -368 83 -537 125 -33 8 -65 20 -72 27
-11 12 -84 263 -84 289 0 6 12 2 28 -9 15 -10 33 -17 41 -14z m1816 -653 c209
-86 388 -157 397 -158 9 0 14 -5 12 -9 -8 -12 -604 -10 -604 2 0 6 -6 10 -14
10 -21 0 -107 145 -94 158 15 15 2 42 -21 42 -13 0 -31 19 -55 59 -41 66 -43
76 -18 62 9 -5 188 -80 397 -166z"/>
<path d="M7290 8870 c-13 -8 -13 -10 2 -10 9 0 20 5 23 10 8 13 -5 13 -25 0z"/>
<path d="M9347 8753 c-15 -14 -7 -43 12 -43 24 0 33 13 25 34 -6 16 -25 21
-37 9z"/>
<path d="M7348 8595 c-3 -14 -1 -25 3 -25 5 0 9 11 9 25 0 14 -2 25 -4 25 -2
0 -6 -11 -8 -25z"/>
<path d="M9154 8596 c-8 -21 3 -36 27 -36 15 0 20 6 17 22 -4 27 -35 37 -44
14z"/>
<path d="M8734 8519 c-10 -17 13 -36 27 -22 12 12 4 33 -11 33 -5 0 -12 -5
-16 -11z"/>
<path d="M7321 8504 c0 -11 3 -14 6 -6 3 7 2 16 -1 19 -3 4 -6 -2 -5 -13z"/>
<path d="M7290 8419 c0 -5 5 -7 10 -4 6 3 10 8 10 11 0 2 -4 4 -10 4 -5 0 -10
-5 -10 -11z"/>
<path d="M8090 8385 c-11 -13 -11 -19 3 -32 21 -21 49 -9 45 19 -4 28 -30 35
-48 13z"/>
<path d="M5906 8351 c-11 -18 6 -42 28 -39 29 4 29 42 -1 46 -11 2 -24 -1 -27
-7z"/>
<path d="M4247 8324 c-13 -13 -7 -42 10 -48 18 -7 34 11 30 34 -2 16 -29 25
-40 14z"/>
<path d="M4107 8283 c-13 -12 -7 -51 9 -57 21 -8 20 -8 38 10 12 12 13 20 6
35 -10 19 -40 26 -53 12z"/>
<path d="M7780 8240 c6 -11 13 -20 16 -20 2 0 0 9 -6 20 -6 11 -13 20 -16 20
-2 0 0 -9 6 -20z"/>
<path d="M580 8236 c-18 -18 -245 -76 -295 -76 -32 0 -36 -3 -33 -22 3 -25 36
-37 48 -18 9 14 269 81 290 75 26 -8 47 12 34 32 -14 23 -27 26 -44 9z"/>
<path d="M9796 8242 c-3 -5 1 -9 9 -9 8 0 12 4 9 9 -3 4 -7 8 -9 8 -2 0 -6 -4
-9 -8z"/>
<path d="M4282 8198 c5 -15 28 -23 28 -10 0 5 -7 13 -16 16 -10 4 -14 1 -12
-6z"/>
<path d="M10031 8158 c29 -58 81 -138 89 -138 4 0 7 -6 7 -13 0 -17 33 -67 45
-67 5 0 7 -4 4 -9 -3 -5 1 -12 10 -15 8 -3 13 -9 11 -14 -7 -10 21 -47 29 -39
7 7 -47 97 -58 97 -5 0 -8 6 -8 13 -1 20 -87 147 -95 139 -4 -4 -5 0 -4 8 4
17 -31 80 -43 80 -5 0 1 -19 13 -42z"/>
<path d="M7211 8159 c-13 -39 -13 -39 -2 -39 8 0 22 61 16 68 -1 2 -8 -11 -14
-29z"/>
<path d="M7191 8093 c-1 -12 -5 -25 -11 -28 -5 -3 -10 -10 -10 -16 0 -5 5 -9
10 -9 6 0 9 3 8 8 0 4 2 15 6 24 4 10 6 23 3 30 -3 7 -6 3 -6 -9z"/>
<path d="M7110 8000 c-8 -15 -7 -22 8 -31 13 -8 17 -20 14 -45 -2 -19 0 -34 6
-34 12 0 25 47 17 60 -3 5 2 21 11 35 9 14 14 28 10 32 -3 3 -6 0 -6 -7 0 -11
-3 -11 -12 -2 -18 18 -36 15 -48 -8z"/>
<path d="M9218 8007 c-7 -8 -29 -17 -48 -20 -458 -87 -462 -88 -449 -102 5 -5
466 82 480 91 5 3 9 0 9 -6 0 -19 -149 -308 -161 -312 -13 -4 -62 39 -72 65
-8 21 -36 22 -43 2 -4 -8 -1 -22 6 -30 7 -9 14 -30 15 -48 4 -55 35 -309 45
-366 11 -59 -3 -109 -15 -58 -4 15 -13 27 -20 27 -19 0 -110 98 -232 249 -59
73 -119 141 -133 150 l-25 16 25 -35 c13 -19 51 -66 83 -105 72 -85 95 -124
39 -66 -22 23 -43 49 -46 57 -6 16 -32 19 -40 5 -10 -16 5 -39 28 -45 13 -3
77 -58 142 -123 65 -64 123 -116 127 -115 4 1 3 -6 -2 -17 -13 -24 -67 -37
-86 -21 -10 8 -15 8 -21 -1 -4 -7 -3 -9 4 -5 6 3 13 2 16 -3 4 -5 -31 -21 -76
-35 -46 -14 -132 -41 -192 -61 -59 -19 -112 -35 -117 -35 -5 0 -6 14 -2 30 7
39 -2 38 -23 -1 -8 -17 -11 -28 -5 -25 6 4 11 3 11 -3 0 -9 -145 -61 -170 -61
-6 0 12 33 40 74 51 74 96 106 117 85 14 -14 43 0 43 21 0 23 -19 30 -44 18
-10 -6 -26 -8 -35 -5 -9 2 -52 1 -95 -2 -74 -6 -77 -6 -71 14 3 11 8 36 11 55
4 27 3 31 -5 20 -6 -8 -11 -25 -11 -37 0 -13 -5 -23 -11 -23 -6 0 -9 -7 -5
-15 8 -21 -33 -29 -104 -22 -64 7 -84 -4 -56 -31 12 -13 18 -14 28 -4 7 7 35
12 64 12 l52 0 -37 -96 c-21 -53 -45 -100 -54 -105 -35 -20 -748 -8 -774 14
-9 6 -18 6 -27 -2 -10 -8 -40 -8 -121 4 -60 8 -112 15 -116 15 -4 0 -5 9 -2
21 5 17 2 20 -18 17 -15 -2 -23 -9 -22 -18 3 -14 -19 -13 -175 7 -97 13 -190
25 -205 26 -15 2 -33 9 -39 15 -7 7 -18 12 -25 12 -7 0 -14 8 -14 18 -1 9 -2
29 -3 44 -2 35 -13 45 -33 32 -26 -16 -26 -28 2 -58 41 -44 36 -54 -45 -98
-176 -96 -246 -131 -264 -133 -11 -1 -24 -3 -28 -4 -14 -2 -8 -39 7 -44 19 -8
55 -80 55 -110 0 -34 25 -54 45 -37 8 7 15 19 15 27 0 9 33 53 73 98 39 45 95
110 122 143 28 33 59 64 70 70 23 10 27 10 320 -28 121 -15 245 -31 275 -35
69 -7 95 -21 44 -23 -20 -1 -39 -4 -42 -7 -3 -2 33 -3 79 -2 75 3 96 -1 204
-36 164 -54 229 -80 238 -94 10 -17 34 -17 44 0 9 16 326 117 365 117 14 0 31
6 37 14 12 14 51 29 51 19 0 -13 -235 -351 -258 -370 -26 -22 -26 -22 -8 -55
23 -45 106 -347 99 -364 -6 -17 23 -30 40 -16 6 6 91 18 187 27 171 16 265 33
195 34 -16 0 -106 -8 -200 -18 -136 -16 -173 -17 -183 -7 -16 16 -104 321
-104 360 1 28 56 116 213 336 l68 95 83 24 c46 12 92 27 103 32 11 4 114 38
228 74 159 51 211 64 222 55 10 -8 18 -6 33 10 12 13 25 18 36 14 9 -3 23 0
32 7 28 23 41 -10 58 -156 17 -146 19 -177 14 -210 -2 -12 4 -21 16 -23 24 -5
37 17 25 40 -6 10 -14 57 -20 105 -5 48 -14 92 -18 97 -9 11 -20 116 -12 116
2 0 18 -12 36 -27 18 -16 41 -35 51 -43 11 -9 31 -31 45 -49 18 -23 32 -32 43
-28 23 9 20 26 -6 37 -13 5 -37 22 -55 38 -17 16 -49 44 -71 64 -47 42 -53 51
-58 86 -7 53 -54 442 -54 451 0 5 9 7 20 4 11 -3 17 -9 14 -14 -3 -5 2 -12 10
-15 9 -3 16 -12 16 -19 0 -7 7 -18 15 -25 18 -15 47 3 39 25 -7 17 145 315
169 333 13 10 15 17 7 33 -13 22 -24 24 -42 6z m-876 -854 c-6 -2 -10 -9 -6
-14 3 -5 1 -9 -4 -9 -5 0 -33 -33 -61 -74 -36 -52 -60 -77 -82 -85 -57 -20
-58 -16 -20 89 l36 100 75 -1 c41 0 69 -3 62 -6z m-1852 -187 c-14 -13 -27
-22 -29 -20 -7 6 31 44 43 44 6 0 -1 -11 -14 -24z m-45 -25 c-1 -20 -26 -55
-110 -152 l-50 -59 -22 43 c-12 23 -22 49 -23 59 0 11 34 35 103 71 56 31 102
56 103 56 0 1 0 -8 -1 -18z m1499 -19 l68 -5 -123 -39 c-68 -21 -140 -40 -159
-42 -23 -3 -82 12 -170 41 -74 25 -137 48 -140 50 -7 6 439 2 524 -5z"/>
<path d="M6290 6864 c-25 -13 -35 -22 -23 -19 12 3 32 1 44 -5 17 -9 20 -9 14
0 -5 8 -3 11 6 8 8 -3 13 -12 11 -19 -2 -8 8 -3 22 10 14 14 26 29 26 35 0 6
-4 6 -11 -1 -12 -12 -52 -5 -43 8 7 12 5 12 -46 -17z"/>
<path d="M8463 7984 c-8 -21 13 -42 28 -27 13 13 5 43 -11 43 -6 0 -13 -7 -17
-16z"/>
<path d="M10092 7970 c7 -10 14 -18 15 -16 6 6 -9 36 -18 36 -5 0 -4 -9 3 -20z"/>
<path d="M7008 7914 c-3 -3 11 -31 32 -62 21 -31 36 -62 33 -68 -7 -18 -408
-366 -446 -386 -39 -22 -44 -54 -7 -51 37 2 149 -18 156 -28 7 -12 41 -12 48
0 15 23 -6 40 -43 36 -41 -4 -131 12 -130 23 1 12 421 367 445 376 29 12 31
41 5 55 -11 6 -33 33 -50 61 -32 52 -34 54 -43 44z"/>
<path d="M7927 7904 c-3 -5 1 -15 9 -22 16 -14 18 -5 5 17 -5 7 -11 9 -14 5z"/>
<path d="M9710 7881 c0 -27 19 -36 37 -18 18 18 9 37 -18 37 -12 0 -19 -7 -19
-19z"/>
<path d="M8607 7883 c-13 -12 -135 -30 -150 -21 -20 11 -47 -15 -41 -39 3 -10
-2 -36 -10 -59 -8 -23 -11 -46 -7 -52 4 -7 15 12 26 43 10 30 21 55 24 55 3 0
19 -18 35 -40 17 -22 37 -40 45 -40 13 0 13 2 3 9 -8 4 -14 12 -13 17 0 5 -11
21 -25 36 -31 36 -30 48 4 48 15 0 42 4 61 10 28 8 36 6 46 -7 11 -15 15 -15
48 0 44 21 40 47 -7 47 -18 0 -36 -3 -39 -7z"/>
<path d="M7151 7853 c-1 -17 4 -35 9 -38 11 -7 11 9 0 45 -8 24 -8 24 -9 -7z"/>
<path d="M10230 7840 c0 -5 5 -10 12 -10 6 0 9 -3 5 -6 -3 -4 1 -20 9 -36 18
-36 28 -31 20 9 -6 27 -46 65 -46 43z"/>
<path d="M10558 7809 c-20 -21 -33 -39 -29 -39 14 1 82 68 74 73 -5 3 -25 -12
-45 -34z"/>
<path d="M9705 7799 c-4 -24 -14 -43 -23 -46 -26 -10 -32 -26 -17 -43 11 -12
12 -23 5 -46 -6 -16 -19 -63 -29 -104 -10 -41 -22 -84 -26 -94 -5 -12 -5 -17
1 -13 6 3 20 41 33 84 13 43 32 106 43 141 11 35 17 66 14 69 -3 3 -2 13 3 22
14 28 22 71 12 71 -5 0 -12 -18 -16 -41z"/>
<path d="M10183 7785 c0 -8 4 -15 9 -15 4 0 8 4 8 9 0 6 -4 12 -8 15 -5 3 -9
-1 -9 -9z"/>
<path d="M10288 7758 c-4 -10 28 -64 52 -88 16 -15 9 -47 -12 -56 -28 -12 -61
-7 -52 8 4 6 3 8 -2 5 -5 -3 -10 -20 -9 -39 l0 -33 58 -1 c32 -1 61 -5 64 -8
15 -14 -57 -132 -72 -118 -5 4 -5 1 -1 -6 5 -8 -2 -20 -16 -32 -18 -15 -21
-21 -10 -31 6 -7 12 -28 12 -47 0 -30 -15 -49 -127 -163 -71 -72 -139 -135
-153 -142 -31 -15 -33 -41 -3 -45 16 -2 26 5 37 25 8 15 66 79 129 141 l114
114 -4 -204 c-3 -115 -9 -212 -15 -225 -6 -12 -8 -29 -4 -38 3 -9 2 -14 -3
-11 -12 8 -126 -132 -116 -142 4 -4 14 4 24 16 28 41 84 103 88 99 8 -8 -98
-420 -112 -433 -7 -8 -42 -16 -77 -20 -35 -3 -69 -7 -75 -9 -12 -4 -17 16 -15
55 0 8 -4 22 -9 32 -6 12 -6 18 1 18 5 0 10 7 10 15 0 9 15 33 34 53 63 69
128 154 122 159 -7 8 -36 -16 -33 -28 1 -4 -20 -31 -47 -59 -27 -27 -46 -50
-43 -50 4 0 -1 -9 -10 -20 -10 -11 -23 -20 -29 -20 -16 0 -26 -44 -16 -72 8
-21 8 -76 0 -83 -2 -2 -24 -6 -50 -10 -36 -6 -48 -4 -48 6 0 7 3 9 7 6 7 -7
73 80 73 96 0 10 -35 -31 -41 -48 -5 -13 -50 -50 -71 -58 -10 -3 -18 -13 -18
-21 0 -24 -37 -40 -48 -21 -11 20 -42 9 -42 -15 0 -10 5 -20 12 -22 7 -3 -30
-37 -83 -76 -73 -55 -103 -72 -132 -74 -44 -3 -62 -18 -22 -18 15 0 24 -4 20
-10 -4 -6 -10 -8 -15 -5 -12 8 -33 -23 -26 -40 8 -21 29 -19 50 4 10 11 32 25
49 31 18 7 41 16 52 21 30 13 278 129 297 140 37 20 46 12 40 -37 -4 -37 -2
-46 9 -42 8 3 13 11 11 18 -7 29 -8 81 -2 85 6 4 230 -58 260 -72 8 -4 22 -7
30 -8 8 0 31 -5 50 -11 19 -7 63 -20 97 -29 35 -10 69 -25 77 -34 8 -9 30
-101 50 -206 20 -104 40 -212 46 -238 5 -27 10 -56 10 -65 -1 -26 -29 28 -30
56 0 13 -4 21 -9 18 -4 -3 -37 47 -71 112 -35 64 -70 125 -78 134 -13 16 -13
18 2 24 9 3 16 12 16 19 0 25 -22 28 -43 7 -17 -18 -18 -23 -7 -37 16 -19 30
-44 103 -181 32 -60 62 -116 68 -124 5 -8 19 -34 30 -57 11 -24 22 -43 24 -43
3 0 3 48 2 108 -2 74 -14 162 -39 286 -24 116 -33 187 -28 200 4 12 22 34 39
50 48 46 38 63 -13 22 -50 -41 -65 -44 -97 -16 -17 14 -19 18 -6 14 16 -6 38
1 107 35 l25 12 -25 -6 c-14 -3 -38 -8 -55 -11 -16 -4 -32 -10 -35 -14 -15
-24 -108 23 -288 145 -2 2 199 55 221 59 7 1 17 4 22 7 6 3 47 14 93 25 52 12
82 24 82 32 0 8 -7 11 -17 8 -10 -3 -52 -14 -93 -25 -41 -11 -118 -32 -170
-47 -115 -31 -157 -35 -151 -14 2 8 28 108 56 222 29 114 58 214 65 223 10 12
40 15 161 15 93 0 149 4 149 10 0 6 -54 10 -142 10 -79 0 -149 4 -156 9 -11 6
-12 51 -5 236 l8 228 34 26 c19 14 32 21 29 16 -7 -11 119 -102 128 -93 2 3
-7 13 -21 22 -30 20 -69 51 -102 84 -13 12 -30 22 -37 22 -8 0 -17 -10 -21
-22 -4 -15 -8 -19 -12 -10 -3 8 0 19 6 25 6 6 11 19 11 30 0 31 80 157 104
163 11 2 39 6 61 8 22 2 42 5 45 6 3 1 20 1 38 0 19 -1 32 3 32 10 0 9 -24 11
-85 9 -77 -4 -83 -3 -66 11 11 8 49 38 85 65 52 40 66 56 66 78 0 15 -2 27 -5
27 -3 0 -56 -25 -117 -56 l-113 -56 -32 37 c-18 21 -33 43 -33 49 0 6 -7 19
-14 29 -10 13 -15 15 -18 5z m302 -55 c-14 -9 -35 -25 -47 -36 -19 -17 -23
-18 -23 -5 0 9 17 25 38 36 45 25 66 28 32 5z m-144 -88 c-17 -25 -40 -33 -50
-16 -6 9 55 52 63 45 2 -2 -4 -15 -13 -29z m-59 -31 c2 -7 -6 -10 -21 -7 -14
3 -23 10 -20 15 8 12 36 6 41 -8z m-327 -1088 c0 -2 -8 -10 -17 -17 -16 -13
-17 -12 -4 4 13 16 21 21 21 13z m121 -246 c5 0 8 -3 7 -7 -3 -11 32 -76 46
-85 19 -13 -4 -9 -105 18 l-99 27 58 28 c31 15 63 26 70 23 8 -2 18 -4 23 -4z
m-150 -16 c-34 -15 -48 -13 -36 5 3 6 21 11 38 10 l32 -1 -34 -14z m-61 -3 c0
-4 -11 -6 -25 -3 -14 2 -25 6 -25 8 0 2 11 4 25 4 14 0 25 -4 25 -9z m351 -62
c60 -39 109 -73 109 -74 0 -2 -12 1 -27 6 -16 5 -54 16 -85 24 -48 13 -61 21
-74 48 -9 17 -23 40 -32 50 -27 31 -2 18 109 -54z m-382 31 c11 -6 8 -9 -10
-15 -13 -4 -69 -30 -124 -56 -55 -27 -106 -49 -112 -49 -23 0 -13 16 28 46 22
16 54 40 70 52 48 39 101 47 148 22z"/>
<path d="M9880 6201 c0 -5 5 -13 10 -16 6 -3 10 -2 10 4 0 5 -4 13 -10 16 -5
3 -10 2 -10 -4z"/>
<path d="M10485 7740 c-10 -11 -22 -17 -28 -13 -6 4 -7 1 -2 -6 5 -9 14 -6 34
11 14 13 28 24 30 26 2 1 0 2 -6 2 -5 0 -18 -9 -28 -20z"/>
<path d="M7176 7723 c-6 -14 -5 -15 5 -6 7 7 10 15 7 18 -3 3 -9 -2 -12 -12z"/>
<path d="M8550 7714 c0 -14 27 -50 33 -44 3 3 -3 16 -13 30 -11 14 -20 20 -20
14z"/>
<path d="M10220 7715 c0 -5 5 -17 10 -25 5 -8 10 -10 10 -5 0 6 -5 17 -10 25
-5 8 -10 11 -10 5z"/>
<path d="M8380 7691 c0 -5 5 -13 10 -16 6 -3 10 -2 10 4 0 5 -4 13 -10 16 -5
3 -10 2 -10 -4z"/>
<path d="M10408 7678 c-10 -10 -14 -18 -9 -18 10 0 36 29 30 34 -2 1 -12 -6
-21 -16z"/>
<path d="M7180 7675 c0 -5 5 -17 10 -25 5 -8 10 -10 10 -5 0 6 -5 17 -10 25
-5 8 -10 11 -10 5z"/>
<path d="M9710 7626 c0 -14 5 -26 10 -26 6 0 10 9 10 19 0 11 -4 23 -10 26 -6
4 -10 -5 -10 -19z"/>
<path d="M8355 7616 c-9 -14 -15 -33 -12 -43 3 -13 8 -8 21 21 20 45 15 59 -9
22z"/>
<path d="M7202 7600 c0 -14 2 -19 5 -12 2 6 2 18 0 25 -3 6 -5 1 -5 -13z"/>
<path d="M7201 7554 c0 -11 3 -14 6 -6 3 7 2 16 -1 19 -3 4 -6 -2 -5 -13z"/>
<path d="M9058 7520 c-4 -14 -8 -38 -7 -55 0 -30 0 -30 10 -5 6 13 9 38 7 55
-3 29 -3 30 -10 5z"/>
<path d="M7216 7480 c4 -30 10 -64 15 -75 5 -12 6 2 2 35 -3 30 -10 64 -14 75
-6 12 -7 -1 -3 -35z"/>
<path d="M8195 7510 c3 -5 11 -10 16 -10 6 0 7 5 4 10 -3 6 -11 10 -16 10 -6
0 -7 -4 -4 -10z"/>
<path d="M1003 7494 c-8 -21 13 -42 28 -27 13 13 5 43 -11 43 -6 0 -13 -7 -17
-16z"/>
<path d="M9665 7499 c-4 -6 -5 -12 -2 -15 2 -3 7 2 10 11 7 17 1 20 -8 4z"/>
<path d="M8310 7484 c0 -8 5 -12 10 -9 6 3 10 10 10 16 0 5 -4 9 -10 9 -5 0
-10 -7 -10 -16z"/>
<path d="M8278 7416 c-9 -24 -13 -49 -8 -56 5 -8 13 5 24 36 18 54 19 64 8 64
-4 0 -15 -20 -24 -44z"/>
<path d="M5325 7440 c-3 -5 1 -10 9 -10 9 0 16 5 16 10 0 6 -4 10 -9 10 -6 0
-13 -4 -16 -10z"/>
<path d="M9620 7431 c0 -7 -5 -9 -12 -5 -7 4 -8 3 -4 -5 4 -6 3 -17 -2 -24 -5
-7 -12 -25 -16 -42 -4 -16 -14 -37 -21 -45 -8 -9 -13 -24 -13 -35 2 -28 -91
-306 -110 -327 -8 -10 -12 -24 -9 -31 8 -21 55 -27 73 -10 19 19 18 30 -5 43
-19 10 -18 16 29 156 27 80 54 151 59 158 6 7 10 21 9 31 0 11 7 47 16 79 9
33 14 62 11 64 -3 3 -5 0 -5 -7z"/>
<path d="M4653 7404 c-3 -8 0 -26 7 -38 6 -13 10 -41 8 -62 -3 -33 0 -39 18
-42 28 -4 40 26 18 43 -13 9 -16 22 -12 53 7 51 -23 87 -39 46z"/>
<path d="M5290 7405 c-15 -18 3 -47 25 -39 8 3 34 -8 59 -25 24 -17 48 -31 52
-31 15 0 -28 39 -56 50 -17 7 -30 21 -32 33 -4 27 -30 33 -48 12z"/>
<path d="M8590 7394 c0 -8 5 -12 10 -9 6 4 8 11 5 16 -9 14 -15 11 -15 -7z"/>
<path d="M8437 7389 c7 -7 15 -10 18 -7 3 3 -2 9 -12 12 -14 6 -15 5 -6 -5z"/>
<path d="M7247 7310 c3 -36 7 -67 9 -69 7 -8 2 73 -6 104 -5 19 -6 6 -3 -35z"/>
<path d="M4905 7341 c-10 -9 8 -21 31 -21 13 0 33 -6 44 -12 17 -11 22 -10 29
1 17 27 1 40 -50 38 -28 -1 -52 -4 -54 -6z"/>
<path d="M6564 7335 c-7 -18 3 -35 21 -35 21 0 28 19 15 35 -16 19 -29 19 -36
0z"/>
<path d="M8555 7331 c-6 -11 9 -23 19 -14 9 9 7 23 -3 23 -6 0 -12 -4 -16 -9z"/>
<path d="M9822 7323 c5 -26 38 -29 38 -4 0 15 -6 21 -21 21 -14 0 -19 -5 -17
-17z"/>
<path d="M8240 7310 c0 -5 5 -10 10 -10 6 0 10 5 10 10 0 6 -4 10 -10 10 -5 0
-10 -4 -10 -10z"/>
<path d="M9050 7309 c0 -5 5 -7 10 -4 6 3 10 8 10 11 0 2 -4 4 -10 4 -5 0 -10
-5 -10 -11z"/>
<path d="M9929 7289 l-24 -20 28 17 c15 9 27 18 27 20 0 8 -8 4 -31 -17z"/>
<path d="M4540 7284 c-11 -12 -10 -18 3 -32 16 -15 18 -15 33 0 19 18 12 48
-9 48 -8 0 -20 -7 -27 -16z"/>
<path d="M8660 7280 c8 -5 20 -10 25 -10 6 0 3 5 -5 10 -8 5 -19 10 -25 10 -5
0 -3 -5 5 -10z"/>
<path d="M9368 7253 c7 -3 16 -2 19 1 4 3 -2 6 -13 5 -11 0 -14 -3 -6 -6z"/>
<path d="M8737 7239 c7 -7 15 -10 18 -7 3 3 -2 9 -12 12 -14 6 -15 5 -6 -5z"/>
<path d="M9856 7235 c-3 -8 -1 -15 4 -15 13 0 22 18 11 24 -5 3 -11 -1 -15 -9z"/>
<path d="M9238 7223 c7 -3 16 -2 19 1 4 3 -2 6 -13 5 -11 0 -14 -3 -6 -6z"/>
<path d="M9158 7213 c7 -3 16 -2 19 1 4 3 -2 6 -13 5 -11 0 -14 -3 -6 -6z"/>
<path d="M10526 7211 c-4 -5 11 -20 31 -32 21 -13 41 -28 45 -33 4 -6 10 -7
14 -3 9 8 -18 31 -58 49 -15 7 -24 16 -22 20 3 4 3 8 0 8 -3 0 -7 -4 -10 -9z"/>
<path d="M9050 7194 c0 -9 5 -14 12 -12 18 6 21 28 4 28 -9 0 -16 -7 -16 -16z"/>
<path d="M9098 7203 c7 -3 16 -2 19 1 4 3 -2 6 -13 5 -11 0 -14 -3 -6 -6z"/>
<path d="M7269 7158 c4 -28 6 -29 9 -9 2 13 0 27 -5 32 -6 6 -7 -3 -4 -23z"/>
<path d="M9786 7175 c-11 -8 -15 -15 -9 -15 6 0 16 7 23 15 16 19 11 19 -14 0z"/>
<path d="M8469 7143 c-13 -16 -12 -17 4 -4 9 7 17 15 17 17 0 8 -8 3 -21 -13z"/>
<path d="M10105 7129 c-4 -6 -5 -12 -2 -15 2 -3 7 2 10 11 7 17 1 20 -8 4z"/>
<path d="M7287 7079 c3 -24 7 -46 9 -48 9 -10 3 65 -5 78 -6 10 -8 -1 -4 -30z"/>
<path d="M3216 7074 c-8 -21 1 -34 24 -34 19 0 30 17 23 38 -7 17 -40 15 -47
-4z"/>
<path d="M10065 7079 c-4 -6 -5 -12 -2 -15 2 -3 7 2 10 11 7 17 1 20 -8 4z"/>
<path d="M3140 7036 c-14 -8 -29 -12 -34 -9 -5 4 -6 1 -2 -5 5 -8 19 -7 49 5
51 20 56 23 31 23 -10 -1 -30 -7 -44 -14z"/>
<path d="M3035 7004 c-26 -13 -27 -14 -5 -10 14 3 31 6 38 6 6 0 12 5 12 10 0
13 -8 12 -45 -6z"/>
<path d="M9268 7013 c17 -2 47 -2 65 0 17 2 3 4 -33 4 -36 0 -50 -2 -32 -4z"/>
<path d="M9404 7009 c-3 -5 6 -9 20 -9 31 0 34 6 6 13 -11 3 -23 1 -26 -4z"/>
<path d="M9565 7006 c-17 -12 -15 -14 30 -13 28 0 115 -3 195 -7 80 -5 142 -5
138 -1 -3 3 -75 10 -160 14 -84 4 -160 11 -168 14 -9 4 -24 1 -35 -7z"/>
<path d="M800 6994 c-11 -12 -10 -18 3 -32 16 -15 18 -15 34 0 13 14 14 20 3
32 -7 9 -16 16 -20 16 -4 0 -13 -7 -20 -16z"/>
<path d="M9940 6992 c0 -14 11 -21 26 -15 8 3 11 9 8 14 -7 11 -34 12 -34 1z"/>
<path d="M2975 6980 c-3 -5 -2 -10 4 -10 5 0 13 5 16 10 3 6 2 10 -4 10 -5 0
-13 -4 -16 -10z"/>
<path d="M2923 6967 c-17 -7 -35 -16 -40 -21 -5 -5 0 -6 10 -3 11 4 30 10 43
13 13 3 24 10 24 15 0 5 -1 9 -2 8 -2 0 -17 -6 -35 -12z"/>
<path d="M9954 6956 c-9 -24 4 -48 23 -44 12 2 18 12 18 28 0 29 -32 41 -41
16z"/>
<path d="M2830 6935 c-16 -9 -19 -14 -9 -15 8 0 24 7 35 15 24 18 7 19 -26 0z"/>
<path d="M2760 6911 c0 -5 9 -7 20 -4 11 3 20 7 20 9 0 2 -9 4 -20 4 -11 0
-20 -4 -20 -9z"/>
<path d="M2715 6902 c-3 -4 -30 -15 -58 -24 -30 -10 -39 -16 -22 -14 17 3 44
10 60 17 17 7 36 11 43 10 16 -3 15 6 -2 12 -8 3 -17 3 -21 -1z"/>
<path d="M7040 6889 c-139 -36 -109 -35 50 0 47 11 72 19 55 19 -16 0 -64 -8
-105 -19z"/>
<path d="M9250 6669 c-96 -127 -197 -260 -225 -296 -27 -35 -56 -74 -62 -86
-7 -12 -13 -18 -13 -13 0 4 -11 1 -24 -7 -14 -10 -67 -20 -132 -27 -60 -6
-135 -15 -167 -21 -31 -5 -61 -7 -66 -4 -6 3 -12 1 -16 -5 -8 -13 10 -12 205
9 109 13 169 16 177 9 16 -13 32 -2 43 28 5 13 65 96 132 185 68 89 143 189
168 224 25 34 57 76 73 94 15 18 27 36 27 39 0 4 16 25 35 46 34 39 43 56 27
56 -4 0 -86 -104 -182 -231z"/>
<path d="M6510 6880 c0 -5 5 -10 10 -10 6 0 10 5 10 10 0 6 -4 10 -10 10 -5 0
-10 -4 -10 -10z"/>
<path d="M9971 6656 c0 -119 4 -214 7 -211 8 7 3 417 -4 425 -3 2 -4 -94 -3
-214z"/>
<path d="M2575 6850 c-3 -6 1 -7 9 -4 18 7 21 14 7 14 -6 0 -13 -4 -16 -10z"/>
<path d="M6877 6853 c-4 -3 -24 -10 -44 -14 l-38 -8 35 4 c19 2 51 8 70 13 31
9 32 10 9 11 -14 1 -29 -2 -32 -6z"/>
<path d="M2538 6833 c7 -3 16 -2 19 1 4 3 -2 6 -13 5 -11 0 -14 -3 -6 -6z"/>
<path d="M9474 6768 c-1 -47 2 -64 7 -48 10 35 11 120 1 120 -5 0 -8 -33 -8
-72z"/>
<path d="M2411 6821 c-9 -6 -11 -19 -7 -38 5 -21 2 -34 -9 -43 -18 -15 -19
-34 -2 -48 20 -17 38 1 35 34 -3 42 35 94 70 95 25 2 26 2 3 6 -13 3 -28 0
-34 -6 -6 -6 -16 -7 -27 -1 -9 5 -22 5 -29 1z"/>
<path d="M6740 6820 c-20 -6 -21 -8 -5 -8 11 0 29 3 40 8 25 11 -1 11 -35 0z"/>
<path d="M6668 6793 c7 -3 16 -2 19 1 4 3 -2 6 -13 5 -11 0 -14 -3 -6 -6z"/>
<path d="M7303 6784 c-3 -8 -1 -20 6 -27 14 -14 47 15 37 32 -10 16 -36 13
-43 -5z"/>
<path d="M6608 6783 c7 -3 16 -2 19 1 4 3 -2 6 -13 5 -11 0 -14 -3 -6 -6z"/>
<path d="M3501 6771 c-17 -11 -7 -41 13 -41 22 0 30 20 15 36 -9 8 -19 10 -28
5z"/>
<path d="M9700 6760 c0 -13 7 -20 20 -20 13 0 20 7 20 20 0 13 -7 20 -20 20
-13 0 -20 -7 -20 -20z"/>
<path d="M6500 6760 c0 -5 7 -10 15 -10 8 0 15 5 15 10 0 6 -7 10 -15 10 -8 0
-15 -4 -15 -10z"/>
<path d="M6415 6743 c-33 -8 -66 -15 -72 -15 -7 -1 -13 -5 -13 -8 0 -10 49 -9
55 1 3 4 26 11 50 15 25 3 48 10 51 15 6 11 7 11 -71 -8z"/>
<path d="M9534 6695 c-8 -21 2 -45 19 -45 20 0 40 27 33 45 -7 19 -45 20 -52
0z"/>
<path d="M8223 6684 c-3 -8 -1 -20 6 -27 14 -14 47 15 37 32 -10 16 -36 13
-43 -5z"/>
<path d="M9466 6629 c-3 -17 -5 -64 -5 -103 2 -70 2 -69 10 29 8 101 7 130 -5
74z"/>
<path d="M777 6633 c-14 -13 -7 -43 12 -53 15 -7 23 -6 35 6 19 19 20 26 4 42
-13 13 -41 16 -51 5z"/>
<path d="M5567 6615 c-9 -8 -14 -22 -11 -30 7 -17 -123 -386 -141 -400 -7 -5
-16 -25 -20 -43 -6 -27 -3 -33 17 -41 13 -6 19 -10 15 -10 -4 -1 21 -56 55
-123 35 -68 63 -128 63 -135 0 -18 22 -36 34 -29 15 10 14 36 -3 42 -7 3 -37
51 -66 107 -30 56 -57 104 -60 107 -4 3 -11 19 -14 36 -5 22 -2 35 9 44 8 7
13 21 10 30 -7 23 120 381 141 397 17 13 16 54 -2 60 -7 2 -19 -3 -27 -12z"/>
<path d="M5045 6570 c-8 -13 13 -40 30 -40 15 0 28 27 19 41 -7 12 -41 11 -49
-1z"/>
<path d="M6286 6540 c-5 -19 -16 -40 -24 -46 -18 -13 -9 -44 13 -44 21 0 27
19 23 76 l-3 49 -9 -35z"/>
<path d="M3810 6534 c-11 -12 -10 -18 3 -32 16 -15 18 -15 34 0 13 14 14 20 3
32 -7 9 -16 16 -20 16 -4 0 -13 -7 -20 -16z"/>
<path d="M687 6463 c-13 -12 -7 -41 10 -47 9 -4 23 0 31 8 13 12 13 18 2 30
-13 17 -32 21 -43 9z"/>
<path d="M9456 6388 c-3 -13 -5 -32 -5 -43 1 -11 5 -2 10 19 10 42 6 62 -5 24z"/>
<path d="M6667 6293 c-4 -3 -7 -16 -7 -27 0 -12 -11 -38 -25 -58 -13 -20 -26
-42 -27 -49 -2 -8 -9 -20 -16 -28 -23 -25 -152 -221 -145 -221 4 0 -1 -6 -10
-12 -9 -7 -28 -37 -42 -65 -16 -33 -33 -53 -43 -53 -18 0 -62 -41 -62 -58 0
-21 23 -24 55 -6 31 16 42 17 127 5 158 -21 421 -59 456 -66 19 -3 32 -1 32 5
0 5 -2 10 -5 10 -2 0 -73 11 -157 24 -84 13 -196 30 -248 36 -52 6 -102 14
-110 17 -14 6 100 25 215 37 28 3 138 18 245 32 255 35 280 37 294 25 9 -8 18
-7 31 3 22 16 14 46 -14 46 -11 0 -32 11 -48 23 -15 13 -122 97 -238 186 -115
89 -213 171 -217 182 -7 19 -28 25 -41 12z m200 -180 c90 -71 190 -147 221
-171 31 -24 66 -52 77 -63 19 -19 19 -19 -5 -18 -14 1 -131 -13 -260 -31 -129
-17 -246 -33 -260 -34 -34 -4 -128 -16 -165 -22 -64 -11 -89 -13 -97 -8 -5 3
7 28 27 55 20 28 33 55 29 61 -4 7 -3 8 4 4 11 -7 17 6 13 27 -1 5 2 6 7 3 4
-2 17 12 28 32 10 20 25 43 32 52 30 34 100 149 95 154 -4 3 -1 6 5 6 12 0 48
59 44 73 -1 4 7 7 19 7 11 0 95 -57 186 -127z"/>
<path d="M9452 6275 c0 -16 2 -22 5 -12 2 9 2 23 0 30 -3 6 -5 -1 -5 -18z"/>
<path d="M4904 6226 c-10 -26 4 -48 28 -44 17 2 23 10 23 28 0 18 -6 26 -23
28 -13 2 -25 -3 -28 -12z"/>
<path d="M9452 6200 c0 -14 2 -19 5 -12 2 6 2 18 0 25 -3 6 -5 1 -5 -13z"/>
<path d="M8484 6195 c-3 -8 -3 -19 1 -26 11 -17 5 -332 -6 -346 -7 -7 -7 -18
-1 -30 5 -11 6 -115 1 -263 -4 -135 -8 -257 -8 -272 -1 -27 -2 -27 -57 -25
-30 2 -57 0 -60 -5 -5 -7 26 -13 49 -9 4 1 12 -11 17 -25 9 -21 15 -25 35 -20
14 4 25 3 25 -1 0 -5 4 -25 9 -45 l9 -38 -30 18 c-17 9 -50 34 -74 55 -42 37
-64 41 -64 11 0 -8 11 -19 26 -24 14 -6 45 -25 69 -42 23 -18 55 -42 69 -52
16 -12 32 -38 41 -69 16 -53 12 -72 -12 -63 -8 3 -12 2 -8 -3 8 -13 -50 -52
-67 -46 -19 8 -40 -18 -32 -39 8 -22 45 -20 51 3 2 10 17 25 31 32 15 7 34 19
43 26 14 12 16 7 17 -37 0 -27 -3 -50 -9 -50 -5 0 -9 5 -9 12 0 9 -3 9 -11 1
-8 -8 -8 -17 0 -31 6 -12 8 -40 5 -66 -5 -37 -15 -53 -46 -82 -21 -19 -50 -39
-64 -44 -27 -11 -32 -37 -9 -47 11 -3 28 9 51 36 20 22 41 41 47 41 7 -1 -1
-12 -18 -26 -19 -17 -23 -24 -11 -20 17 6 18 3 11 -31 -5 -21 -9 -69 -10 -108
-2 -65 -25 -152 -37 -140 -3 3 -11 -23 -18 -57 -27 -139 -45 -193 -62 -192
-10 1 -16 -3 -15 -9 2 -9 -52 -27 -127 -41 -35 -7 -36 -6 -36 24 0 17 6 39 13
51 10 17 9 22 -3 32 -24 18 -38 107 -23 137 16 31 17 110 2 110 -7 0 -10 -15
-7 -40 3 -33 1 -40 -15 -40 -20 0 -35 -29 -20 -39 6 -3 14 -40 17 -81 4 -41 9
-97 12 -124 l6 -49 -35 6 c-24 4 -39 1 -47 -8 -13 -16 -5 -35 15 -35 9 0 11
-7 7 -22 -4 -17 -2 -20 12 -15 10 4 22 7 27 7 15 0 10 28 -7 38 -14 8 -12 10
8 14 24 4 26 2 27 -41 0 -25 5 -69 9 -98 5 -29 5 -56 0 -61 -13 -13 2 -43 21
-40 17 4 18 16 5 108 -4 30 -8 75 -8 99 -1 42 1 44 29 48 17 1 55 8 87 14 31
6 61 8 66 5 13 -8 26 12 28 39 2 26 71 285 89 333 7 20 24 73 36 117 13 44 29
85 37 91 12 8 12 15 3 32 -22 42 -1 77 93 156 57 48 102 78 128 84 45 12 40
16 218 -153 223 -210 296 -282 305 -300 14 -27 49 -26 53 2 2 15 -4 23 -20 28
-25 8 -50 30 -263 231 -77 72 -155 144 -172 159 -18 15 -33 30 -33 34 0 4 116
11 258 14 l257 6 50 -24 c28 -13 69 -38 92 -55 l43 -31 -22 -30 c-12 -16 -28
-29 -35 -29 -16 0 -17 -32 -1 -48 8 -8 15 -9 25 0 8 6 46 10 96 9 79 -2 84 -4
135 -43 30 -22 56 -38 58 -35 3 3 19 -8 36 -24 17 -15 35 -26 40 -23 4 3 11
-2 14 -10 3 -9 10 -13 15 -10 5 3 9 1 9 -4 0 -13 62 -52 72 -46 5 3 -3 15 -17
25 -13 11 -30 17 -36 13 -7 -4 -9 -3 -6 3 4 6 -17 25 -46 44 -47 30 -134 93
-147 106 -6 7 307 -6 337 -13 32 -8 45 3 32 27 -6 13 -17 18 -26 15 -27 -11
-91 15 -97 38 -3 11 -21 97 -41 190 -47 225 -47 225 107 131 139 -84 341 -208
347 -212 3 -2 -24 -32 -59 -68 l-64 -64 -23 25 c-23 25 -43 25 -43 -2 0 -7
-39 -61 -87 -118 l-88 -104 -15 63 c-26 112 -40 94 -16 -20 13 -56 12 -61 -7
-82 l-20 -23 -35 20 c-18 11 -41 19 -50 18 -10 -2 -16 3 -14 10 1 8 -2 11 -7
8 -6 -4 -3 -18 5 -35 12 -23 21 -29 45 -29 16 1 32 -2 36 -5 8 -8 -39 -69 -99
-130 -27 -26 -48 -52 -48 -56 0 -4 -34 -43 -76 -86 l-77 -79 28 -22 c15 -12
24 -27 21 -33 -5 -7 -1 -9 8 -5 9 3 16 2 16 -4 0 -5 -9 -12 -20 -15 -27 -7
-25 -35 3 -46 12 -5 32 -22 43 -38 12 -16 53 -65 90 -109 129 -150 149 -176
167 -210 14 -25 26 -34 45 -35 15 0 45 -8 66 -18 l40 -17 -95 -12 c-51 -6
-104 -9 -116 -6 -16 4 -23 2 -23 -8 0 -7 -43 -52 -96 -98 -54 -47 -106 -93
-118 -103 -12 -11 -46 -40 -75 -65 -30 -26 -71 -61 -90 -78 -20 -17 -44 -34
-54 -37 -10 -4 -17 -13 -15 -20 6 -17 48 -22 48 -5 0 7 55 60 122 118 67 58
158 137 202 175 45 39 92 76 106 82 14 7 77 19 140 28 113 15 115 15 143 -6
23 -17 31 -18 43 -8 8 7 13 18 10 26 -3 7 0 13 7 13 7 0 44 5 82 11 39 5 89
10 112 10 26 1 43 6 47 15 8 21 -9 26 -51 15 -39 -9 -83 -16 -183 -26 l-55 -6
-25 48 c-34 63 -112 200 -166 291 -24 40 -44 75 -44 77 0 2 -22 42 -50 89 -27
47 -50 89 -50 94 0 5 7 15 15 22 8 7 12 17 8 23 -3 5 -2 7 4 4 12 -8 56 37 46
47 -4 4 -1 5 7 2 9 -3 40 20 80 60 73 73 60 71 198 27 45 -15 82 -30 82 -35 0
-4 9 -8 21 -8 15 0 20 5 17 23 -2 14 -10 22 -23 22 -24 0 -185 56 -185 64 1
20 168 167 195 172 28 6 28 53 0 57 -11 2 -36 16 -55 33 l-35 29 78 75 c74 72
89 94 67 96 -5 1 -14 2 -19 3 -9 1 -304 176 -408 243 -29 19 -53 37 -53 41 0
5 13 21 28 38 15 16 62 70 104 119 159 187 153 181 175 165 75 -55 112 -87
113 -96 0 -6 6 -17 14 -23 16 -14 41 11 33 32 -3 7 4 24 14 38 10 13 19 29 19
35 0 7 7 14 15 18 16 6 21 26 6 26 -6 0 -22 -22 -38 -50 -15 -27 -31 -50 -34
-50 -4 0 -32 32 -63 71 l-57 71 17 46 c10 26 24 55 32 64 15 17 10 48 -6 48
-15 0 -34 -28 -28 -39 4 -5 2 -12 -4 -16 -5 -3 -10 -14 -10 -24 0 -9 -7 -26
-16 -37 -15 -19 -15 -19 -11 2 3 13 0 21 -8 20 -11 -1 -101 103 -93 108 1 1
21 16 43 31 22 16 48 36 57 45 35 31 48 41 48 34 0 -3 7 -1 15 6 8 7 12 16 9
21 -5 8 -65 -28 -72 -43 -2 -5 -10 -8 -18 -8 -8 0 -14 -7 -14 -15 0 -8 -5 -15
-12 -15 -7 0 -24 -11 -39 -26 l-26 -25 -88 113 c-90 115 -108 148 -84 149 8 0
4 4 -8 9 -13 5 -23 16 -23 25 0 25 -15 17 -27 -16 -11 -28 -9 -33 26 -69 21
-21 38 -45 38 -53 0 -25 25 -77 34 -72 4 3 -1 21 -12 40 -12 19 -18 35 -15 35
5 0 40 -45 203 -258 23 -31 39 -60 36 -65 -3 -6 -1 -7 5 -3 6 3 13 2 16 -3 4
-5 2 -12 -4 -16 -14 -9 -97 51 -105 75 -3 11 -12 20 -20 20 -21 0 -28 33 -10
46 18 13 5 27 -17 19 -8 -3 -22 15 -39 52 -14 31 -28 52 -32 47 -3 -5 5 -32
19 -59 13 -28 24 -55 24 -61 0 -6 7 -17 15 -24 9 -7 15 -20 14 -29 -3 -31 1
-41 17 -41 9 0 35 -16 59 -36 24 -20 49 -33 55 -29 18 11 11 -4 -21 -39 -18
-21 -27 -40 -23 -47 4 -7 3 -9 -3 -6 -6 4 -48 -37 -95 -91 -47 -53 -101 -115
-121 -137 l-36 -40 -24 23 c-24 23 -25 23 -43 4 -17 -17 -111 -73 -319 -190
-44 -25 -93 -54 -109 -65 -32 -23 -167 -34 -453 -38 l-165 -2 -58 57 c-32 32
-60 68 -63 79 -3 12 -19 69 -37 127 -116 387 -178 623 -168 639 6 10 29 27 52
38 53 27 257 123 261 123 2 0 56 25 120 55 65 30 125 55 135 55 27 0 35 19 17
38 -12 12 -19 13 -30 4 -8 -7 -16 -10 -18 -8 -2 2 -121 23 -264 46 -163 27
-264 48 -271 56 -15 18 -43 18 -50 -1z m227 -64 c96 -16 211 -35 257 -41 46
-7 80 -16 75 -19 -4 -4 -71 -36 -148 -71 -77 -35 -162 -74 -189 -87 -58 -27
-66 -28 -66 -9 0 20 -30 29 -36 11 -4 -9 -1 -21 5 -29 11 -13 8 -16 -87 -53
-9 -4 -11 4 -8 28 3 19 5 94 5 167 1 72 5 132 10 132 5 0 87 -13 182 -29z
m-145 -596 c25 -88 49 -173 54 -190 4 -16 26 -91 48 -165 29 -97 37 -137 29
-142 -7 -4 -36 16 -72 51 -33 32 -73 71 -90 86 l-30 27 -3 155 c-3 149 -3 155
17 160 24 6 28 38 6 47 -12 4 -15 22 -14 78 0 40 2 69 5 63 2 -5 24 -82 50
-170z m1799 -73 c-2 -2 -15 5 -29 16 -14 10 -22 22 -19 26 4 3 17 -4 30 -16
12 -12 21 -23 18 -26z m-275 -196 c0 -2 -8 -10 -17 -17 -16 -13 -17 -12 -4 4
13 16 21 21 21 13z m-1423 -261 c-7 -21 -37 -15 -81 17 -34 24 -49 42 -57 71
-5 21 -13 46 -17 55 -3 9 31 -17 76 -58 45 -41 80 -79 79 -85z m1253 116 c0
-21 -16 -46 -57 -92 -31 -35 -63 -69 -71 -75 -16 -12 -10 -44 8 -44 6 0 13 8
17 18 7 18 104 140 113 141 5 1 33 -120 47 -199 1 -9 9 -44 17 -80 8 -35 14
-65 12 -67 -5 -6 -351 100 -357 109 -12 18 -44 3 -43 -20 0 -12 -2 -22 -6 -22
-3 0 -33 20 -67 44 -34 25 -64 42 -67 39 -3 -4 -6 -1 -6 5 0 6 24 25 53 42
130 79 393 229 400 230 4 0 7 -13 7 -29z m-1330 -131 c21 -17 23 -21 10 -30
-22 -14 -25 -13 -37 20 -13 35 -7 37 27 10z m128 -34 c11 -22 19 -26 37 -22
17 4 30 0 45 -16 64 -69 -29 -36 -140 49 -7 6 24 23 35 20 6 -2 16 -16 23 -31z
m-22 -43 c29 -21 54 -40 53 -43 0 -3 -23 -24 -52 -48 -29 -23 -65 -53 -81 -67
-16 -14 -31 -25 -33 -25 -6 0 9 114 17 125 12 17 20 46 11 41 -9 -6 -38 21
-30 28 10 8 45 25 52 26 5 0 33 -17 63 -37z m1161 -174 c84 -24 153 -46 153
-49 0 -3 -55 -4 -122 -2 -120 2 -174 14 -161 35 4 6 0 8 -10 4 -11 -4 -14 -2
-11 7 3 8 -5 21 -18 30 -31 22 -41 20 -21 -3 9 -11 20 -18 25 -15 4 3 5 -2 2
-10 -5 -13 -12 -11 -40 12 -19 15 -34 31 -34 36 0 15 83 -1 237 -45z m-167
-42 c0 -4 -27 -6 -60 -5 -33 2 -60 4 -60 6 0 2 7 16 15 32 l15 29 45 -27 c24
-15 45 -31 45 -35z m602 -4 c2 -5 -46 -57 -106 -118 -116 -117 -128 -121 -37
-15 108 128 135 152 143 133z m79 -70 c26 -29 33 -58 13 -58 -6 0 -35 -22 -65
-49 -30 -27 -48 -46 -40 -41 10 5 12 4 7 -4 -4 -6 -11 -9 -15 -7 -4 3 -21 -8
-36 -24 -34 -36 -36 -36 -92 -9 l-44 21 68 69 c61 62 96 88 77 57 -4 -7 -3 -8
5 -4 6 4 9 11 7 15 -3 4 9 24 25 44 34 41 45 40 90 -10z m-1844 -85 c-3 -8 -6
-5 -6 6 -1 11 2 17 5 13 3 -3 4 -12 1 -19z m-12 -45 c-3 -16 -11 -32 -16 -37
-5 -6 -4 5 1 25 6 18 10 35 10 36 0 2 3 3 6 3 3 0 3 -12 -1 -27z m1503 -105
c-13 -18 -44 -59 -67 -90 -24 -32 -45 -58 -47 -58 -12 0 24 61 69 115 54 66
88 90 45 33z m107 6 c46 -10 47 -13 15 -41 -17 -14 -27 -30 -23 -36 3 -7 2 -9
-2 -4 -11 10 -46 -23 -38 -36 3 -6 1 -7 -5 -3 -7 4 -36 -16 -69 -48 -32 -31
-61 -56 -64 -56 -4 0 -9 9 -12 20 -3 14 15 46 60 107 36 49 67 94 70 101 3 7
13 10 22 8 9 -3 30 -8 46 -12z m-270 -220 c-14 -19 -30 -32 -35 -29 -4 3 -11
-7 -15 -22 -4 -16 -2 -29 5 -33 7 -4 10 -18 8 -31 -2 -17 1 -23 12 -22 10 2
16 -5 16 -17 0 -11 -2 -20 -4 -20 -7 0 -82 84 -82 93 0 16 114 140 118 128 2
-7 -8 -27 -23 -47z m45 -22 c0 -21 -56 -79 -67 -69 -3 4 -1 7 5 7 6 0 14 9 17
20 4 11 11 18 16 14 6 -3 10 0 8 7 -3 25 1 39 11 39 6 0 10 -8 10 -18z m98
-124 c149 -256 243 -421 239 -424 -1 -2 -49 43 -105 100 l-102 103 -31 99
c-17 54 -35 113 -39 129 -4 17 -13 43 -19 58 -12 30 -13 37 -7 37 2 0 31 -46
64 -102z m-48 -33 c18 -60 37 -118 42 -127 18 -35 -9 -17 -69 47 -34 36 -61
73 -61 83 1 9 -2 27 -6 39 -5 17 -1 26 23 44 17 12 27 27 24 33 -4 7 -3 8 4 1
5 -5 24 -59 43 -120z m-117 -63 l38 -57 -45 50 c-25 27 -46 53 -46 57 0 20 18
3 53 -50z m192 -184 c7 -25 18 -56 25 -67 25 -47 -3 -15 -74 87 -41 59 -89
127 -107 152 -26 36 -15 28 55 -40 69 -68 90 -95 101 -132z m130 -98 c55 -55
96 -100 91 -100 -5 0 -36 10 -68 22 -61 22 -108 67 -108 102 0 9 -7 30 -15 46
-9 17 -12 30 -8 30 5 0 53 -45 108 -100z"/>
<path d="M8687 6098 c-19 -15 -13 -58 8 -58 41 0 59 32 33 58 -15 15 -20 15
-41 0z"/>
<path d="M9786 4081 c-4 -5 -2 -12 3 -15 5 -4 12 -2 15 3 4 5 2 12 -3 15 -5 4
-12 2 -15 -3z"/>
<path d="M4676 6184 c-16 -15 -16 -18 -2 -33 15 -14 18 -14 33 2 16 15 16 18
2 33 -15 14 -18 14 -33 -2z"/>
<path d="M4555 6068 c-54 -46 -117 -99 -140 -118 -167 -136 -270 -224 -273
-231 -2 -5 -15 -9 -29 -9 -20 0 -24 -4 -21 -22 4 -32 36 -35 47 -6 9 23 42 53
182 166 41 33 86 71 101 84 14 12 76 64 137 113 60 50 110 93 110 98 2 17 -22
2 -114 -75z"/>
<path d="M6483 6138 c-6 -7 -12 -18 -14 -24 -2 -7 -51 -62 -109 -124 -58 -62
-107 -116 -110 -120 -3 -4 -16 -7 -30 -6 -21 1 -25 -3 -22 -23 3 -28 -13 -50
-46 -62 -15 -6 -22 -16 -20 -26 5 -26 37 -28 46 -3 4 11 63 79 131 151 68 71
132 141 143 155 12 14 31 30 44 34 27 11 31 32 10 49 -10 8 -16 8 -23 -1z"/>
<path d="M4967 6124 c-13 -14 -7 -43 12 -53 23 -13 45 8 39 36 -3 18 -38 30
-51 17z"/>
<path d="M4807 6087 c-8 -21 8 -39 29 -35 27 5 25 42 -2 46 -12 2 -24 -3 -27
-11z"/>
<path d="M6265 6080 c-8 -14 3 -30 21 -30 8 0 14 9 14 20 0 21 -24 28 -35 10z"/>
<path d="M10270 6077 c0 -17 -172 -61 -200 -52 -15 5 -18 3 -14 -9 7 -19 33
-29 48 -17 6 4 29 12 51 15 22 4 59 16 82 26 l42 18 23 -36 c13 -21 32 -54 43
-74 11 -21 23 -38 28 -38 4 0 5 -4 2 -10 -3 -5 -1 -10 4 -10 18 0 13 28 -6 39
-10 6 -15 11 -11 11 4 0 -7 26 -23 58 -33 65 -34 69 -16 75 6 2 4 3 -5 2 -10
-2 -21 1 -24 6 -8 14 -24 11 -24 -4z"/>
<path d="M9148 6073 c7 -3 16 -2 19 1 4 3 -2 6 -13 5 -11 0 -14 -3 -6 -6z"/>
<path d="M9970 6055 c0 -8 5 -15 10 -15 6 0 10 7 10 15 0 8 -4 15 -10 15 -5 0
-10 -7 -10 -15z"/>
<path d="M9348 6053 c7 -3 16 -2 19 1 4 3 -2 6 -13 5 -11 0 -14 -3 -6 -6z"/>
<path d="M9432 6019 c-1 -37 20 -34 25 4 2 18 -1 27 -10 27 -9 0 -14 -12 -15
-31z"/>
<path d="M605 6030 c-4 -7 -3 -16 3 -22 14 -14 45 -2 40 15 -6 16 -34 21 -43
7z"/>
<path d="M6320 6035 c0 -5 5 -17 10 -25 5 -8 10 -10 10 -5 0 6 -5 17 -10 25
-5 8 -10 11 -10 5z"/>
<path d="M9703 5998 c7 -4 46 -7 87 -7 63 1 70 2 40 10 -42 10 -144 8 -127 -3z"/>
<path d="M9420 5955 c-17 -32 -6 -57 22 -53 30 4 35 35 10 58 -19 18 -20 18
-32 -5z"/>
<path d="M8413 5879 c-16 -16 -5 -39 19 -39 14 0 19 6 16 22 -4 25 -19 33 -35
17z"/>
<path d="M4827 5874 c-14 -14 -7 -35 11 -32 9 2 17 10 17 17 0 16 -18 25 -28
15z"/>
<path d="M8676 5853 c-3 -3 -3 -10 0 -14 7 -12 34 -11 34 0 0 11 -26 22 -34
14z"/>
<path d="M4073 5833 c-16 -6 -17 -29 -3 -38 15 -9 40 14 33 31 -5 15 -10 16
-30 7z"/>
<path d="M8437 5817 c-3 -9 1 -18 9 -21 16 -6 18 2 5 22 -7 11 -9 11 -14 -1z"/>
<path d="M8450 5761 c0 -6 5 -13 10 -16 6 -3 10 1 10 9 0 9 -4 16 -10 16 -5 0
-10 -4 -10 -9z"/>
<path d="M10330 5744 c0 -8 5 -12 10 -9 6 4 8 11 5 16 -9 14 -15 11 -15 -7z"/>
<path d="M6220 5740 c0 -5 12 -10 28 -10 21 0 24 2 12 10 -20 13 -40 13 -40 0z"/>
<path d="M5650 5691 c0 -6 4 -13 10 -16 6 -3 7 1 4 9 -7 18 -14 21 -14 7z"/>
<path d="M7297 5693 c-4 -3 -7 -15 -7 -25 0 -25 -88 -198 -100 -198 -16 0 -11
-40 5 -47 20 -7 27 0 30 29 4 30 84 190 103 204 9 6 13 18 9 28 -6 16 -28 22
-40 9z"/>
<path d="M6975 5670 c-3 -5 -3 -14 0 -20 5 -9 -43 -78 -220 -314 -38 -51 -110
-150 -160 -219 -49 -70 -95 -127 -101 -127 -6 0 -17 -7 -24 -15 -10 -12 -10
-18 1 -31 18 -22 48 -366 34 -388 -7 -11 -5 -20 8 -33 16 -16 18 -16 33 -1 13
12 14 20 4 37 -14 28 -42 345 -34 394 5 33 8 36 18 21 17 -22 50 -14 54 14 2
15 -3 25 -16 30 -18 6 2 37 174 272 107 146 214 287 239 314 26 27 44 55 41
62 -6 16 -42 19 -51 4z"/>
<path d="M7483 5653 c-7 -3 -13 -16 -13 -30 0 -15 -3 -24 -6 -20 -3 3 -18 -9
-34 -26 -38 -43 -30 -47 12 -7 18 17 43 35 56 40 12 5 22 14 22 19 0 14 -24
29 -37 24z"/>
<path d="M10063 5635 c-15 -13 -22 -25 -15 -25 6 0 12 4 12 8 0 5 12 13 28 18
17 6 23 12 15 17 -6 4 -24 -3 -40 -18z"/>
<path d="M8950 5611 c0 -11 29 -35 35 -29 2 2 -4 12 -15 21 -11 9 -20 13 -20
8z"/>
<path d="M10020 5601 c0 -6 -11 -16 -25 -21 -14 -5 -25 -15 -24 -22 0 -10 2
-10 6 0 2 6 10 12 18 12 16 0 40 28 31 37 -3 3 -6 1 -6 -6z"/>
<path d="M9940 5539 c0 -5 -4 -8 -9 -5 -5 3 -14 -1 -20 -8 -10 -12 -8 -13 8
-9 24 6 50 33 32 33 -6 0 -11 -5 -11 -11z"/>
<path d="M10535 5539 c-4 -6 -3 -15 3 -21 6 -6 11 -4 15 6 7 18 -9 31 -18 15z"/>
<path d="M5750 5531 c0 -6 4 -13 10 -16 6 -3 7 1 4 9 -7 18 -14 21 -14 7z"/>
<path d="M7367 5509 c-15 -12 -34 -34 -43 -50 -8 -16 -19 -27 -25 -24 -5 4 -8
2 -7 -3 2 -5 -12 -21 -30 -37 -18 -15 -31 -30 -28 -32 7 -7 21 -4 21 5 0 4 22
27 48 52 25 25 47 49 47 55 0 5 12 19 28 32 34 28 26 29 -11 2z"/>
<path d="M1529 5498 c-10 -18 -8 -24 7 -35 21 -15 34 -13 48 9 7 12 6 21 -3
32 -19 22 -38 20 -52 -6z"/>
<path d="M10560 5511 c0 -6 4 -13 10 -16 6 -3 7 1 4 9 -7 18 -14 21 -14 7z"/>
<path d="M9852 5481 c-17 -16 -33 -26 -36 -23 -3 3 -6 0 -6 -6 0 -18 11 -14
53 17 21 16 34 32 29 35 -5 3 -23 -8 -40 -23z"/>
<path d="M5795 5461 c-3 -5 -2 -12 3 -15 5 -3 9 1 9 9 0 17 -3 19 -12 6z"/>
<path d="M9144 5439 c-10 -16 18 -40 35 -29 12 7 12 11 2 24 -16 19 -27 20
-37 5z"/>
<path d="M9760 5419 c0 -25 33 -22 38 4 2 12 -3 17 -17 17 -15 0 -21 -6 -21
-21z"/>
<path d="M7503 5404 c-8 -22 11 -37 36 -29 17 5 19 10 11 26 -13 23 -38 25
-47 3z"/>
<path d="M7972 5411 c-21 -13 -10 -46 16 -49 27 -4 40 22 22 43 -14 17 -20 18
-38 6z"/>
<path d="M6525 5391 c-14 -13 -515 -183 -545 -185 -15 0 -25 -7 -25 -16 0 -16
34 -27 44 -13 3 5 71 30 151 57 80 27 151 51 158 54 21 7 13 -15 -27 -75 -21
-32 -59 -89 -83 -128 -24 -38 -60 -94 -79 -124 -19 -30 -33 -58 -32 -62 2 -5
-14 -11 -34 -15 -33 -6 -35 -8 -15 -15 12 -5 22 -13 22 -19 0 -6 -4 -9 -9 -6
-5 3 -23 -19 -40 -49 -17 -31 -40 -63 -51 -73 -25 -21 -26 -42 -1 -42 12 0 20
9 24 28 3 15 31 62 62 105 30 42 55 79 55 82 0 2 28 49 63 103 34 54 67 105
72 114 48 77 107 158 116 158 5 0 9 7 7 16 -2 13 17 24 82 45 46 16 93 29 103
29 12 0 17 6 15 17 -4 20 -20 27 -33 14z"/>
<path d="M3724 5345 c-4 -9 -2 -21 4 -27 15 -15 44 -1 40 19 -4 23 -36 29 -44
8z"/>
<path d="M7210 5335 c-11 -13 -10 -14 4 -9 9 3 16 10 16 15 0 13 -6 11 -20 -6z"/>
<path d="M5886 5317 c3 -10 9 -15 12 -12 3 3 0 11 -7 18 -10 9 -11 8 -5 -6z"/>
<path d="M7176 5305 c-3 -8 -1 -15 4 -15 13 0 22 18 11 24 -5 3 -11 -1 -15 -9z"/>
<path d="M7131 5276 c-16 -19 -6 -36 20 -36 15 0 20 6 17 22 -4 27 -21 33 -37
14z"/>
<path d="M2253 5264 c-3 -8 -1 -20 5 -26 16 -16 42 -2 42 22 0 24 -38 28 -47
4z"/>
<path d="M8058 5133 c7 -3 16 -2 19 1 4 3 -2 6 -13 5 -11 0 -14 -3 -6 -6z"/>
<path d="M7493 5054 c-3 -8 -1 -20 6 -27 14 -14 47 15 37 32 -10 16 -36 13
-43 -5z"/>
<path d="M7658 5063 c7 -3 16 -2 19 1 4 3 -2 6 -13 5 -11 0 -14 -3 -6 -6z"/>
<path d="M3383 4993 c0 -9 4 -10 14 -2 7 6 13 12 13 14 0 1 -6 2 -13 2 -8 0
-14 -6 -14 -14z"/>
<path d="M8511 4984 c0 -11 3 -14 6 -6 3 7 2 16 -1 19 -3 4 -6 -2 -5 -13z"/>
<path d="M1192 4958 c-17 -17 -15 -35 4 -42 22 -8 22 -8 34 14 8 15 6 21 -8
29 -13 7 -22 7 -30 -1z"/>
<path d="M10612 4950 c0 -14 2 -19 5 -12 2 6 2 18 0 25 -3 6 -5 1 -5 -13z"/>
<path d="M6430 4950 c-9 -6 -10 -10 -3 -10 6 0 15 5 18 10 8 12 4 12 -15 0z"/>
<path d="M3615 4930 c-4 -7 -3 -16 3 -22 14 -14 45 -2 40 15 -6 16 -34 21 -43
7z"/>
<path d="M5384 4925 c-9 -23 3 -45 25 -45 26 0 45 32 29 48 -17 17 -48 15 -54
-3z"/>
<path d="M3296 4922 c-3 -5 1 -9 9 -9 8 0 12 4 9 9 -3 4 -7 8 -9 8 -2 0 -6 -4
-9 -8z"/>
<path d="M6138 4893 c7 -3 16 -2 19 1 4 3 -2 6 -13 5 -11 0 -14 -3 -6 -6z"/>
<path d="M5124 4875 c-4 -9 -2 -21 3 -26 14 -14 45 1 41 20 -4 22 -37 26 -44
6z"/>
<path d="M8527 4863 c-4 -3 -7 -11 -7 -17 0 -6 5 -5 12 2 6 6 9 14 7 17 -3 3
-9 2 -12 -2z"/>
<path d="M5041 4850 c-9 -5 -11 -17 -7 -35 4 -14 -3 -97 -15 -183 -11 -86 -31
-230 -43 -320 -12 -90 -19 -165 -15 -168 10 -6 9 -7 83 539 8 60 19 114 24
120 12 14 444 -6 525 -24 36 -8 52 -8 60 0 23 23 -12 32 -149 37 -228 7 -408
20 -430 32 -11 6 -26 7 -33 2z"/>
<path d="M5878 4843 c7 -3 16 -2 19 1 4 3 -2 6 -13 5 -11 0 -14 -3 -6 -6z"/>
<path d="M3195 4833 c-11 -3 -24 -9 -30 -13 -5 -4 -34 -15 -64 -25 -40 -13
-59 -15 -76 -7 -18 8 -26 8 -34 -2 -6 -7 -9 -15 -6 -18 6 -6 -183 -67 -232
-75 -38 -6 -50 -20 -34 -36 9 -9 16 -9 30 0 10 6 74 28 142 48 68 20 157 48
198 61 40 13 84 24 96 24 16 0 24 7 27 25 3 14 5 24 4 24 0 -1 -10 -4 -21 -6z"/>
<path d="M5825 4830 c-3 -5 -2 -10 4 -10 5 0 13 5 16 10 3 6 2 10 -4 10 -5 0
-13 -4 -16 -10z"/>
<path d="M8396 4811 c-4 -7 -5 -15 -2 -18 9 -9 19 4 14 18 -4 11 -6 11 -12 0z"/>
<path d="M10460 4795 c-7 -9 -11 -17 -9 -20 3 -2 10 5 17 15 14 24 10 26 -8 5z"/>
<path d="M9475 4790 c3 -5 8 -10 11 -10 2 0 4 5 4 10 0 6 -5 10 -11 10 -5 0
-7 -4 -4 -10z"/>
<path d="M10607 4775 c-4 -8 -2 -17 3 -20 6 -4 10 3 10 14 0 25 -6 27 -13 6z"/>
<path d="M9087 4744 c-14 -15 -6 -34 14 -34 14 0 19 5 17 17 -3 18 -20 27 -31
17z"/>
<path d="M9510 4730 c0 -5 5 -10 11 -10 5 0 7 5 4 10 -3 6 -8 10 -11 10 -2 0
-4 -4 -4 -10z"/>
<path d="M3028 4703 c5 -21 7 -23 10 -9 2 10 0 22 -6 28 -6 6 -7 0 -4 -19z"/>
<path d="M10448 4684 c-2 -25 0 -48 4 -50 5 -3 8 18 8 45 0 64 -7 66 -12 5z"/>
<path d="M3040 4660 c0 -5 5 -10 10 -10 6 0 10 5 10 10 0 6 -4 10 -10 10 -5 0
-10 -4 -10 -10z"/>
<path d="M5704 4645 c-4 -9 -2 -21 4 -27 16 -16 47 -5 47 17 0 26 -42 34 -51
10z"/>
<path d="M9400 4635 c-11 -13 -10 -18 3 -33 10 -11 22 -72 36 -172 11 -85 35
-252 51 -370 30 -213 37 -281 29 -310 -3 -10 5 -16 24 -18 23 -3 27 0 27 22 0
14 -4 26 -8 26 -5 0 -16 51 -25 113 -57 391 -96 687 -94 717 2 39 -20 52 -43
25z"/>
<path d="M3059 4635 c-4 -5 15 -66 42 -135 57 -148 62 -162 60 -173 -1 -5 3
-6 8 -3 5 4 -14 68 -44 145 -29 76 -55 147 -57 157 -2 11 -6 15 -9 9z"/>
<path d="M9560 4633 c5 -2 8 -9 5 -13 -3 -5 -1 -11 4 -14 5 -4 8 2 7 11 -2 9
-8 18 -15 19 -6 1 -7 0 -1 -3z"/>
<path d="M2350 4600 c0 -15 5 -20 18 -18 9 2 17 10 17 18 0 8 -8 16 -17 18
-13 2 -18 -3 -18 -18z"/>
<path d="M8370 4580 c0 -5 5 -10 10 -10 6 0 10 5 10 10 0 6 -4 10 -10 10 -5 0
-10 -4 -10 -10z"/>
<path d="M9850 4562 c0 -5 11 -19 25 -32 14 -13 25 -18 25 -12 0 7 -5 12 -12
12 -6 0 -8 3 -5 7 8 7 -11 33 -24 33 -5 0 -9 -4 -9 -8z"/>
<path d="M10438 4553 c-3 -4 -5 -35 -6 -68 l0 -60 8 65 c9 60 8 82 -2 63z"/>
<path d="M7801 4509 c-72 -12 -81 -22 -11 -13 63 8 118 22 85 22 -11 0 -44 -4
-74 -9z"/>
<path d="M9627 4504 c-7 -7 14 -44 24 -44 9 0 -1 39 -11 45 -4 2 -10 2 -13 -1z"/>
<path d="M6548 4495 c-3 -3 10 -45 29 -93 19 -48 37 -95 40 -104 3 -10 9 -18
14 -18 12 0 12 4 -10 53 -10 23 -30 70 -43 105 -13 34 -27 60 -30 57z"/>
<path d="M7566 4485 c-2 -7 -1 -16 4 -21 5 -5 -1 -119 -12 -253 l-20 -245 -66
-115 c-36 -64 -73 -128 -82 -142 -10 -14 -32 -54 -50 -90 -18 -35 -46 -81 -62
-102 -17 -21 -29 -40 -26 -42 2 -2 21 -16 43 -31 28 -18 35 -21 23 -7 -10 11
-18 28 -18 39 0 22 141 219 157 219 6 0 15 4 20 9 5 5 3 6 -4 2 -21 -12 -15
19 7 39 11 10 22 26 25 36 4 11 10 17 15 14 9 -6 2 -44 -13 -62 -13 -18 -1
-43 22 -43 22 0 36 27 21 45 -18 21 1 107 33 152 16 23 35 44 41 46 8 3 11 33
11 88 -2 75 -4 84 -20 84 -13 0 -21 -11 -28 -35 -14 -55 -25 -57 -19 -3 2 26
8 49 11 50 3 2 5 31 4 65 -2 62 15 259 22 266 2 3 17 0 32 -6 62 -22 66 -22
24 1 -48 26 -43 41 13 39 17 -1 36 2 43 6 6 4 -24 8 -67 8 -56 2 -80 -2 -84
-11z m24 -536 c-7 -15 -18 -33 -25 -39 -10 -8 -11 -2 -5 27 4 21 14 50 21 65
l14 28 3 -26 c2 -14 -2 -39 -8 -55z m-112 -164 c-29 -40 -54 -72 -55 -71 -2 2
19 41 47 87 27 46 51 89 51 94 1 6 4 0 6 -13 3 -16 -11 -45 -49 -97z"/>
<path d="M8157 4483 c-3 -5 -2 -15 3 -22 10 -17 43 -6 38 12 -6 15 -34 22 -41
10z"/>
<path d="M4294 4466 c-10 -26 4 -48 28 -44 17 2 23 10 23 28 0 18 -6 26 -23
28 -13 2 -25 -3 -28 -12z"/>
<path d="M6667 4473 c-12 -11 -8 -40 7 -52 26 -22 63 10 50 44 -6 15 -45 21
-57 8z"/>
<path d="M6153 4409 c-8 -8 -8 -19 -2 -33 12 -28 59 -538 52 -565 -3 -14 0
-23 12 -27 24 -10 39 9 26 32 -10 18 -61 523 -58 573 2 27 -13 37 -30 20z"/>
<path d="M7207 4413 c-4 -3 -7 -15 -7 -25 0 -29 44 -20 48 10 3 16 -2 22 -16
22 -10 0 -22 -3 -25 -7z"/>
<path d="M10422 4390 c0 -19 2 -27 5 -17 2 9 2 25 0 35 -3 9 -5 1 -5 -18z"/>
<path d="M7324 4395 c-7 -18 3 -35 21 -35 21 0 28 19 15 35 -16 19 -29 19 -36
0z"/>
<path d="M10610 4269 l0 -141 -26 6 c-15 4 -33 14 -41 21 -17 17 -23 18 -41 6
-25 -15 -9 -46 23 -47 94 -4 85 3 85 -68 0 -36 -4 -68 -10 -71 -15 -9 -12 -42
5 -49 13 -5 15 26 15 239 0 135 -2 245 -5 245 -3 0 -5 -63 -5 -141z"/>
<path d="M7744 4388 c-4 -7 -4 -10 1 -6 4 4 14 1 22 -7 8 -8 19 -15 25 -15 6
0 9 1 7 3 -2 1 -14 10 -26 20 -17 15 -23 16 -29 5z"/>
<path d="M7170 4365 c-7 -9 -8 -15 -2 -15 5 0 12 7 16 15 3 8 4 15 2 15 -2 0
-9 -7 -16 -15z"/>
<path d="M7186 4323 c-6 -14 -5 -15 5 -6 7 7 10 15 7 18 -3 3 -9 -2 -12 -12z"/>
<path d="M7387 4317 c37 -32 73 -50 73 -38 0 13 -59 55 -83 58 -14 2 -12 -2
10 -20z"/>
<path d="M9720 4300 c6 -11 15 -18 21 -15 13 9 11 13 -12 25 -19 11 -20 10 -9
-10z"/>
<path d="M3170 4306 c0 -2 8 -21 17 -42 9 -22 18 -44 19 -51 3 -17 75 -207 80
-212 7 -7 -2 31 -13 59 -6 14 -25 68 -43 120 -18 52 -36 100 -41 106 -5 6 -6
14 -2 17 3 4 1 7 -5 7 -7 0 -12 -2 -12 -4z"/>
<path d="M7915 4295 c30 -25 55 -37 55 -27 0 5 -12 15 -27 23 -43 21 -50 22
-28 4z"/>
<path d="M5467 4294 c-14 -15 -6 -34 14 -34 14 0 19 5 17 17 -3 18 -20 27 -31
17z"/>
<path d="M7470 4265 c-11 -14 -10 -19 10 -38 13 -12 19 -15 12 -6 -7 9 -8 20
-4 24 4 5 1 5 -5 1 -16 -9 -17 10 -2 20 6 3 16 0 21 -7 8 -12 9 -12 6 0 -6 21
-23 24 -38 6z"/>
<path d="M6640 4251 c0 -9 89 -243 95 -249 2 -2 5 1 8 5 3 5 -8 40 -24 78 -17
39 -37 91 -45 117 -13 43 -34 73 -34 49z"/>
<path d="M7527 4249 c7 -7 15 -10 18 -7 3 3 -2 9 -12 12 -14 6 -15 5 -6 -5z"/>
<path d="M10185 4240 c-3 -5 -1 -10 4 -10 6 0 11 5 11 10 0 6 -2 10 -4 10 -3
0 -8 -4 -11 -10z"/>
<path d="M7624 4206 c11 -9 24 -16 30 -16 12 0 7 5 -24 19 -24 11 -24 11 -6
-3z"/>
<path d="M8070 4212 c0 -9 61 -44 67 -39 2 3 -12 14 -32 25 -19 12 -35 18 -35
14z"/>
<path d="M6233 4145 c-3 -9 1 -23 9 -33 14 -17 43 -88 107 -267 18 -49 46
-126 63 -170 17 -44 30 -93 30 -108 -1 -30 22 -47 40 -29 7 7 1 30 -20 73 -17
35 -37 84 -45 109 -36 107 -118 327 -128 344 -6 10 -7 17 -2 15 15 -7 110
-114 117 -133 5 -14 12 -17 29 -11 42 13 132 26 192 28 53 2 60 4 60 22 0 15
-7 20 -26 21 -28 1 -341 117 -376 140 -29 18 -42 18 -50 -1z m187 -85 c41 -16
98 -37 125 -48 l50 -20 -47 -7 c-26 -4 -55 -5 -63 -1 -8 3 -15 1 -15 -4 0 -16
-54 1 -74 23 -11 12 -35 40 -55 61 -26 28 -30 37 -16 31 11 -4 54 -20 95 -35z"/>
<path d="M6500 4000 c-8 -5 -10 -10 -5 -10 6 0 17 5 25 10 8 5 11 10 5 10 -5
0 -17 -5 -25 -10z"/>
<path d="M8191 4153 c-1 -16 28 -45 39 -38 5 3 11 1 15 -5 3 -5 11 -10 17 -10
7 0 2 9 -10 20 -12 11 -28 20 -36 20 -8 0 -17 6 -19 13 -4 8 -6 9 -6 0z"/>
<path d="M7745 4143 c6 -5 24 -15 40 -22 26 -11 28 -11 15 2 -8 8 -26 18 -40
22 -15 4 -21 4 -15 -2z"/>
<path d="M2973 4128 c-6 -7 -10 -20 -10 -29 0 -9 -9 -36 -20 -60 -11 -24 -64
-140 -118 -258 -53 -118 -104 -224 -113 -235 -9 -13 -55 -34 -116 -54 -56 -18
-137 -46 -181 -62 -44 -16 -168 -58 -275 -95 -107 -37 -199 -71 -205 -75 -9
-7 -44 -6 -49 2 -14 18 -196 654 -191 667 7 18 -13 41 -31 34 -18 -7 -18 -32
-1 -47 8 -6 21 -36 30 -66 56 -191 115 -389 158 -525 10 -33 16 -70 13 -82 -8
-28 23 -44 40 -21 11 14 131 60 351 133 55 18 172 59 260 90 88 31 176 58 195
59 31 1 35 4 41 36 8 47 236 543 255 553 11 6 12 13 4 28 -12 22 -23 24 -37 7z"/>
<path d="M4937 4113 c-3 -5 -5 -22 -5 -39 0 -16 -11 -78 -26 -139 -14 -60 -35
-148 -46 -194 -10 -46 -24 -89 -30 -95 -14 -14 -12 -43 3 -49 23 -9 35 6 35
43 1 48 91 423 104 431 15 9 5 43 -14 47 -9 2 -19 -1 -21 -5z"/>
<path d="M654 4085 c-9 -23 3 -45 25 -45 10 0 21 7 25 15 8 23 -4 45 -25 45
-11 0 -22 -7 -25 -15z"/>
<path d="M7680 4021 c0 -6 4 -13 10 -16 6 -3 7 1 4 9 -7 18 -14 21 -14 7z"/>
<path d="M6745 3990 c-4 -7 -3 -15 2 -19 6 -3 14 -21 18 -38 3 -18 11 -33 16
-33 6 0 8 -4 4 -9 -3 -5 1 -25 9 -43 39 -85 69 -174 68 -199 -1 -37 23 -58 44
-37 17 16 9 48 -12 48 -8 0 -14 9 -14 20 0 11 -4 20 -10 20 -5 0 -10 7 -10 15
0 9 -13 48 -29 88 -16 39 -41 101 -54 136 -15 38 -27 58 -32 51z"/>
<path d="M3280 3970 c0 -23 26 -38 41 -23 14 14 0 43 -22 43 -12 0 -19 -7 -19
-20z"/>
<path d="M7771 3924 c13 -17 26 -30 28 -27 3 2 -8 16 -24 31 l-28 27 24 -31z"/>
<path d="M7830 3840 c0 -16 5 -21 23 -18 12 2 22 10 22 18 0 8 -10 16 -22 18
-18 3 -23 -2 -23 -18z"/>
<path d="M8230 3819 c0 -8 9 -25 19 -38 14 -18 20 -21 26 -11 5 9 4 11 -3 6
-7 -4 -12 -1 -12 6 0 7 -7 22 -15 32 -11 14 -15 16 -15 5z"/>
<path d="M4314 3785 c-8 -21 2 -45 19 -45 8 0 20 7 27 15 10 12 10 18 0 30 -7
8 -19 15 -27 15 -7 0 -16 -7 -19 -15z"/>
<path d="M2563 3754 c-8 -21 13 -42 28 -27 13 13 5 43 -11 43 -6 0 -13 -7 -17
-16z"/>
<path d="M8283 3745 c0 -8 4 -12 9 -9 5 3 6 10 3 15 -9 13 -12 11 -12 -6z"/>
<path d="M8318 3700 c12 -18 28 -35 37 -36 8 -1 13 2 9 7 -3 5 -9 7 -14 4 -5
-3 -11 3 -15 14 -3 11 -13 25 -22 32 -10 9 -9 3 5 -21z"/>
<path d="M9463 3691 c-24 -21 -43 -43 -43 -47 0 -5 4 -4 8 1 4 6 19 18 34 28
22 13 58 58 46 57 -2 -1 -22 -18 -45 -39z"/>
<path d="M8207 3683 c7 -44 32 -106 33 -81 0 28 -23 118 -31 118 -4 0 -5 -17
-2 -37z"/>
<path d="M8371 3634 c0 -11 3 -14 6 -6 3 7 2 16 -1 19 -3 4 -6 -2 -5 -13z"/>
<path d="M8395 3630 c-23 -26 -427 -230 -454 -230 -30 0 -35 -19 -12 -44 12
-12 21 -27 21 -33 0 -6 21 -75 46 -153 l46 -143 -23 -46 c-12 -25 -22 -49 -21
-53 1 -5 -5 -8 -13 -8 -7 0 -18 -6 -22 -14 -4 -7 -57 -34 -117 -59 -86 -37
-113 -44 -128 -36 -11 6 -22 8 -26 5 -3 -3 -1 -6 5 -6 6 0 8 -11 5 -25 -6 -33
5 -32 91 9 128 61 172 79 192 80 12 1 22 10 26 26 8 36 32 90 40 90 4 0 10
-15 13 -34 4 -18 22 -80 41 -138 19 -58 32 -114 29 -125 -3 -11 1 -25 10 -32
9 -8 16 -21 16 -30 0 -9 6 -4 15 13 19 36 19 55 0 62 -8 4 -22 32 -31 63 -8
31 -29 98 -46 148 -20 64 -28 102 -23 123 8 37 15 37 49 4 14 -15 26 -23 26
-19 0 8 55 -32 103 -74 15 -13 27 -29 26 -35 0 -7 -2 -6 -5 1 -4 8 -11 7 -25
-5 -21 -18 -26 -48 -8 -54 5 -2 11 -10 13 -18 2 -14 11 -35 37 -95 42 -94 185
-526 183 -551 -1 -26 1 -31 16 -27 10 3 26 14 36 24 12 13 31 19 64 19 25 0
52 6 59 13 11 10 13 5 8 -27 -4 -21 -8 -41 -11 -43 -2 -3 -96 -7 -208 -9 -112
-2 -272 -6 -356 -8 l-153 -5 5 32 c5 27 4 29 -5 12 -5 -12 -20 -27 -31 -34
-11 -7 -125 -28 -252 -47 -127 -19 -268 -40 -313 -47 -45 -8 -88 -10 -94 -6
-20 12 -39 -2 -39 -28 0 -13 -9 -45 -19 -71 -10 -26 -29 -73 -41 -104 -12 -32
-26 -58 -31 -58 -11 0 -12 -40 -1 -41 45 -5 79 -18 287 -109 17 -8 33 -14 36
-14 3 -1 28 -11 55 -23 27 -12 89 -38 138 -58 49 -21 96 -43 104 -51 17 -17
24 -17 41 -1 11 10 13 9 9 -3 -9 -30 -42 -35 -154 -27 -134 10 -154 14 -154
30 0 6 -10 23 -21 37 l-20 25 15 -32 c9 -18 16 -36 16 -40 0 -5 -33 -7 -72 -6
-150 7 -398 23 -427 29 -26 6 -31 4 -31 -14 0 -22 23 -35 37 -21 5 5 85 4 198
-2 176 -10 215 -12 303 -17 17 -1 31 -5 31 -9 -1 -5 0 -10 1 -13 13 -33 19
-384 7 -445 -6 -33 -94 -255 -106 -268 -9 -9 -143 125 -153 154 -11 30 -44 20
-41 -11 2 -14 6 -107 9 -207 l7 -183 -54 0 c-30 0 -92 -3 -139 -7 -79 -6 -84
-5 -71 11 8 9 11 19 9 22 -8 7 79 198 92 202 5 2 10 12 10 23 0 28 62 162 83
179 15 13 17 20 8 43 -12 31 -32 32 -41 1 -3 -10 -20 -41 -39 -69 l-35 -49
-12 59 c-7 33 -32 150 -54 260 -23 110 -45 211 -49 225 -5 14 -4 35 2 47 11
26 -6 55 -27 47 -8 -3 -58 21 -112 53 -55 33 -152 90 -216 127 -76 44 -115 72
-111 79 22 36 260 399 286 437 17 25 41 53 52 62 19 16 19 18 3 34 -18 18 -38
11 -38 -14 0 -9 -47 -89 -105 -177 -58 -88 -131 -199 -163 -247 -31 -48 -62
-88 -69 -88 -6 0 -25 13 -41 30 -17 17 -35 30 -41 30 -6 0 -11 4 -11 8 0 5
-44 76 -98 158 -123 188 -254 389 -267 412 -5 9 -25 38 -42 64 -18 27 -30 48
-25 48 13 0 90 -55 108 -78 17 -20 21 -21 38 -9 24 18 15 47 -14 47 -23 0
-136 73 -161 104 -10 12 -22 17 -32 13 -24 -9 -22 -48 3 -54 11 -3 20 -10 20
-15 0 -5 5 -6 12 -2 6 4 8 3 5 -3 -3 -5 4 -25 16 -44 12 -19 27 -42 32 -51 6
-8 28 -42 49 -74 195 -293 344 -531 348 -555 2 -16 11 -26 28 -29 14 -3 34
-10 44 -16 19 -11 19 -12 -2 -45 -11 -19 -30 -42 -42 -52 -20 -17 -20 -17 -1
-45 26 -36 210 -544 208 -574 -1 -31 -274 -538 -299 -559 -20 -16 -21 -56 -1
-52 14 3 35 -22 63 -71 l22 -39 -34 -26 c-18 -14 -60 -48 -93 -76 -33 -28 -91
-75 -129 -105 -47 -38 -63 -56 -51 -58 9 -2 24 3 33 11 9 8 85 69 167 136 83
66 185 150 227 186 43 36 84 65 92 65 8 0 18 5 21 10 4 6 21 10 38 10 68 -2
502 12 506 16 2 2 24 4 47 4 43 0 43 -1 38 -29 -9 -44 14 -50 46 -11 15 18 32
30 38 26 20 -12 44 6 39 30 -3 17 9 35 52 77 31 30 64 57 74 60 25 9 21 36 -8
47 -14 5 -28 17 -32 25 -8 21 95 266 121 287 18 15 19 20 9 37 -17 28 -18 331
-1 378 13 36 9 46 -25 48 -12 1 -21 5 -19 8 1 4 2 11 2 15 0 4 46 4 102 -1 56
-4 109 -6 118 -4 8 1 20 -4 26 -12 10 -13 14 -13 28 -2 9 8 15 19 13 25 -3 6
0 19 4 28 7 14 20 16 81 11 40 -3 79 -9 85 -15 28 -23 60 21 34 48 -16 15 -53
342 -42 363 7 12 6 22 -2 30 -14 14 -37 182 -27 194 9 10 116 15 435 18 276 2
306 -1 335 -37 12 -14 12 -16 1 -10 -7 5 3 -17 23 -48 20 -31 36 -60 36 -64 0
-4 10 -19 23 -32 12 -14 23 -32 25 -39 3 -14 68 -127 132 -228 l32 -52 -58
-70 c-60 -73 -68 -80 -78 -58 -3 6 -4 3 -3 -8 2 -16 -3 -20 -28 -18 -39 3
-314 129 -339 155 -18 19 -18 20 3 42 12 12 21 28 21 34 0 7 3 11 8 10 4 -2
34 26 67 61 33 35 70 67 83 72 25 10 29 31 7 49 -17 14 -35 5 -35 -18 0 -16
-27 -47 -188 -217 -37 -39 -79 -84 -93 -100 -46 -54 -91 -92 -83 -71 5 14 4
17 -5 12 -6 -4 -9 -16 -6 -26 4 -12 -1 -19 -15 -23 -12 -3 -20 -13 -20 -26 0
-29 38 -28 49 2 5 12 40 55 78 96 37 41 67 78 65 83 -4 14 16 9 21 -6 3 -8 19
-15 34 -14 27 0 260 -102 272 -119 3 -5 25 -15 48 -21 24 -7 86 -33 138 -57
53 -25 99 -45 103 -45 25 0 28 -24 10 -83 -11 -34 -23 -69 -28 -78 -4 -9 -11
-37 -15 -63 -4 -25 -11 -46 -17 -46 -5 0 -20 12 -33 26 -13 14 -29 23 -34 19
-21 -12 -11 -35 22 -50 60 -28 226 -137 226 -149 1 -4 -5 -6 -13 -3 -23 9 -38
-16 -22 -38 16 -23 46 -13 46 15 0 19 1 19 37 2 21 -9 45 -24 54 -32 32 -30
55 -46 125 -87 39 -23 86 -56 103 -73 37 -33 56 -38 65 -15 7 18 -16 30 -40
21 -8 -3 -13 -2 -10 3 3 5 -37 38 -90 72 -53 35 -120 80 -149 99 -29 19 -65
44 -81 54 -16 10 -48 32 -71 47 -23 16 -46 29 -52 29 -6 0 -11 4 -11 9 0 5 -9
11 -20 14 -30 8 -35 34 -17 86 9 25 25 79 37 119 21 72 22 74 48 67 15 -4 34
-13 43 -21 8 -8 21 -14 27 -14 21 0 107 -45 124 -65 15 -18 18 -19 33 -4 23
22 9 50 -24 47 -35 -2 -163 60 -154 76 4 8 3 8 -6 0 -9 -9 -19 -9 -37 0 -20 9
-23 16 -18 40 3 15 15 37 25 47 21 21 24 35 8 44 -7 5 -10 60 -8 164 3 153 3
156 -19 166 -29 13 -27 6 -52 275 -11 124 -23 255 -27 293 -3 37 -4 67 -2 67
22 -2 230 -48 235 -52 3 -4 -16 -9 -43 -13 -26 -4 -64 -10 -83 -15 -19 -4 -48
-11 -63 -14 -15 -4 -26 -10 -23 -14 3 -5 56 2 118 15 62 12 127 23 145 23 26
0 295 -57 356 -76 14 -4 3 -19 -54 -75 -40 -38 -67 -69 -61 -69 6 0 16 8 21
18 6 9 11 13 11 8 0 -5 7 -3 15 4 8 7 13 16 10 20 -3 5 4 11 15 15 11 3 28 17
38 30 10 13 29 25 43 27 37 5 33 42 -6 46 -25 2 -223 46 -262 57 -7 3 -10 11
-7 19 8 22 160 146 179 146 11 0 15 7 13 22 -4 29 -36 36 -46 10 -9 -25 -130
-128 -165 -141 -21 -8 -42 -5 -99 14 -40 14 -83 25 -95 25 -13 0 -23 4 -23 9
0 5 -12 11 -27 14 -16 3 -73 21 -128 41 -55 20 -103 36 -107 36 -13 0 -9 -17
5 -18 21 -1 48 -10 190 -62 76 -27 147 -50 157 -50 10 0 22 -4 25 -10 3 -5 17
-10 31 -10 13 0 24 -4 24 -10 0 -15 -14 -13 -160 26 -74 20 -142 37 -150 39
-80 18 -104 25 -118 39 -26 22 -52 4 -34 -24 12 -19 45 -160 40 -166 -8 -7
-220 -45 -226 -39 -7 7 -4 182 4 273 6 55 9 62 28 62 12 0 26 -4 32 -9 16 -14
134 -50 134 -40 0 5 -7 9 -15 9 -8 0 -23 4 -33 9 -9 6 -29 12 -44 16 -16 3
-28 10 -28 16 0 6 8 8 18 5 15 -5 175 -19 337 -31 160 -12 223 -17 248 -21 15
-2 27 -1 27 4 0 8 -190 28 -350 38 -36 2 -112 9 -169 14 -57 5 -107 7 -112 4
-5 -3 -24 2 -44 11 -35 17 -62 59 -183 285 -25 47 -51 94 -59 105 -7 11 -13
29 -13 40 0 12 -4 25 -9 31 -5 5 -12 88 -16 185 l-7 177 73 55 c41 30 83 57
94 59 24 4 32 36 11 44 -10 4 -27 -6 -45 -24 -33 -32 -122 -94 -128 -88 -7 7
-9 77 -2 81 4 3 6 22 6 42 -2 45 -24 54 -52 23z m-7 -73 c-6 -12 -40 -68 -75
-123 -60 -97 -94 -132 -138 -144 -11 -4 -20 -14 -20 -25 0 -11 -22 -63 -49
-115 l-49 -95 -18 55 c-9 30 -31 97 -47 149 -17 51 -28 99 -26 105 5 14 416
225 427 219 4 -2 2 -14 -5 -26z m-3 -78 c-4 -12 -8 -29 -9 -37 -2 -9 -17 -27
-35 -41 l-32 -25 37 62 c38 64 50 77 39 41z m22 -26 c-3 -10 -5 -4 -5 12 0 17
2 24 5 18 2 -7 2 -21 0 -30z m11 -95 c1 -35 4 -111 8 -169 4 -72 3 -108 -4
-113 -6 -4 -33 -4 -60 0 l-49 6 19 76 c11 42 17 84 15 93 -3 11 0 17 7 16 7
-1 11 13 11 36 0 20 3 37 8 37 4 0 7 9 7 20 0 20 -1 20 -25 3 -16 -12 -22 -24
-19 -36 3 -10 -2 -64 -12 -119 -21 -120 -29 -128 -121 -121 -35 3 -63 8 -63
12 0 4 23 42 50 86 28 44 50 83 50 87 0 13 18 9 23 -4 2 -7 2 -2 0 10 -2 15 0
21 6 17 6 -3 8 0 5 8 -4 10 14 28 53 53 32 21 62 44 66 51 16 27 24 11 25 -49z
m-236 -140 c-11 -18 -29 -49 -41 -68 -31 -51 -26 -29 9 40 17 33 35 60 41 60
6 0 2 -15 -9 -32z m99 -164 c4 -2 3 -19 -1 -38 -5 -24 -4 -36 4 -39 7 -3 13 5
14 17 5 50 10 61 25 60 10 0 34 -1 54 -2 l37 -2 -44 -45 c-24 -25 -52 -45 -61
-45 -15 0 -149 95 -149 106 0 5 110 -6 121 -12z m158 -116 c1 -50 4 -95 7
-100 13 -21 -16 -3 -64 41 l-54 48 54 51 c29 28 53 52 54 52 0 0 1 -41 3 -92z
m96 -78 c38 -69 76 -140 86 -157 10 -18 15 -33 9 -33 -5 0 -12 5 -15 11 -4 5
-37 35 -73 65 l-67 55 -10 99 c-6 55 -8 96 -4 92 4 -4 37 -63 74 -132z m-213
21 c-1 -7 2 -10 7 -7 11 7 112 -72 119 -93 3 -7 -17 2 -43 20 -26 19 -62 42
-81 52 -34 17 -40 27 -27 41 10 10 28 0 25 -13z m47 -88 c42 -26 77 -47 79
-48 1 -1 4 -35 7 -76 11 -186 26 -363 32 -373 4 -7 3 -8 -4 -1 -13 12 -153
405 -153 428 0 5 11 2 25 -7 19 -13 23 -13 19 -2 -3 8 -15 17 -28 20 -14 3
-29 22 -43 56 -12 27 -19 50 -16 50 3 0 40 -21 82 -47z m121 -38 c11 -13 10
-14 -4 -9 -9 3 -16 10 -16 15 0 13 6 11 20 -6z m90 -93 c77 -52 101 -82 60
-74 -13 2 -13 1 -1 -7 12 -8 1 -38 -59 -170 -41 -88 -75 -160 -76 -158 -1 1
-5 63 -8 137 -11 230 -16 313 -22 321 -14 23 29 3 106 -49z m85 -319 c-6 -87
-10 -103 -24 -103 -9 0 -40 -6 -69 -14 -63 -16 -66 -34 26 164 l67 146 3 -46
c2 -25 1 -91 -3 -147z m302 68 c19 -24 16 -98 -3 -105 -22 -8 -36 -8 -30 2 2
4 -2 34 -10 67 -7 33 -14 64 -14 68 0 11 42 -13 57 -32z m-27 -209 c4 -34 11
-66 15 -72 4 -6 8 -23 10 -38 9 -73 48 -238 58 -251 32 -38 -20 3 -119 94
-225 206 -215 196 -221 248 -3 26 -4 47 -1 47 17 0 222 41 226 45 12 12 24
-15 32 -73z m55 -9 c4 -49 11 -115 16 -148 10 -68 12 -121 3 -113 -3 3 -7 22
-10 41 -2 19 -15 92 -29 161 -30 151 -30 146 -6 146 17 0 20 -10 26 -87z
m-1110 -122 c-3 -14 -12 -48 -20 -76 -7 -27 -31 -115 -51 -195 -21 -80 -38
-146 -40 -148 -3 -4 -257 169 -265 180 -3 4 -41 32 -85 61 -115 76 -163 111
-164 118 0 3 37 11 83 17 138 19 157 21 307 46 80 13 167 23 193 23 47 0 48 0
42 -26z m34 -126 c33 -274 49 -420 45 -424 -5 -5 -103 62 -104 72 0 4 11 17
24 28 27 23 24 49 -4 49 -12 0 -20 -11 -24 -35 -7 -38 -7 -38 -30 -29 -19 7
-21 21 -3 27 6 2 2 2 -10 0 -13 -2 -23 -2 -23 -1 0 2 21 80 46 173 26 94 49
190 51 213 7 65 19 39 32 -73z m991 -51 c36 -34 75 -70 88 -81 27 -21 46 -92
33 -125 -5 -13 -18 -31 -28 -41 -19 -17 -21 -16 -56 42 -21 32 -37 62 -37 66
0 18 -64 104 -73 98 -6 -3 -7 -1 -3 6 5 7 -10 40 -33 77 -23 36 -41 69 -41 73
0 5 -7 14 -15 21 -8 7 -15 17 -15 23 0 10 40 -26 180 -159z m-1600 46 c36 -28
82 -61 102 -75 20 -13 39 -34 43 -45 4 -13 12 -19 21 -16 13 5 271 -163 285
-186 3 -5 -1 -29 -9 -54 -17 -53 -3 -54 -189 24 -98 40 -130 58 -123 67 5 7 7
15 3 18 -11 12 -23 8 -23 -8 0 -8 -3 -15 -7 -15 -14 1 -98 49 -88 50 13 0 -16
20 -30 20 -5 0 -3 -5 5 -10 29 -19 -6 -10 -74 19 -38 16 -72 34 -76 41 -4 7
-2 27 5 44 6 17 15 40 19 50 6 19 7 19 21 0 17 -23 20 -12 4 15 -9 14 -8 28 6
64 10 26 23 47 29 47 6 -1 40 -23 76 -50z m-652 -381 c187 -109 252 -158 258
-193 1 -6 21 -103 44 -216 23 -113 49 -239 57 -281 l15 -77 -85 -123 c-46 -68
-94 -134 -107 -146 -27 -26 -19 -43 20 -43 33 0 80 -16 80 -27 0 -11 -342 -10
-358 0 -17 11 -42 1 -42 -17 0 -18 -123 -116 -146 -116 -9 0 -14 6 -11 13 2 6
50 149 106 317 56 168 108 308 116 313 19 10 19 34 1 44 -16 10 -214 550 -211
578 2 19 43 95 51 95 3 0 98 -54 212 -121z m2421 -41 c1 -21 -3 -38 -9 -38 -5
0 -10 4 -10 9 0 19 -52 101 -61 95 -6 -3 -3 -17 7 -32 10 -15 24 -40 32 -55 8
-16 20 -31 28 -34 8 -3 11 -9 8 -14 -3 -5 -7 -30 -9 -55 -2 -25 -6 -49 -9 -52
-6 -6 -151 53 -173 71 -23 17 -14 38 40 100 28 33 63 74 77 90 14 17 34 39 45
51 l20 21 6 -60 c4 -33 7 -77 8 -97z m-1269 72 c19 -10 19 -12 3 -45 -11 -22
-24 -35 -36 -35 -14 0 -17 5 -12 18 3 9 9 29 12 45 6 30 7 31 33 17z m80 -55
l34 -25 -47 0 c-51 0 -52 1 -37 31 13 23 9 24 50 -6z m-1452 -963 c-76 -228
-82 -241 -99 -226 -9 8 -22 27 -28 42 -10 25 -1 45 96 228 60 111 109 201 110
200 2 -2 -34 -111 -79 -244z m911 85 c-5 -23 -13 -60 -19 -82 -6 -22 -13 -48
-15 -59 -6 -25 -34 -56 -49 -53 -17 3 -23 54 -25 210 l-2 142 59 -58 c59 -58
59 -59 51 -100z m-359 -37 c-53 -121 -62 -130 -103 -114 -12 4 -3 24 42 87 31
45 67 99 80 120 43 70 34 28 -19 -93z m436 9 c3 -6 -8 -25 -25 -43 -30 -29
-31 -29 -21 -6 6 14 13 33 16 43 7 19 20 22 30 6z"/>
<path d="M8371 3244 c0 -11 3 -14 6 -6 3 7 2 16 -1 19 -3 4 -6 -2 -5 -13z"/>
<path d="M8272 3210 c0 -19 2 -27 5 -17 2 9 2 25 0 35 -3 9 -5 1 -5 -18z"/>
<path d="M8277 3163 c-11 -10 -8 -53 3 -53 6 0 10 14 10 30 0 31 -2 35 -13 23z"/>
<path d="M8401 3154 c0 -11 3 -14 6 -6 3 7 2 16 -1 19 -3 4 -6 -2 -5 -13z"/>
<path d="M8390 2711 c0 -12 42 -42 49 -36 5 6 -29 45 -41 45 -4 0 -8 -4 -8 -9z"/>
<path d="M8525 2640 c-4 -6 3 -10 14 -10 25 0 27 6 6 13 -8 4 -17 2 -20 -3z"/>
<path d="M8582 2614 c9 -9 21 -15 27 -13 6 2 -2 10 -17 17 -25 11 -25 11 -10
-4z"/>
<path d="M7793 2078 c-18 -6 -33 -15 -33 -19 0 -5 -5 -9 -12 -9 -18 0 -148
-63 -148 -72 0 -5 21 2 48 16 26 13 77 38 115 55 37 17 67 34 67 36 0 3 -1 5
-2 4 -2 -1 -18 -6 -35 -11z"/>
<path d="M7420 1973 c0 -12 5 -25 10 -28 13 -8 13 15 0 35 -8 12 -10 11 -10
-7z"/>
<path d="M7498 1943 c-10 -2 -18 -9 -18 -15 0 -6 -9 -8 -20 -5 -29 7 -47 -19
-21 -32 24 -13 42 -14 22 -2 -12 7 -7 13 22 27 20 10 37 21 37 26 0 4 -1 7 -2
7 -2 -1 -11 -3 -20 -6z"/>
<path d="M7322 1858 c-18 -11 -31 -22 -29 -24 4 -4 87 36 87 42 0 9 -27 1 -58
-18z"/>
<path d="M7255 1833 c-11 -2 -36 -17 -55 -34 -32 -27 -33 -28 -7 -18 15 7 27
16 27 20 0 5 7 6 15 3 8 -4 15 -1 15 5 0 6 7 11 15 11 8 0 15 5 15 10 0 6 -1
9 -2 9 -2 -1 -12 -4 -23 -6z"/>
<path d="M7455 1781 c-3 -5 0 -13 6 -17 7 -4 9 -3 5 4 -3 5 0 13 6 15 9 4 10
6 1 6 -6 1 -14 -3 -18 -8z"/>
<path d="M7618 1598 c17 -8 26 -8 34 0 9 9 4 12 -22 11 -33 0 -34 -1 -12 -11z"/>
<path d="M9264 3635 c-4 -9 -2 -21 4 -27 15 -15 44 -1 40 19 -4 23 -36 29 -44
8z"/>
<path d="M9380 3624 c0 -5 -13 -17 -29 -27 -25 -15 -65 -16 -370 -14 -187 1
-341 -1 -341 -5 0 -5 109 -9 243 -10 291 -3 379 -4 391 -6 4 -1 -3 -17 -18
-36 -14 -19 -26 -40 -26 -46 0 -6 -4 -9 -9 -6 -5 3 -25 -9 -44 -27 -20 -17
-55 -48 -79 -67 -24 -19 -59 -49 -78 -66 -100 -91 -128 -114 -136 -114 -5 0
-24 -16 -42 -35 -17 -20 -32 -32 -32 -28 0 4 -9 -5 -20 -22 -11 -16 -20 -26
-20 -20 0 5 -5 4 -11 -2 -6 -6 -17 -9 -24 -7 -17 7 -39 -22 -31 -42 10 -27 50
-13 57 21 4 17 7 26 8 20 1 -5 16 7 35 27 19 20 36 34 40 31 3 -3 8 2 12 11 3
9 10 16 14 16 5 0 21 12 37 28 107 100 226 202 259 220 14 7 23 16 20 20 -3 5
4 13 15 20 15 10 19 10 19 -1 0 -7 -4 -17 -9 -22 -4 -6 -30 -50 -56 -100 -102
-191 -158 -288 -177 -307 -11 -11 -59 -38 -107 -58 -47 -21 -112 -50 -143 -64
-32 -15 -72 -29 -90 -33 -53 -10 -75 -34 -42 -47 9 -4 24 0 33 7 9 8 57 33
106 56 50 24 122 58 161 76 40 19 80 31 91 29 16 -4 23 3 36 38 15 39 232 441
267 496 8 12 25 22 38 22 13 0 21 4 17 9 -3 6 7 21 22 35 15 14 24 28 20 32
-4 4 -7 3 -7 -2z"/>
<path d="M6835 3610 c3 -5 8 -10 11 -10 2 0 4 5 4 10 0 6 -5 10 -11 10 -5 0
-7 -4 -4 -10z"/>
<path d="M6995 3600 c3 -5 20 -10 36 -10 18 0 28 4 24 10 -3 6 -20 10 -36 10
-18 0 -28 -4 -24 -10z"/>
<path d="M6824 3593 c4 -8 1 -13 -9 -13 -8 0 -19 -10 -24 -22 -11 -27 -118
-133 -144 -142 -11 -3 -17 -13 -15 -23 5 -24 37 -29 44 -6 10 28 116 133 136
133 26 0 36 57 13 77 -4 4 -5 2 -1 -4z"/>
<path d="M7101 3576 c12 -10 59 -15 59 -6 0 5 -14 10 -32 10 -17 0 -29 -2 -27
-4z"/>
<path d="M5006 3481 c-9 -14 4 -41 19 -41 15 0 28 27 19 41 -3 5 -11 9 -19 9
-8 0 -16 -4 -19 -9z"/>
<path d="M6840 3481 c0 -6 4 -13 10 -16 6 -3 7 1 4 9 -7 18 -14 21 -14 7z"/>
<path d="M9989 3447 c6 -8 7 -18 3 -22 -4 -5 -2 -5 5 -1 14 8 6 36 -9 36 -7 0
-6 -5 1 -13z"/>
<path d="M7360 3415 c13 -14 26 -25 28 -25 3 0 -5 11 -18 25 -13 14 -26 25
-28 25 -3 0 5 -11 18 -25z"/>
<path d="M5025 3079 c4 -195 8 -360 8 -366 0 -7 5 -13 10 -13 5 0 7 10 4 23
-3 12 -7 174 -8 360 -2 205 -6 340 -12 344 -6 4 -7 -120 -2 -348z"/>
<path d="M617 3391 c-6 -24 15 -44 40 -39 12 2 18 12 18 28 0 33 -49 42 -58
11z"/>
<path d="M3866 3401 c-10 -16 5 -42 23 -39 21 4 21 42 -1 46 -9 2 -19 -1 -22
-7z"/>
<path d="M7426 3357 c3 -10 9 -15 12 -12 3 3 0 11 -7 18 -10 9 -11 8 -5 -6z"/>
<path d="M7534 3345 c-6 -15 2 -35 14 -35 4 0 13 4 21 9 12 8 12 12 2 25 -17
20 -30 20 -37 1z"/>
<path d="M6897 3329 c4 -13 8 -18 11 -10 2 7 -1 18 -6 23 -8 8 -9 4 -5 -13z"/>
<path d="M10024 3265 c-4 -9 -2 -21 4 -27 15 -15 44 -1 40 19 -4 23 -36 29
-44 8z"/>
<path d="M984 3226 c-7 -18 1 -46 13 -46 4 0 15 5 23 10 11 7 12 14 4 27 -15
24 -33 28 -40 9z"/>
<path d="M7760 3076 c0 -3 9 -10 20 -16 11 -6 20 -8 20 -6 0 3 -9 10 -20 16
-11 6 -20 8 -20 6z"/>
<path d="M9572 3066 c7 -8 15 -12 17 -11 5 6 -10 25 -20 25 -5 0 -4 -6 3 -14z"/>
<path d="M9606 3015 c24 -39 24 -40 24 -28 0 6 -9 21 -21 34 l-20 24 17 -30z"/>
<path d="M8150 3017 c0 -14 72 -112 78 -107 10 7 3 24 -14 33 -8 5 -12 12 -10
16 3 4 -8 21 -24 36 -17 16 -30 26 -30 22z"/>
<path d="M7872 2984 c10 -10 20 -16 22 -13 3 3 -5 11 -17 18 -21 13 -21 12 -5
-5z"/>
<path d="M8580 2965 c0 -15 18 -40 24 -34 3 3 -1 14 -9 25 -8 10 -14 15 -15 9z"/>
<path d="M4230 2940 c0 -12 7 -20 16 -20 20 0 141 -84 171 -118 13 -16 27 -23
37 -19 21 8 20 36 -1 43 -33 10 -148 87 -172 115 -21 25 -51 25 -51 -1z"/>
<path d="M9646 2951 c-3 -5 1 -11 9 -14 9 -4 12 -1 8 9 -6 16 -10 17 -17 5z"/>
<path d="M1944 2925 c-4 -9 -2 -21 4 -27 15 -15 44 -1 40 19 -4 23 -36 29 -44
8z"/>
<path d="M9696 2875 c4 -8 11 -15 16 -15 6 0 5 6 -2 15 -7 8 -14 15 -16 15 -2
0 -1 -7 2 -15z"/>
<path d="M8052 2858 c6 -18 28 -21 28 -4 0 9 -7 16 -16 16 -9 0 -14 -5 -12
-12z"/>
<path d="M7402 2848 c-16 -16 -15 -33 2 -47 18 -15 46 -4 46 18 0 17 -18 41
-30 41 -3 0 -11 -5 -18 -12z"/>
<path d="M9726 2837 c3 -10 9 -15 12 -12 3 3 0 11 -7 18 -10 9 -11 8 -5 -6z"/>
<path d="M3369 2824 c-11 -14 -11 -18 5 -29 24 -18 48 -8 44 19 -4 26 -30 32
-49 10z"/>
<path d="M4005 2820 c-9 -15 15 -42 31 -36 17 6 314 -92 336 -111 20 -18 38
-9 38 18 0 13 -7 19 -23 19 -29 0 -294 87 -324 106 -26 17 -49 18 -58 4z"/>
<path d="M8187 2799 c7 -7 15 -10 18 -7 3 3 -2 9 -12 12 -14 6 -15 5 -6 -5z"/>
<path d="M8230 2795 c-10 -12 -10 -19 -2 -27 9 -9 12 -9 12 1 0 11 3 11 18 0
16 -13 16 -13 -1 7 -9 11 -14 24 -10 27 3 4 4 7 1 7 -3 0 -11 -7 -18 -15z"/>
<path d="M3306 2793 c-3 -4 -13 -8 -21 -9 -34 -5 -85 -26 -85 -36 0 -6 6 -8
13 -6 6 3 37 13 67 23 62 20 85 35 54 35 -12 0 -24 -3 -28 -7z"/>
<path d="M6254 2786 c-12 -31 0 -51 31 -51 27 0 30 3 30 30 0 25 -4 30 -28 33
-17 2 -29 -2 -33 -12z"/>
<path d="M9750 2795 c0 -5 9 -23 20 -40 26 -39 26 -25 0 17 -11 18 -20 29 -20
23z"/>
<path d="M7125 2748 c0 -16 5 -32 10 -36 6 -4 16 -18 22 -32 10 -23 11 -21 11
22 0 37 -4 50 -22 61 -21 14 -22 13 -21 -15z"/>
<path d="M3118 2727 c-79 -30 -73 -40 7 -13 36 11 65 24 65 28 0 11 -7 9 -72
-15z"/>
<path d="M10440 2687 c-96 -33 -191 -60 -210 -61 -28 -1 -36 -5 -38 -24 -4
-28 23 -40 46 -19 10 9 98 44 197 78 99 34 182 63 184 65 1 1 1 7 0 12 -2 5
-83 -18 -179 -51z"/>
<path d="M3545 2720 c-12 -20 6 -51 28 -48 31 4 31 52 0 56 -11 2 -24 -2 -28
-8z"/>
<path d="M2994 2695 c-8 -19 3 -35 26 -35 19 0 34 25 24 41 -8 14 -44 10 -50
-6z"/>
<path d="M9805 2700 c3 -5 8 -10 11 -10 2 0 4 5 4 10 0 6 -5 10 -11 10 -5 0
-7 -4 -4 -10z"/>
<path d="M5019 2676 c-15 -14 -566 -136 -611 -136 -31 0 -40 -10 -28 -29 7
-12 26 -9 107 12 137 37 523 120 529 114 2 -2 -4 -25 -15 -50 -19 -43 -22 -46
-49 -41 -21 4 -31 2 -35 -10 -8 -20 5 -25 58 -23 33 2 40 6 40 22 1 33 25 105
35 105 15 0 12 37 -4 43 -7 3 -20 0 -27 -7z"/>
<path d="M9830 2675 c0 -5 5 -17 10 -25 5 -8 10 -10 10 -5 0 6 -5 17 -10 25
-5 8 -10 11 -10 5z"/>
<path d="M9411 2646 c-9 -10 -8 -16 4 -26 19 -16 41 1 32 24 -8 20 -21 20 -36
2z"/>
<path d="M7180 2631 c0 -6 4 -13 10 -16 6 -3 7 1 4 9 -7 18 -14 21 -14 7z"/>
<path d="M9885 2580 c3 -5 8 -10 11 -10 2 0 4 5 4 10 0 6 -5 10 -11 10 -5 0
-7 -4 -4 -10z"/>
<path d="M7200 2565 c0 -8 4 -15 10 -15 5 0 7 7 4 15 -4 8 -8 15 -10 15 -2 0
-4 -7 -4 -15z"/>
<path d="M9907 2552 c-3 -4 6 -20 19 -35 13 -16 24 -24 24 -19 0 5 -9 17 -20
27 -11 10 -17 22 -14 26 3 5 3 9 0 9 -3 0 -7 -3 -9 -8z"/>
<path d="M9431 2546 c10 -10 98 -15 104 -6 4 6 -16 10 -51 10 -32 0 -55 -2
-53 -4z"/>
<path d="M1767 2526 c-8 -20 20 -43 35 -28 14 14 3 42 -16 42 -7 0 -16 -6 -19
-14z"/>
<path d="M7215 2530 c3 -5 8 -10 11 -10 2 0 4 5 4 10 0 6 -5 10 -11 10 -5 0
-7 -4 -4 -10z"/>
<path d="M4655 2520 c4 -6 11 -8 16 -5 14 9 11 15 -7 15 -8 0 -12 -5 -9 -10z"/>
<path d="M7225 2500 c3 -5 8 -10 11 -10 2 0 4 5 4 10 0 6 -5 10 -11 10 -5 0
-7 -4 -4 -10z"/>
<path d="M7245 2460 c15 -55 78 -221 81 -217 5 5 -74 228 -83 237 -3 3 -2 -6
2 -20z"/>
<path d="M6931 2446 c-7 -9 -11 -23 -7 -31 7 -19 -111 -497 -126 -506 -17 -11
-4 -44 17 -44 14 0 21 8 23 25 5 45 115 310 129 310 18 0 16 35 -2 50 -19 16
-49 -5 -40 -28 5 -14 -44 -156 -52 -149 -5 6 75 308 89 335 9 18 9 26 -4 38
-13 13 -16 13 -27 0z"/>
<path d="M7494 2426 c-9 -24 12 -44 28 -28 10 10 8 16 -5 29 -15 15 -17 15
-23 -1z"/>
<path d="M9983 2424 c-8 -21 13 -42 28 -27 13 13 5 43 -11 43 -6 0 -13 -7 -17
-16z"/>
<path d="M5976 2388 c3 -5 10 -6 15 -3 13 9 11 12 -6 12 -8 0 -12 -4 -9 -9z"/>
<path d="M5865 2350 c-13 -6 -15 -9 -5 -9 8 0 22 4 30 9 18 12 2 12 -25 0z"/>
<path d="M5778 2324 c-38 -20 -35 -26 5 -10 17 7 39 16 47 19 11 4 9 6 -5 6
-11 0 -32 -7 -47 -15z"/>
<path d="M3075 2280 c-4 -7 -3 -16 3 -22 14 -14 45 -2 40 15 -6 16 -34 21 -43
7z"/>
<path d="M4747 2276 c-7 -19 10 -33 48 -39 17 -3 64 -20 105 -39 41 -19 117
-52 168 -74 l92 -39 15 -49 c24 -79 22 -86 -22 -73 -21 6 -46 17 -55 25 -20
17 -38 8 -38 -19 0 -15 7 -19 32 -19 17 0 51 -9 74 -20 l42 -21 30 -117 c17
-64 36 -138 43 -164 6 -26 15 -45 20 -42 12 7 15 -19 9 -76 -4 -42 -1 -50 20
-50 22 0 28 34 9 46 -7 4 -9 22 -7 43 3 20 2 128 -2 241 -4 127 -3 210 3 217
14 18 1 43 -22 43 -11 0 -45 10 -75 22 -51 21 -55 25 -53 53 2 27 -1 30 -28
33 -42 4 -337 102 -356 119 -20 17 -45 17 -52 -1z m345 -128 c22 -6 44 -21 50
-32 10 -19 9 -20 -5 -8 -9 8 -37 22 -64 32 -54 21 -42 26 19 8z m195 -136 c13
-18 34 -390 23 -397 -3 -2 -23 70 -44 158 -21 89 -42 171 -47 182 -9 22 -29
96 -29 107 0 13 85 -30 97 -50z"/>
<path d="M5625 2275 c-16 -7 -23 -14 -15 -14 8 0 26 6 40 14 32 18 14 18 -25
0z"/>
<path d="M5525 2245 c-22 -8 -31 -13 -20 -13 11 0 36 6 55 13 45 17 18 17 -35
0z"/>
<path d="M4831 2172 c22 -31 53 -75 67 -97 15 -22 29 -42 33 -45 3 -3 20 -27
39 -55 18 -27 44 -63 57 -80 36 -46 36 -47 73 -100 19 -27 38 -52 43 -53 4 -2
4 -9 1 -14 -4 -7 -2 -8 4 -4 7 4 12 1 12 -7 0 -22 88 -132 98 -123 2 3 -10 24
-28 48 -52 73 -211 296 -313 439 -54 75 -104 140 -112 143 -9 3 3 -20 26 -52z"/>
<path d="M5420 2210 c-18 -12 -2 -12 25 0 13 6 15 9 5 9 -8 0 -22 -4 -30 -9z"/>
<path d="M7341 2204 c0 -11 3 -14 6 -6 3 7 2 16 -1 19 -3 4 -6 -2 -5 -13z"/>
<path d="M5320 2195 c-16 -19 -5 -47 16 -43 27 5 42 37 24 48 -20 13 -26 12
-40 -5z"/>
<path d="M9444 2175 c-4 -9 -2 -21 3 -26 14 -14 45 1 41 20 -4 22 -37 26 -44
6z"/>
<path d="M7350 2174 c0 -18 33 -109 37 -99 2 6 -6 33 -17 60 -10 28 -19 45
-20 39z"/>
<path d="M7000 2153 c0 -4 5 -15 10 -23 8 -13 10 -13 10 2 0 9 -4 20 -10 23
-5 3 -10 3 -10 -2z"/>
<path d="M9461 2127 c-15 -18 7 -65 34 -73 22 -7 515 -493 515 -508 0 -5 7
-17 15 -25 8 -9 17 -36 21 -60 7 -43 6 -44 -17 -38 -13 3 -67 14 -119 23 -52
10 -103 24 -112 32 -22 18 -48 9 -48 -17 0 -11 -6 -24 -14 -28 -13 -8 -132
-112 -185 -162 -14 -14 -89 -81 -166 -150 -189 -168 -208 -188 -197 -194 5 -4
18 3 30 13 27 25 29 25 36 -5 4 -14 11 -25 16 -25 12 0 13 12 1 43 -9 23 -2
32 87 115 53 49 120 109 147 133 28 24 52 46 55 49 57 57 203 182 221 189 32
12 248 -33 270 -57 19 -20 66 -273 68 -372 2 -57 -9 -192 -49 -620 -5 -58 -11
-122 -12 -142 -1 -21 -5 -38 -8 -38 -11 1 -121 161 -125 182 -7 33 -20 41 -44
29 -29 -16 -25 -41 10 -53 22 -9 139 -173 139 -197 0 -20 32 -37 50 -26 13 8
13 42 1 50 -5 3 -8 20 -5 38 3 17 20 199 38 403 21 232 39 379 47 392 11 18
11 24 -3 39 -19 22 -72 294 -63 324 4 13 1 27 -10 39 -12 14 -17 36 -17 75 0
48 -4 58 -22 65 -31 12 -511 499 -530 538 -17 34 -36 41 -55 19z"/>
<path d="M1374 2115 c-7 -18 3 -35 21 -35 18 0 26 25 12 39 -15 15 -27 14 -33
-4z"/>
<path d="M7030 2111 c0 -6 4 -13 10 -16 6 -3 7 1 4 9 -7 18 -14 21 -14 7z"/>
<path d="M7050 2076 c0 -4 16 -28 35 -53 19 -25 35 -41 35 -36 0 6 -14 28 -31
49 -38 48 -39 49 -39 40z"/>
<path d="M9347 1966 c-59 -56 -107 -101 -107 -98 0 2 -28 -23 -62 -56 -102
-99 -61 -78 51 26 175 163 235 222 230 227 -3 2 -53 -42 -112 -99z"/>
<path d="M3620 2035 c0 -22 4 -26 23 -23 14 2 22 10 22 23 0 13 -8 21 -22 23
-19 3 -23 -1 -23 -23z"/>
<path d="M8562 2047 c-9 -11 -10 -17 -2 -22 15 -9 23 -1 18 21 -3 15 -4 16
-16 1z"/>
<path d="M9717 1994 c-13 -13 -7 -52 9 -58 22 -9 46 13 42 38 -3 21 -37 34
-51 20z"/>
<path d="M912 1928 c-18 -18 -15 -36 7 -48 28 -14 55 13 41 41 -12 22 -30 25
-48 7z"/>
<path d="M8370 1861 c-5 -11 -6 -22 -1 -25 4 -3 13 6 19 19 14 30 -2 34 -18 6z"/>
<path d="M1393 1783 c-18 -7 -16 -40 3 -47 21 -8 34 1 34 24 0 19 -17 30 -37
23z"/>
<path d="M4225 1680 c-4 -7 -3 -16 3 -22 14 -14 45 -2 40 15 -6 16 -34 21 -43
7z"/>
<path d="M10142 1633 c2 -10 10 -18 18 -18 8 0 16 8 18 18 2 12 -3 17 -18 17
-15 0 -20 -5 -18 -17z"/>
<path d="M7379 1601 c11 -19 18 -38 16 -42 -3 -4 2 -9 10 -13 29 -11 24 14
-11 51 l-35 38 20 -34z"/>
<path d="M2391 1546 c-8 -10 -8 -16 2 -24 17 -15 39 0 31 21 -8 21 -18 22 -33
3z"/>
<path d="M8023 1543 c-16 -6 -17 -33 -3 -33 11 0 26 28 19 34 -2 2 -10 1 -16
-1z"/>
<path d="M4282 1523 c2 -10 10 -18 18 -18 8 0 16 8 18 18 2 12 -3 17 -18 17
-15 0 -20 -5 -18 -17z"/>
<path d="M10076 1505 c4 -8 11 -15 16 -15 6 0 5 6 -2 15 -7 8 -14 15 -16 15
-2 0 -1 -7 2 -15z"/>
<path d="M7380 1490 c0 -5 5 -10 10 -10 6 0 10 5 10 10 0 6 -4 10 -10 10 -5 0
-10 -4 -10 -10z"/>
<path d="M8090 1480 c20 -13 43 -13 35 0 -3 6 -16 10 -28 10 -18 0 -19 -2 -7
-10z"/>
<path d="M10117 1451 c18 -16 29 -32 25 -37 -4 -4 -2 -4 4 -1 7 4 20 -5 29
-21 10 -15 32 -43 50 -62 18 -19 64 -69 102 -110 37 -41 83 -90 100 -108 18
-18 47 -52 65 -75 61 -76 95 -110 102 -99 4 6 -33 51 -81 101 -49 49 -110 116
-138 147 -27 32 -66 76 -86 98 -20 23 -60 68 -89 101 -57 65 -89 94 -105 95
-5 0 5 -13 22 -29z"/>
<path d="M1557 1437 c-8 -21 8 -39 29 -35 27 5 25 42 -2 46 -12 2 -24 -3 -27
-11z"/>
<path d="M8628 1443 c6 -2 18 -2 25 0 6 3 1 5 -13 5 -14 0 -19 -2 -12 -5z"/>
<path d="M8678 1443 c7 -3 16 -2 19 1 4 3 -2 6 -13 5 -11 0 -14 -3 -6 -6z"/>
<path d="M427 1414 c-4 -4 -7 -16 -7 -26 0 -14 6 -19 23 -16 14 2 22 10 22 23
0 20 -25 32 -38 19z"/>
<path d="M5013 1383 c-18 -7 -16 -42 2 -49 8 -3 20 -25 26 -48 10 -38 34 -124
80 -276 76 -254 93 -319 95 -350 1 -19 2 -41 3 -47 0 -7 11 -13 24 -13 28 0
183 -123 190 -151 5 -17 11 -21 34 -16 35 7 224 -42 239 -61 17 -23 49 -11 49
18 0 20 -6 26 -35 31 -19 3 -92 33 -161 66 l-125 61 -91 184 c-50 101 -94 194
-97 206 -6 18 -36 33 -36 17 0 -2 43 -90 95 -195 52 -104 93 -190 91 -190 -2
0 -30 14 -61 30 -53 28 -95 66 -95 87 0 10 -89 307 -116 388 -20 58 -34 115
-28 115 2 0 10 -12 17 -26 8 -15 17 -23 20 -17 3 5 -14 49 -38 97 -24 49 -41
95 -38 102 3 8 0 21 -7 29 -13 16 -17 17 -37 8z m403 -861 c-4 -3 -14 2 -24
12 -16 18 -16 18 6 6 13 -6 21 -14 18 -18z m114 -48 c37 -20 53 -32 38 -29
-40 8 -70 21 -98 44 -37 31 -13 24 60 -15z"/>
<path d="M8733 1364 c-7 -18 17 -38 31 -24 11 11 1 40 -14 40 -6 0 -13 -7 -17
-16z"/>
<path d="M9116 1347 c3 -10 9 -15 12 -12 3 3 0 11 -7 18 -10 9 -11 8 -5 -6z"/>
<path d="M4825 1311 c-9 -16 3 -31 26 -31 14 0 19 6 17 17 -4 20 -33 29 -43
14z"/>
<path d="M7467 1138 c-32 -124 -42 -195 -26 -165 6 10 9 23 6 30 -2 6 2 17 8
24 7 7 16 38 19 70 4 32 12 73 17 90 6 18 9 40 7 48 -2 8 -16 -36 -31 -97z"/>
<path d="M9150 1240 c0 -5 5 -10 11 -10 5 0 7 5 4 10 -3 6 -8 10 -11 10 -2 0
-4 -4 -4 -10z"/>
<path d="M9166 1200 c10 -38 45 -119 39 -89 -2 15 -14 46 -25 70 -11 24 -17
33 -14 19z"/>
<path d="M5147 1104 c-3 -4 4 -25 15 -48 15 -28 23 -36 26 -24 2 9 -4 30 -13
47 -17 33 -18 34 -28 25z"/>
<path d="M9210 1073 c0 -4 5 -15 10 -23 8 -13 10 -13 10 2 0 9 -4 20 -10 23
-5 3 -10 3 -10 -2z"/>
<path d="M10270 1045 c-6 -8 -9 -19 -6 -24 8 -12 86 -12 86 0 0 5 -6 9 -14 9
-7 0 -19 7 -26 15 -16 19 -24 19 -40 0z"/>
<path d="M8920 898 c-21 -73 -42 -128 -54 -139 -16 -15 -17 -21 -6 -34 7 -9
19 -14 26 -11 11 4 211 -70 314 -116 19 -9 67 -28 105 -43 39 -15 75 -33 81
-41 15 -19 40 -18 48 3 8 19 -9 33 -40 33 -11 0 -108 36 -215 79 -270 111
-269 110 -275 126 -3 7 11 65 30 128 38 121 41 137 28 137 -5 0 -24 -55 -42
-122z"/>
<path d="M5592 983 c5 -26 38 -29 38 -4 0 15 -6 21 -21 21 -14 0 -19 -5 -17
-17z"/>
<path d="M10081 910 c-5 -16 -6 -30 -1 -30 4 0 13 14 19 30 5 17 6 30 1 30 -4
0 -13 -13 -19 -30z"/>
<path d="M10594 925 c-8 -19 2 -45 16 -45 5 0 10 14 10 30 0 31 -16 41 -26 15z"/>
<path d="M7415 910 c-4 -12 -5 -24 -2 -27 3 -2 8 5 12 17 4 12 5 24 2 27 -3 2
-8 -5 -12 -17z"/>
<path d="M10295 910 c-3 -6 -3 -19 0 -31 10 -31 49 -21 53 14 3 23 0 27 -22
27 -14 0 -28 -5 -31 -10z"/>
<path d="M1906 883 c-11 -11 -6 -41 8 -46 13 -5 36 10 36 25 0 11 -36 28 -44
21z"/>
<path d="M6074 865 c-8 -19 3 -35 26 -35 19 0 30 17 23 38 -6 17 -42 15 -49
-3z"/>
<path d="M7401 854 c0 -11 3 -14 6 -6 3 7 2 16 -1 19 -3 4 -6 -2 -5 -13z"/>
<path d="M10060 845 c0 -8 2 -15 4 -15 2 0 6 7 10 15 3 8 1 15 -4 15 -6 0 -10
-7 -10 -15z"/>
<path d="M7390 821 c0 -6 4 -13 10 -16 6 -3 7 1 4 9 -7 18 -14 21 -14 7z"/>
<path d="M10029 763 c-13 -32 -24 -62 -25 -68 -2 -9 -15 -42 -65 -167 -27 -68
-34 -95 -23 -85 5 5 9 12 10 15 0 4 7 23 16 42 8 19 20 53 27 75 7 22 20 55
28 74 8 18 16 39 18 45 1 6 6 20 10 31 4 11 14 35 22 54 7 19 12 36 9 38 -2 2
-14 -22 -27 -54z"/>
<path d="M7381 763 c-10 -26 -10 -27 4 -9 8 11 15 23 15 28 0 15 -7 8 -19 -19z"/>
<path d="M2854 769 c-8 -14 21 -43 35 -35 6 4 11 16 11 27 0 21 -34 27 -46 8z"/>
<path d="M9321 764 c0 -11 3 -14 6 -6 3 7 2 16 -1 19 -3 4 -6 -2 -5 -13z"/>
<path d="M9330 739 c0 -3 9 -29 20 -59 20 -58 28 -48 9 11 -10 30 -29 61 -29
48z"/>
<path d="M2650 705 c-17 -20 -5 -45 20 -45 11 0 23 7 26 15 6 15 -11 45 -26
45 -4 0 -13 -7 -20 -15z"/>
<path d="M10570 704 c-19 -7 -45 -13 -58 -13 -26 -1 -41 -29 -22 -41 9 -5 23
-2 37 10 12 10 39 21 58 24 21 4 35 13 35 21 0 17 -3 17 -50 -1z"/>
<path d="M7060 675 c0 -6 19 -100 31 -157 6 -27 16 -48 21 -48 6 0 7 8 3 18
-4 9 -14 56 -22 105 -9 48 -20 87 -25 87 -4 0 -8 -2 -8 -5z"/>
<path d="M9370 615 c1 -6 7 -21 16 -35 l15 -25 -7 25 c-7 26 -24 52 -24 35z"/>
<path d="M5191 574 c0 -11 3 -14 6 -6 3 7 2 16 -1 19 -3 4 -6 -2 -5 -13z"/>
<path d="M5166 543 c-6 -14 -5 -15 5 -6 7 7 10 15 7 18 -3 3 -9 -2 -12 -12z"/>
<path d="M5136 515 c-9 -26 -7 -32 5 -12 6 10 9 21 6 23 -2 3 -7 -2 -11 -11z"/>
<path d="M3133 483 c-20 -7 -15 -41 6 -52 25 -14 50 13 35 37 -12 18 -24 23
-41 15z"/>
<path d="M5070 439 c0 -5 5 -7 10 -4 6 3 10 8 10 11 0 2 -4 4 -10 4 -5 0 -10
-5 -10 -11z"/>
<path d="M7110 405 c-16 -19 -9 -49 14 -53 35 -7 49 40 17 57 -14 8 -22 7 -31
-4z"/>
<path d="M5015 380 c-16 -16 -25 -30 -19 -29 8 0 60 59 52 59 -3 0 -17 -13
-33 -30z"/>
<path d="M5353 386 c-4 -7 -23 -21 -41 -30 -19 -10 -32 -20 -29 -23 6 -6 55
24 80 49 10 10 13 18 8 18 -6 0 -14 -6 -18 -14z"/>
<path d="M2619 375 c-32 -19 -339 -56 -360 -44 -12 6 -21 4 -30 -7 -18 -21 13
-53 34 -36 16 14 316 54 368 50 28 -3 35 1 37 18 4 28 -18 36 -49 19z"/>
<path d="M8337 383 c-15 -14 -7 -43 12 -43 26 0 36 17 21 35 -14 16 -23 19
-33 8z"/>
<path d="M5412 368 c-15 -15 -3 -38 19 -38 12 0 19 7 19 19 0 22 -23 34 -38
19z"/>
<path d="M8686 365 c-8 -22 4 -45 23 -45 24 0 40 19 34 41 -6 23 -48 26 -57 4z"/>
<path d="M4905 257 c-10 -8 -14 -17 -9 -20 6 -3 15 3 22 14 14 23 12 24 -13 6z"/>
<path d="M9154 255 c-7 -18 5 -35 29 -39 8 -1 56 -37 106 -80 63 -54 92 -86
96 -107 8 -36 27 -37 45 -4 7 14 22 25 32 25 23 0 551 101 557 106 20 19 -105
-1 -561 -92 -14 -3 -29 -1 -32 5 -4 6 -14 7 -23 4 -9 -4 -22 2 -32 14 -29 37
-143 133 -151 128 -5 -3 -10 7 -12 22 -4 33 -44 46 -54 18z"/>
<path d="M4866 211 c-13 -14 -14 -21 -5 -27 7 -4 10 -3 5 4 -3 6 2 15 11 21
10 5 15 12 12 15 -3 4 -14 -2 -23 -13z"/>
<path d="M1067 214 c-12 -12 -8 -42 6 -47 21 -8 39 8 35 29 -3 19 -29 30 -41
18z"/>
<path d="M5041 176 c-10 -11 -9 -14 1 -12 14 2 23 15 15 22 -2 2 -10 -2 -16
-10z"/>
<path d="M7020 181 c0 -5 23 -14 52 -21 29 -6 60 -18 70 -27 19 -17 48 -11 48
10 0 24 -28 41 -44 28 -9 -7 -23 -8 -42 -2 -54 17 -84 21 -84 12z"/>
<path d="M3810 165 c-6 -8 -9 -19 -5 -24 3 -6 -1 -37 -10 -70 -8 -32 -15 -63
-14 -67 1 -13 37 68 38 85 1 8 11 25 22 38 18 18 20 25 9 38 -16 19 -24 19
-40 0z"/>
<path d="M4832 164 c-7 -8 -8 -14 -3 -14 10 0 25 19 20 25 -2 1 -10 -3 -17
-11z"/>
<path d="M9200 130 c0 -19 3 -21 12 -12 9 9 9 15 0 24 -9 9 -12 7 -12 -12z"/>
<path d="M2243 90 c0 -30 2 -43 4 -28 2 16 2 40 0 55 -2 16 -4 3 -4 -27z"/>
<path d="M4799 128 c-9 -7 -23 -26 -33 -43 l-17 -30 20 25 c12 14 28 33 38 43
19 20 14 23 -8 5z"/>
<path d="M7200 120 c0 -5 5 -10 11 -10 5 0 7 5 4 10 -3 6 -8 10 -11 10 -2 0
-4 -4 -4 -10z"/>
<path d="M4890 69 c-25 -17 -54 -40 -65 -51 -17 -18 -14 -17 15 3 19 13 40 27
45 31 73 57 75 65 5 17z"/>
<path d="M9211 75 c0 -6 7 -26 15 -45 l14 -35 -6 35 c-5 31 -25 69 -23 45z"/>
</g>
</svg>
